0
SECTION
2
HEADER
9
$INSUNITS
70
4
9
$ACADVER
1
AC1014
9
$HANDSEED
5
FFFF
0
ENDSEC
0
SECTION
2
TABLES
0
TABLE
2
VPORT
5
8
100
AcDbSymbolTable
0
ENDTAB
0
TABLE
2
LTYPE
5
5
100
AcDbSymbolTable
0
LTYPE
5
14
100
AcDbSymbolTableRecord
100
AcDbLinetypeTableRecord
2
BYBLOCK
70
0
0
LTYPE
5
15
100
AcDbSymbolTableRecord
100
AcDbLinetypeTableRecord
2
BYLAYER
70
0
0
ENDTAB
0
TABLE
2
LAYER
5
2
100
AcDbSymbolTable
70
2
0
LAYER
5
50
100
AcDbSymbolTableRecord
100
AcDbLayerTableRecord
2
0
70
0
6
CONTINUOUS
0
ENDTAB
0
TABLE
2
STYLE
5
3
100
AcDbSymbolTable
70
1
0
STYLE
5
11
100
AcDbSymbolTableRecord
100
AcDbTextStyleTableRecord
2
STANDARD
70
0
0
ENDTAB
0
TABLE
2
VIEW
5
6
100
AcDbSymbolTable
70
0
0
ENDTAB
0
TABLE
2
UCS
5
7
100
AcDbSymbolTable
70
0
0
ENDTAB
0
TABLE
2
APPID
5
9
100
AcDbSymbolTable
70
2
0
APPID
5
12
100
AcDbSymbolTableRecord
100
AcDbRegAppTableRecord
2
ACAD
70
0
0
ENDTAB
0
TABLE
2
DIMSTYLE
5
A
100
AcDbSymbolTable
70
1
0
ENDTAB
0
TABLE
2
BLOCK_RECORD
5
1
100
AcDbSymbolTable
70
1
0
BLOCK_RECORD
5
1F
100
AcDbSymbolTableRecord
100
AcDbBlockTableRecord
2
*MODEL_SPACE
0
BLOCK_RECORD
5
1B
100
AcDbSymbolTableRecord
100
AcDbBlockTableRecord
2
*PAPER_SPACE
0
ENDTAB
0
ENDSEC
0
SECTION
2
BLOCKS
0
BLOCK
5
20
100
AcDbEntity
100
AcDbBlockBegin
2
*MODEL_SPACE
0
ENDBLK
5
21
100
AcDbEntity
100
AcDbBlockEnd
0
BLOCK
5
1C
100
AcDbEntity
100
AcDbBlockBegin
2
*PAPER_SPACE
0
ENDBLK
5
1D
100
AcDbEntity
100
AcDbBlockEnd
0
ENDSEC
0
SECTION
2
ENTITIES
0
SPLINE
5
100
100
AcDbEntity
8
0
100
AcDbSpline
70
4
71
5
72
21
73
15
74
0
42
0.000000001
43
0.0000000001
44
0.0000000001
40
0
40
0
40
0
40
0
40
0
40
0
40
0.10000000000000001
40
0.20000000000000001
40
0.30000000000000004
40
0.40000000000000002
40
0.5
40
0.59999999999999998
40
0.69999999999999996
40
0.79999999999999993
40
0.89999999999999991
40
1
40
1
40
1
40
1
40
1
40
1
41
1
41
1
41
1
41
1
41
1
41
1
41
1
41
1
41
1
41
1
41
1
41
1
41
1
41
1
41
1
10
-69.511325084209517
20
154.18801103442914
30
0
10
-69.394784252311183
20
153.25937816687122
30
0
10
-69.141921839906331
20
151.45635205793218
30
0
10
-68.703289872695791
20
148.914521086712
30
0
10
-67.997784452698113
20
145.85627547691047
30
0
10
-66.900311520299468
20
142.62462828453857
30
0
10
-65.565161664327036
20
140.04470099117287
30
0
10
-63.96792176220049
20
138.18343538292368
30
0
10
-62.087815002684188
20
137.09780233064106
30
0
10
-59.922389129792045
20
136.79452602106767
30
0
10
-57.487344509982151
20
137.23055540366121
30
0
10
-55.338463429051799
20
138.13010521540616
30
0
10
-53.620568830848043
20
139.0960649884112
30
0
10
-52.428847176210745
20
139.86742953251758
30
0
10
-51.821372157975993
20
140.28495839369504
30
0
0
SPLINE
5
101
100
AcDbEntity
8
0
100
AcDbSpline
70
4
71
5
72
26
73
20
74
0
42
0.000000001
43
0.0000000001
44
0.0000000001
40
0
40
0
40
0
40
0
40
0
40
0
40
0.066666666666666666
40
0.13333333333333333
40
0.20000000000000001
40
0.26666666666666666
40
0.33333333333333331
40
0.39999999999999997
40
0.46666666666666662
40
0.53333333333333333
40
0.59999999999999998
40
0.66666666666666663
40
0.73333333333333328
40
0.79999999999999993
40
0.86666666666666659
40
0.93333333333333324
40
1
40
1
40
1
40
1
40
1
40
1
41
1
41
1
41
1
41
1
41
1
41
1
41
1
41
1
41
1
41
1
41
1
41
1
41
1
41
1
41
1
41
1
41
1
41
1
41
1
41
1
10
-132.22477289440155
20
150
30
0
10
-132.98597091352806
20
150.67407739993351
30
0
10
-134.44805952125105
20
151.9058602323685
30
0
10
-136.46026084802162
20
153.40440376007734
30
0
10
-138.77878205164711
20
154.69925178608412
30
0
10
-141.06810146826896
20
155.13718070605262
30
0
10
-142.77382767362457
20
154.42525187761612
30
0
10
-143.96692811873268
20
152.66507447235907
30
0
10
-144.79703629545503
20
150.08365100705072
30
0
10
-145.48112719490956
20
147.01620637599257
30
0
10
-146.26324310119972
20
143.84220839661069
30
0
10
-147.38321486310087
20
140.936905560198
30
0
10
-149.04445799077155
20
138.6215476395522
30
0
10
-151.37335042389023
20
137.10202132305812
30
0
10
-154.43161948637797
20
136.48599304544149
30
0
10
-158.24019667483151
20
136.81741017633567
30
0
10
-161.8843780506306
20
137.84352520678055
30
0
10
-164.94796695074609
20
139.03535466088306
30
0
10
-167.13615781182222
20
140.01620322603844
30
0
10
-168.26670336784403
20
140.55320219111422
30
0
0
LWPOLYLINE
5
102
100
AcDbEntity
8
0
100
AcDbPolyline
90
8
70
1
43
0.0
10
-190
20
205.00000000000003
42
-0.41421356237309337
10
-165.00000000000003
20
230
10
-54.999999999999964
20
230
42
-0.41421356237309448
10
-29.999999999999979
20
205.00000000000003
10
-29.999999999999993
20
94.999999999999972
42
-0.41421356237309537
10
-54.999999999999964
20
70
10
-165.00000000000003
20
70
42
-0.41421356237309509
10
-190
20
94.999999999999972
0
ELLIPSE
5
103
100
AcDbEntity
8
0
100
AcDbEllipse
10
-110
20
150
30
0
11
-59.775197023390866
21
0
31
0.0
40
0.70793727505127435
41
0
42
6.2831853071795862
0
LINE
5
104
100
AcDbEntity
8
0
100
AcDbLine
10
-50.224802976609134
20
150
30
0
11
-169.77519702339089
21
150
31
0
0
LINE
5
105
100
AcDbEntity
8
0
100
AcDbLine
10
-109.99999999999999
20
192.31709009639235
30
0
11
-110
21
107.68290990360762
31
0
0
LWPOLYLINE
5
106
100
AcDbEntity
8
0
100
AcDbPolyline
90
8
70
1
43
0.0
10
-64.999999999999972
20
220
42
-0.41421356237309448
10
-39.999999999999979
20
195.00000000000003
10
-40
20
104.99999999999997
42
-0.41421356237309587
10
-64.999999999999972
20
80
10
-155.00000000000003
20
80
42
-0.41421356237309509
10
-180
20
104.99999999999997
10
-180
20
195.00000000000003
42
-0.41421356237309337
10
-155.00000000000003
20
220
0
CIRCLE
5
107
100
AcDbEntity
8
0
100
AcDbCircle
10
-110
20
150
30
0
40
12.648310330764543
210
0
220
0
230
1
0
SPLINE
5
108
100
AcDbEntity
8
0
100
AcDbSpline
70
4
71
5
72
26
73
20
74
0
42
0.000000001
43
0.0000000001
44
0.0000000001
40
0
40
0
40
0
40
0
40
0
40
0
40
0.066666666666666666
40
0.13333333333333333
40
0.20000000000000001
40
0.26666666666666666
40
0.33333333333333331
40
0.39999999999999997
40
0.46666666666666662
40
0.53333333333333333
40
0.59999999999999998
40
0.66666666666666663
40
0.73333333333333328
40
0.79999999999999993
40
0.86666666666666659
40
0.93333333333333324
40
1
40
1
40
1
40
1
40
1
40
1
41
1
41
1
41
1
41
1
41
1
41
1
41
1
41
1
41
1
41
1
41
1
41
1
41
1
41
1
41
1
41
1
41
1
41
1
41
1
41
1
10
-55.074116919761515
20
166.69624020448128
30
0
10
-56.030969905493023
20
167.44250859242948
30
0
10
-57.890793530370701
20
168.8373384117042
30
0
10
-60.518884200522251
20
170.63646649926852
30
0
10
-63.69734552852303
20
172.44477200353717
30
0
10
-67.11836984693295
20
173.70495629746091
30
0
10
-69.98410424728678
20
173.96165826966498
30
0
10
-72.308881649760622
20
173.24612438690031
30
0
10
-74.136533305818404
20
171.64664344965553
30
0
10
-75.557436891823471
20
169.34066057654439
30
0
10
-76.718708955831019
20
166.61376049008237
30
0
10
-77.79508040639017
20
163.80401142931373
30
0
10
-78.96570147272746
20
161.25730856756593
30
0
10
-80.391307572221834
20
159.28335076032005
30
0
10
-82.186267768903193
20
158.10131139662082
30
0
10
-84.405538642282977
20
157.81463656530744
30
0
10
-86.536334907122011
20
158.33024924342078
30
0
10
-88.33407960854673
20
159.13461770805822
30
0
10
-89.620685833193818
20
159.85518476876766
30
0
10
-90.28601533285709
20
160.26154660620804
30
0
0
CIRCLE
5
109
100
AcDbEntity
8
0
100
AcDbCircle
10
-59.544128698321728
20
205
30
0
40
10.021741059660306
210
0
220
0
230
1
0
LWPOLYLINE
5
110
100
AcDbEntity
8
0
100
AcDbPolyline
90
8
70
1
43
0.0
10
-34.99999999999995
20
250
42
-0.41421356237309415
10
-9.9999999999999911
20
225.00000000000003
10
-9.9999999999999964
20
74.999999999999972
42
-0.41421356237309515
10
-34.999999999999964
20
50
10
-185.00000000000006
20
49.999999999999993
42
-0.41421356237309437
10
-210
20
74.999999999999972
10
-210
20
225.00000000000003
42
-0.41421356237309509
10
-185.00000000000003
20
250
0
SPLINE
5
111
100
AcDbEntity
8
0
100
AcDbSpline
70
4
71
5
72
21
73
15
74
0
42
0.000000001
43
0.0000000001
44
0.0000000001
40
0
40
0
40
0
40
0
40
0
40
0
40
0.10000000000000001
40
0.20000000000000001
40
0.30000000000000004
40
0.40000000000000002
40
0.5
40
0.59999999999999998
40
0.69999999999999996
40
0.79999999999999993
40
0.89999999999999991
40
1
40
1
40
1
40
1
40
1
40
1
41
1
41
1
41
1
41
1
41
1
41
1
41
1
41
1
41
1
41
1
41
1
41
1
41
1
41
1
41
1
10
-80
20
120
30
0
10
-79.486283058872971
20
120.78946155157276
30
0
10
-78.520625694250214
20
122.33550336602329
30
0
10
-77.257461816690252
20
124.55592615158152
30
0
10
-75.950049302366281
20
127.31593038149555
30
0
10
-74.986728481826276
20
130.40881728068751
30
0
10
-74.755519582814586
20
133.11202887319206
30
0
10
-75.318077761274296
20
135.39274846647646
30
0
10
-76.7114811667754
20
137.23124077293707
30
0
10
-78.907275850279859
20
138.6426507464748
30
0
10
-81.846729209312656
20
139.65823951561188
30
0
10
-84.745335807911403
20
140.17953988100385
30
0
10
-87.207581337081137
20
140.41706905343452
30
0
10
-88.975122622228696
20
140.50833327049642
30
0
10
-89.890404980434255
20
140.53719289233987
30
0
0
CIRCLE
5
112
100
AcDbEntity
8
0
100
AcDbCircle
10
-110
20
150
30
0
40
22.224772894401553
210
0
220
0
230
1
0
SPLINE
5
113
100
AcDbEntity
8
0
100
AcDbSpline
70
4
71
5
72
31
73
25
74
0
42
0.000000001
43
0.0000000001
44
0.0000000001
40
0
40
0
40
0
40
0
40
0
40
0
40
0.050000000000000003
40
0.10000000000000001
40
0.15000000000000002
40
0.20000000000000001
40
0.25
40
0.29999999999999999
40
0.34999999999999998
40
0.39999999999999997
40
0.44999999999999996
40
0.49999999999999994
40
0.54999999999999993
40
0.59999999999999998
40
0.65000000000000002
40
0.70000000000000007
40
0.75000000000000011
40
0.80000000000000016
40
0.8500000000000002
40
0.90000000000000024
40
0.95000000000000029
40
1
40
1
40
1
40
1
40
1
40
1
41
1
41
1
41
1
41
1
41
1
41
1
41
1
41
1
41
1
41
1
41
1
41
1
41
1
41
1
41
1
41
1
41
1
41
1
41
1
41
1
41
1
41
1
41
1
41
1
41
1
10
-154.16990751309243
20
121.36837441588978
30
0
10
-154.23978343104932
20
122.16465832438647
30
0
10
-154.33177935318392
20
123.66518851604283
30
0
10
-154.3265063404472
20
125.63987253617543
30
0
10
-154.03176508008804
20
127.71829425874651
30
0
10
-153.18569751465168
20
129.39551082523843
30
0
10
-151.87966784971795
20
130.18515796251549
30
0
10
-150.15897715514581
20
130.17286545786794
30
0
10
-148.10846197255455
20
129.5193314285514
30
0
10
-145.86677103344215
20
128.48748916036979
30
0
10
-143.60071537040486
20
127.39413105184605
30
0
10
-141.47924675428348
20
126.56083636198477
30
0
10
-139.64642497860862
20
126.26303495570453
30
0
10
-138.19752550893131
20
126.68496967502409
30
0
10
-137.14522107871863
20
127.85605763229742
30
0
10
-136.41600188848233
20
129.64394875399256
30
0
10
-135.88663530730679
20
131.82266554546925
30
0
10
-135.4104218292415
20
134.12157634011467
30
0
10
-134.84476733841353
20
136.27686270989633
30
0
10
-134.08291011672245
20
138.09063875036821
30
0
10
-133.06728866624366
20
139.45598019465504
30
0
10
-132.03038062693571
20
140.14957708580494
30
0
10
-131.12372129407208
20
140.44029814723973
30
0
10
-130.4621717507743
20
140.5325012731617
30
0
10
-130.11712060325127
20
140.55320219111422
30
0
0
SPLINE
5
114
100
AcDbEntity
8
0
100
AcDbSpline
70
4
71
5
72
26
73
20
74
0
42
0.000000001
43
0.0000000001
44
0.0000000001
40
0
40
0
40
0
40
0
40
0
40
0
40
0.066666666666666666
40
0.13333333333333333
40
0.20000000000000001
40
0.26666666666666666
40
0.33333333333333331
40
0.39999999999999997
40
0.46666666666666662
40
0.53333333333333333
40
0.59999999999999998
40
0.66666666666666663
40
0.73333333333333328
40
0.79999999999999993
40
0.86666666666666659
40
0.93333333333333324
40
1
40
1
40
1
40
1
40
1
40
1
41
1
41
1
41
1
41
1
41
1
41
1
41
1
41
1
41
1
41
1
41
1
41
1
41
1
41
1
41
1
41
1
41
1
41
1
41
1
41
1
10
-116.3994093359551
20
107.92611537316833
30
0
10
-115.13515917983385
20
108.20892519647299
30
0
10
-112.77229860788171
20
108.76759616214856
30
0
10
-109.72493262309371
20
109.58475620600431
30
0
10
-106.66280472551202
20
110.63231007964141
30
0
10
-104.52116171264413
20
111.87163313118658
30
0
10
-104.04048377490363
20
113.04374728314593
30
0
10
-105.10958062360748
20
114.15703867483444
30
0
10
-107.47253713890659
20
115.22860418134189
30
0
10
-110.68965239514137
20
116.28632792606909
30
0
10
-114.22272023211036
20
117.36386601831398
30
0
10
-117.49755829931831
20
118.49684942865994
30
0
10
-119.97470991138866
20
119.71849727019359
30
0
10
-121.21157507919943
20
121.05568296439597
30
0
10
-120.94801053904534
20
122.52334416990641
30
0
10
-119.0696847582301
20
124.12709343082561
30
0
10
-116.25320576734914
20
125.51924615680973
30
0
10
-113.40912361900004
20
126.62387296724008
30
0
10
-111.19018739071311
20
127.38699220910776
30
0
10
-110
20
127.77522710559845
30
0
0
SPLINE
5
115
100
AcDbEntity
8
0
100
AcDbSpline
70
4
71
5
72
16
73
10
74
0
42
0.000000001
43
0.0000000001
44
0.0000000001
40
0
40
0
40
0
40
0
40
0
40
0
40
0.20000000000000001
40
0.40000000000000002
40
0.60000000000000009
40
0.80000000000000004
40
1
40
1
40
1
40
1
40
1
40
1
41
1
41
1
41
1
41
1
41
1
41
1
41
1
41
1
41
1
41
1
10
-71.210707099925713
20
117.80274394368584
30
0
10
-71.562278815920735
20
117.89063418593095
30
0
10
-72.265422247912966
20
118.0664146704232
30
0
10
-73.320137395908318
20
118.33008539716838
30
0
10
-74.72642425991431
20
118.68164636617405
30
0
10
-76.484282839935631
20
119.1210975774446
30
0
10
-77.890569703959031
20
119.47265854646611
30
0
10
-78.945284851978798
20
119.73632927323308
30
0
10
-79.6484282839928
20
119.91210975774433
30
0
10
-80
20
120
30
0
0
SPLINE
5
116
100
AcDbEntity
8
0
100
AcDbSpline
70
4
71
5
72
21
73
15
74
0
42
0.000000001
43
0.0000000001
44
0.0000000001
40
0
40
0
40
0
40
0
40
0
40
0
40
0.10000000000000001
40
0.20000000000000001
40
0.30000000000000004
40
0.40000000000000002
40
0.5
40
0.59999999999999998
40
0.69999999999999996
40
0.79999999999999993
40
0.89999999999999991
40
1
40
1
40
1
40
1
40
1
40
1
41
1
41
1
41
1
41
1
41
1
41
1
41
1
41
1
41
1
41
1
41
1
41
1
41
1
41
1
41
1
10
-87.775227105598447
20
150
30
0
10
-87.23484279480769
20
149.51641588531186
30
0
10
-86.169204480725611
20
148.59826985390387
30
0
10
-84.61613581662327
20
147.36811054654862
30
0
10
-82.637666971061989
20
146.02691571623708
30
0
10
-80.328976141720702
20
144.88306273398774
30
0
10
-78.19990648678332
20
144.32118237670625
30
0
10
-76.265971332847869
20
144.39153782431708
30
0
10
-74.537145199178198
20
145.1264465203638
30
0
10
-73.007342490223664
20
146.5061911345995
30
0
10
-71.662372940379726
20
148.48479520489943
30
0
10
-70.722556730612368
20
150.50883502982953
30
0
10
-70.08947821881199
20
152.2594439180136
30
0
10
-69.698811754106828
20
153.52820675347198
30
0
10
-69.511325084209517
20
154.18801103442914
30
0
0
SPLINE
5
117
100
AcDbEntity
8
0
100
AcDbSpline
70
4
71
5
72
26
73
20
74
0
42
0.000000001
43
0.0000000001
44
0.0000000001
40
0
40
0
40
0
40
0
40
0
40
0
40
0.066666666666666666
40
0.13333333333333333
40
0.20000000000000001
40
0.26666666666666666
40
0.33333333333333331
40
0.39999999999999997
40
0.46666666666666662
40
0.53333333333333333
40
0.59999999999999998
40
0.66666666666666663
40
0.73333333333333328
40
0.79999999999999993
40
0.86666666666666659
40
0.93333333333333324
40
1
40
1
40
1
40
1
40
1
40
1
41
1
41
1
41
1
41
1
41
1
41
1
41
1
41
1
41
1
41
1
41
1
41
1
41
1
41
1
41
1
41
1
41
1
41
1
41
1
41
1
10
-129.3247378097609
20
160.97702322087929
30
0
10
-130.15030529549261
20
161.27934978452313
30
0
10
-131.76887775385853
20
161.82942762499803
30
0
10
-134.09905034243184
20
162.4908228272173
30
0
10
-137.0091421979815
20
163.04282165038109
30
0
10
-140.31145204051518
20
163.18051513311443
30
0
10
-143.27139936934546
20
162.78305646685953
30
0
10
-145.88735791097795
20
161.9068166463689
30
0
10
-148.16840733147981
20
160.66563351721183
30
0
10
-150.14277146288097
20
159.25963921677521
30
0
10
-151.86110357674715
20
157.98160689813818
30
0
10
-153.38255033073804
20
157.14999777859413
30
0
10
-154.76581987572632
20
157.06205775310912
30
0
10
-156.0572873498401
20
157.92435527508724
30
0
10
-157.28735749716787
20
159.83805730521857
30
0
10
-158.47498831800459
20
162.84152095437787
30
0
10
-159.39898525036935
20
166.11454661722703
30
0
10
-160.0789765455136
20
169.05134177188171
30
0
10
-160.52656283195807
20
171.22186880583658
30
0
10
-160.74892079570418
20
172.3602996072174
30
0
0
SPLINE
5
118
100
AcDbEntity
8
0
100
AcDbSpline
70
4
71
5
72
26
73
20
74
0
42
0.000000001
43
0.0000000001
44
0.0000000001
40
0
40
0
40
0
40
0
40
0
40
0
40
0.066666666666666666
40
0.13333333333333333
40
0.20000000000000001
40
0.26666666666666666
40
0.33333333333333331
40
0.39999999999999997
40
0.46666666666666662
40
0.53333333333333333
40
0.59999999999999998
40
0.66666666666666663
40
0.73333333333333328
40
0.79999999999999993
40
0.86666666666666659
40
0.93333333333333324
40
1
40
1
40
1
40
1
40
1
40
1
41
1
41
1
41
1
41
1
41
1
41
1
41
1
41
1
41
1
41
1
41
1
41
1
41
1
41
1
41
1
41
1
41
1
41
1
41
1
41
1
10
-85.187002653799709
20
188.4989629956288
30
0
10
-84.731964400903692
20
187.44048292939712
30
0
10
-83.913851798378332
20
185.43251132279221
30
0
10
-82.962573958912571
20
182.74751868629934
30
0
10
-82.250003111555245
20
179.82621952695365
30
0
10
-82.295494216835124
20
177.2850524209266
30
0
10
-83.264131957703299
20
175.84171000233013
30
0
10
-85.094822662301056
20
175.42952260839661
30
0
10
-87.648946910601367
20
175.89391311548187
30
0
10
-90.68005822361576
20
176.95751360599422
30
0
10
-93.878420974406424
20
178.27086520323647
30
0
10
-96.909049511662829
20
179.45558489739031
30
0
10
-99.452364412162609
20
180.1503109731149
30
0
10
-101.23933273980064
20
180.05033505305749
30
0
10
-102.10351847838263
20
178.96597255292096
30
0
10
-101.97268661926019
20
176.81341125099021
30
0
10
-101.05724096444487
20
174.21848173637278
30
0
10
-99.918990655138515
20
171.78558900806664
30
0
10
-98.960840844216705
20
169.94888492117775
30
0
10
-98.431938311288704
20
168.97684059515427
30
0
0
SPLINE
5
119
100
AcDbEntity
8
0
100
AcDbSpline
70
4
71
5
72
26
73
20
74
0
42
0.000000001
43
0.0000000001
44
0.0000000001
40
0
40
0
40
0
40
0
40
0
40
0
40
0.066666666666666666
40
0.13333333333333333
40
0.20000000000000001
40
0.26666666666666666
40
0.33333333333333331
40
0.39999999999999997
40
0.46666666666666662
40
0.53333333333333333
40
0.59999999999999998
40
0.66666666666666663
40
0.73333333333333328
40
0.79999999999999993
40
0.86666666666666659
40
0.93333333333333324
40
1
40
1
40
1
40
1
40
1
40
1
41
1
41
1
41
1
41
1
41
1
41
1
41
1
41
1
41
1
41
1
41
1
41
1
41
1
41
1
41
1
41
1
41
1
41
1
41
1
41
1
10
-135.18391533672235
20
188.3780664054579
30
0
10
-136.03494020247626
20
187.18770526839819
30
0
10
-137.6011673666722
20
184.93097491455751
30
0
10
-139.5430404405991
20
181.91785513064411
30
0
10
-141.31134388670773
20
178.64972267090837
30
0
10
-142.13697500070944
20
175.82850798069558
30
0
10
-141.59104788389118
20
174.25865563421669
30
0
10
-139.75121241506369
20
173.86817682403495
30
0
10
-136.80153668767849
20
174.48716716045033
30
0
10
-133.07283724966882
20
175.81080347196854
30
0
10
-128.98304602760794
20
177.45416341170034
30
0
10
-124.98861365687839
20
178.99692940236565
30
0
10
-121.53282363610224
20
180.03097015744973
30
0
10
-119.00031622972367
20
180.20222639048168
30
0
10
-117.65481441418919
20
179.26812807188105
30
0
10
-117.61586879063762
20
177.11901658172795
30
0
10
-118.65927623580006
20
174.40105085316947
30
0
10
-120.04215604731299
20
171.80475243311616
30
0
10
-121.22900279723254
20
169.82771580167878
30
0
10
-121.8886554454366
20
168.77765698662685
30
0
0
LWPOLYLINE
5
120
100
AcDbEntity
8
0
100
AcDbPolyline
90
4
70
1
43
0.0
10
-225
20
0
10
0
20
0
10
0
20
300
10
-225
20
300
0
ENDSEC
0
SECTION
2
OBJECTS
0
DICTIONARY
5
C
100
AcDbDictionary
3
ACAD_GROUP
350
D
3
ACAD_MLINESTYLE
350
17
0
DICTIONARY
5
D
100
AcDbDictionary
0
DICTIONARY
5
1A
330
C
100
AcDbDictionary
0
DICTIONARY
5
17
100
AcDbDictionary
0
ENDSEC
0
EOF
