0
SECTION
2
HEADER
9
$INSUNITS
70
4
9
$ACADVER
1
AC1014
9
$HANDSEED
5
FFFF
0
ENDSEC
0
SECTION
2
TABLES
0
TABLE
2
VPORT
5
8
100
AcDbSymbolTable
0
ENDTAB
0
TABLE
2
LTYPE
5
5
100
AcDbSymbolTable
0
LTYPE
5
14
100
AcDbSymbolTableRecord
100
AcDbLinetypeTableRecord
2
BYBLOCK
70
0
0
LTYPE
5
15
100
AcDbSymbolTableRecord
100
AcDbLinetypeTableRecord
2
BYLAYER
70
0
0
ENDTAB
0
TABLE
2
LAYER
5
2
100
AcDbSymbolTable
70
2
0
LAYER
5
50
100
AcDbSymbolTableRecord
100
AcDbLayerTableRecord
2
0
70
0
6
CONTINUOUS
0
ENDTAB
0
TABLE
2
STYLE
5
3
100
AcDbSymbolTable
70
1
0
STYLE
5
11
100
AcDbSymbolTableRecord
100
AcDbTextStyleTableRecord
2
STANDARD
70
0
0
ENDTAB
0
TABLE
2
VIEW
5
6
100
AcDbSymbolTable
70
0
0
ENDTAB
0
TABLE
2
UCS
5
7
100
AcDbSymbolTable
70
0
0
ENDTAB
0
TABLE
2
APPID
5
9
100
AcDbSymbolTable
70
2
0
APPID
5
12
100
AcDbSymbolTableRecord
100
AcDbRegAppTableRecord
2
ACAD
70
0
0
ENDTAB
0
TABLE
2
DIMSTYLE
5
A
100
AcDbSymbolTable
70
1
0
ENDTAB
0
TABLE
2
BLOCK_RECORD
5
1
100
AcDbSymbolTable
70
1
0
BLOCK_RECORD
5
1F
100
AcDbSymbolTableRecord
100
AcDbBlockTableRecord
2
*MODEL_SPACE
0
BLOCK_RECORD
5
1B
100
AcDbSymbolTableRecord
100
AcDbBlockTableRecord
2
*PAPER_SPACE
0
ENDTAB
0
ENDSEC
0
SECTION
2
BLOCKS
0
BLOCK
5
20
100
AcDbEntity
100
AcDbBlockBegin
2
*MODEL_SPACE
0
ENDBLK
5
21
100
AcDbEntity
100
AcDbBlockEnd
0
BLOCK
5
1C
100
AcDbEntity
100
AcDbBlockBegin
2
*PAPER_SPACE
0
ENDBLK
5
1D
100
AcDbEntity
100
AcDbBlockEnd
0
ENDSEC
0
SECTION
2
ENTITIES
0
LWPOLYLINE
5
100
100
AcDbEntity
8
0
100
AcDbPolyline
90
4
70
1
43
0.0
10
-230
20
0
10
0
20
0
10
0
20
180
10
-230
20
180
0
LWPOLYLINE
5
101
100
AcDbEntity
8
0
100
AcDbPolyline
90
8
70
1
43
0.0
10
-150
20
20
10
-190
20
19.999999999999982
42
-0.41421356237309526
10
-210
20
40
10
-209.99999999999997
20
150
42
-0.41421356237309553
10
-190
20
170
10
-150
20
170
42
-0.41421356237309603
10
-130
20
150
10
-130
20
39.999999999999993
42
-0.41421356237309542
0
LINE
5
102
100
AcDbEntity
8
0
100
AcDbLine
10
-110
20
0
30
0
11
-110
21
180
31
0
0
LWPOLYLINE
5
103
100
AcDbEntity
8
0
100
AcDbPolyline
90
4
70
1
43
0.0
10
-140.00000208616257
20
20
10
-200
20
20
10
-200.00000298023224
20
17.500000260770321
10
-140.00000208616257
20
17.500000260770321
0
LINE
5
104
100
AcDbEntity
8
0
100
AcDbLine
10
-110
20
10
30
0
11
-10
21
10
31
0
0
LINE
5
105
100
AcDbEntity
8
0
100
AcDbLine
10
-10
20
40
30
0
11
-110
21
40
31
0
0
LINE
5
106
100
AcDbEntity
8
0
100
AcDbLine
10
-110
20
40
30
0
11
-110
21
10
31
0
0
LWPOLYLINE
5
107
100
AcDbEntity
8
0
100
AcDbPolyline
90
4
70
1
43
0.0
10
-110
20
20
10
-110
20
30.000000447034836
10
-107.50000160187483
20
30.000000447034836
10
-107.50000160187483
20
20.000000298023224
0
LWPOLYLINE
5
108
100
AcDbEntity
8
0
100
AcDbPolyline
90
4
70
1
43
0.0
10
-65.000000968575478
20
10
10
-55
20
10
10
-55.000000819563866
20
12.500000186264515
10
-65.000000968575478
20
12.500000186264515
0
LWPOLYLINE
5
109
100
AcDbEntity
8
0
100
AcDbPolyline
90
16
70
1
43
0.0
10
30
20
40
10
130
20
40
10
130
20
30.000000447034836
10
132.50000197440386
20
30.000000447034836
10
132.50000197440386
20
20.000000298023224
10
130.00000193715096
20
20.000000298023224
10
130
20
10
10
85.000001266598701
20
10
10
85.000001266598701
20
7.500000111758709
10
75.00000111758709
20
7.500000111758709
10
75.00000111758709
20
10
10
30
20
10
10
30
20
20.000000298023224
10
27.500001601875645
20
20
10
27.500000409781933
20
30.000000447034836
10
30
20
30.000000447034836
0
LWPOLYLINE
5
110
100
AcDbEntity
8
0
100
AcDbPolyline
90
16
70
1
43
0.0
10
210
20
110
10
170
20
110
10
170
20
100.00000149011612
10
167.5000024959445
20
100.00000149011612
10
167.5000024959445
20
90.000001341104507
10
170
20
90.000001341104507
10
170
20
80
10
185.00000275671482
20
80
10
185.00000275671482
20
82.500001229345798
10
195.00000290572643
20
82.500001229345798
10
195.00000290572643
20
80
10
210
20
80
10
210
20
90.000001341104507
10
207.50000309199095
20
90.000001341104507
10
207.50000309199095
20
100.00000149011612
10
210
20
100.00000149011612
0
LWPOLYLINE
5
111
100
AcDbEntity
8
0
100
AcDbPolyline
90
16
70
1
43
0.0
10
210
20
50
10
170
20
50
10
170.0000025331974
20
40.000000596046448
10
172.49999614432454
20
39.999999105930328
10
172.50000257045031
20
30.000000447034836
10
170
20
30.000000447034836
10
170
20
20
10
185.00000275671482
20
20
10
185.00000275671482
20
22.500000335276127
10
195.00000290572643
20
22.500000335276127
10
195.00000290572643
20
20
10
210
20
20
10
210
20
30.000000447034836
10
212.50000316649675
20
30.000000447034836
10
212.50000316649675
20
40.000000596046448
10
210
20
40.000000596046448
0
LWPOLYLINE
5
112
100
AcDbEntity
8
0
100
AcDbPolyline
90
20
70
1
43
0.0
10
75.00000111758709
20
110
10
30
20
110
10
30
20
95
10
27.500000409781933
20
95
10
27.500000409781933
20
85.000001266598701
10
30.000000447034836
20
85.000001266598701
10
30
20
70
10
75.00000111758709
20
70
10
75.00000111758709
20
72.500001080334187
10
85.000001266598701
20
72.500001080334187
10
85.000001266598701
20
70
10
130
20
70
10
130
20
85.000001266598701
10
132.50000197440386
20
85.000001266598701
10
132.50000197440386
20
95.000001415610313
10
130
20
95.000001415610313
10
130
20
110
10
85.000001266598701
20
110
10
85.000001266598701
20
112.50000167638063
10
75.00000111758709
20
112.50000167638063
0
LINE
5
113
100
AcDbEntity
8
0
100
AcDbLine
10
-10
20
10
30
0
11
-10
21
20
31
0
0
LINE
5
114
100
AcDbEntity
8
0
100
AcDbLine
10
-10
20
30.000000447034836
30
0
11
-10
21
40
31
0
0
LWPOLYLINE
5
115
100
AcDbEntity
8
0
100
AcDbPolyline
90
8
70
1
43
0.0
10
-325
20
165
10
-325
20
175
10
-245
20
175
10
-245
20
165
10
-255
20
165
10
-255
20
65
10
-315
20
65
10
-315
20
165
0
LWPOLYLINE
5
116
100
AcDbEntity
8
0
100
AcDbPolyline
90
4
70
1
43
0.0
10
0
20
150
10
-110
20
150
10
-110
20
175
10
0
20
175
0
LWPOLYLINE
5
117
100
AcDbEntity
8
0
100
AcDbPolyline
90
4
70
1
43
0.0
10
0
20
125
10
-110
20
125
10
-110
20
150
10
0
20
150
0
LWPOLYLINE
5
118
100
AcDbEntity
8
0
100
AcDbPolyline
90
4
70
1
43
0.0
10
0
20
100
10
-110
20
100
10
-110
20
125
10
0
20
125
0
LINE
5
119
100
AcDbEntity
8
0
100
AcDbLine
10
-10
20
30.000000447034836
30
0
11
-10
21
20
31
0
0
LINE
5
120
100
AcDbEntity
8
0
100
AcDbLine
10
-10
20
30.000000447034836
30
0
11
-12.500000186264515
21
30.000000447034836
31
0
0
LINE
5
121
100
AcDbEntity
8
0
100
AcDbLine
10
-12.500000186264515
20
30.000000447034836
30
0
11
-12.500000186264515
21
20.000000298023224
31
0
0
LINE
5
122
100
AcDbEntity
8
0
100
AcDbLine
10
-12.500000186264515
20
20.000000298023224
30
0
11
-10
21
20
31
0
0
LINE
5
123
100
AcDbEntity
8
0
100
AcDbLine
10
-96.773533821105957
20
169.37244117259979
30
0
11
-106.26875847578049
21
169.37244117259979
31
0
0
SPLINE
5
124
100
AcDbEntity
8
0
100
AcDbSpline
70
0
71
2
72
6
73
3
74
0
42
0.000000001
43
0.0000000001
44
0.0000000001
40
0
40
0
40
0
40
1
40
1
40
1
10
-106.26875847578049
20
169.37244117259979
30
0
10
-107.05320596694946
20
166.82810306549072
30
0
10
-108.64256486296654
20
165.15006721019745
30
0
0
LINE
5
125
100
AcDbEntity
8
0
100
AcDbLine
10
-108.64256486296654
20
165.15006721019745
30
0
11
-109.49522510170937
21
165.82537412643433
31
0
0
SPLINE
5
126
100
AcDbEntity
8
0
100
AcDbSpline
70
0
71
2
72
6
73
3
74
0
42
0.000000001
43
0.0000000001
44
0.0000000001
40
0
40
0
40
0
40
1
40
1
40
1
10
-109.49522510170937
20
165.82537412643433
30
0
10
-107.22373783588409
20
168.45838904380798
30
0
10
-106.88267379999161
20
171.98499202728271
30
0
0
LINE
5
127
100
AcDbEntity
8
0
100
AcDbLine
10
-106.88267379999161
20
171.98499202728271
30
0
11
-105.87994545698166
21
171.50750160217285
31
0
0
SPLINE
5
128
100
AcDbEntity
8
0
100
AcDbSpline
70
0
71
2
72
6
73
3
74
0
42
0.000000001
43
0.0000000001
44
0.0000000001
40
0
40
0
40
0
40
1
40
1
40
1
10
-105.87994545698166
20
171.50750160217285
30
0
10
-105.90040922164917
20
170.95497846603394
30
0
10
-106.01637095212936
20
170.38881182670593
30
0
0
LINE
5
129
100
AcDbEntity
8
0
100
AcDbLine
10
-106.01637095212936
20
170.38881182670593
30
0
11
-96.773533821105957
21
170.38881182670593
31
0
0
LINE
5
130
100
AcDbEntity
8
0
100
AcDbLine
10
-96.773533821105957
20
170.38881182670593
30
0
11
-96.773533821105957
21
169.37244117259979
31
0
0
LINE
5
131
100
AcDbEntity
8
0
100
AcDbLine
10
-97.933151721954346
20
167.34652042388916
30
0
11
-106.46657556295395
21
167.34652042388916
31
0
0
LINE
5
132
100
AcDbEntity
8
0
100
AcDbLine
10
-106.46657556295395
20
167.34652042388916
30
0
11
-106.46657556295395
21
168.36971282958984
31
0
0
LINE
5
133
100
AcDbEntity
8
0
100
AcDbLine
10
-106.46657556295395
20
168.36971282958984
30
0
11
-97.933151721954346
21
168.36971282958984
31
0
0
LINE
5
134
100
AcDbEntity
8
0
100
AcDbLine
10
-97.933151721954346
20
168.36971282958984
30
0
11
-97.933151721954346
21
167.34652042388916
31
0
0
SPLINE
5
135
100
AcDbEntity
8
0
100
AcDbSpline
70
0
71
2
72
6
73
3
74
0
42
0.000000001
43
0.0000000001
44
0.0000000001
40
0
40
0
40
0
40
1
40
1
40
1
10
-96.548430919647217
20
161.98499321937561
30
0
10
-96.98499321937561
20
159.2837655544281
30
0
10
-97.987722158432007
20
159.2837655544281
30
0
0
SPLINE
5
136
100
AcDbEntity
8
0
100
AcDbSpline
70
0
71
2
72
6
73
3
74
0
42
0.000000001
43
0.0000000001
44
0.0000000001
40
0
40
0
40
0
40
1
40
1
40
1
10
-97.987722158432007
20
159.2837655544281
30
0
10
-98.778990507125854
20
159.2837655544281
30
0
10
-99.59754467010498
20
160.90040922164917
30
0
0
SPLINE
5
137
100
AcDbEntity
8
0
100
AcDbSpline
70
0
71
2
72
6
73
3
74
0
42
0.000000001
43
0.0000000001
44
0.0000000001
40
0
40
0
40
0
40
1
40
1
40
1
10
-99.59754467010498
20
160.90040922164917
30
0
10
-100.41609823703766
20
162.52387404441833
30
0
10
-100.45702636241913
20
165.41609764099121
30
0
0
LINE
5
138
100
AcDbEntity
8
0
100
AcDbLine
10
-100.45702636241913
20
165.41609764099121
30
0
11
-107.41473376750946
21
165.41609764099121
31
0
0
LINE
5
139
100
AcDbEntity
8
0
100
AcDbLine
10
-107.41473376750946
20
165.41609764099121
30
0
11
-107.41473376750946
21
166.43929004669189
31
0
0
LINE
5
140
100
AcDbEntity
8
0
100
AcDbLine
10
-107.41473376750946
20
166.43929004669189
30
0
11
-99.338335990905762
21
166.43929004669189
31
0
0
SPLINE
5
141
100
AcDbEntity
8
0
100
AcDbSpline
70
0
71
2
72
6
73
3
74
0
42
0.000000001
43
0.0000000001
44
0.0000000001
40
0
40
0
40
0
40
1
40
1
40
1
10
-99.338335990905762
20
166.43929004669189
30
0
10
-99.440654516220093
20
162.97407865524292
30
0
10
-98.78581166267395
20
161.7189633846283
30
0
0
SPLINE
5
142
100
AcDbEntity
8
0
100
AcDbSpline
70
0
71
2
72
6
73
3
74
0
42
0.000000001
43
0.0000000001
44
0.0000000001
40
0
40
0
40
0
40
1
40
1
40
1
10
-98.78581166267395
20
161.7189633846283
30
0
10
-98.124147653579712
20
160.47066807746887
30
0
10
-97.933151721954346
20
160.47066807746887
30
0
0
SPLINE
5
143
100
AcDbEntity
8
0
100
AcDbSpline
70
0
71
2
72
6
73
3
74
0
42
0.000000001
43
0.0000000001
44
0.0000000001
40
0
40
0
40
0
40
1
40
1
40
1
10
-97.933151721954346
20
160.47066807746887
30
0
10
-97.892223596572876
20
160.47066807746887
30
0
10
-97.742155790328979
20
161.1391544342041
30
0
0
SPLINE
5
144
100
AcDbEntity
8
0
100
AcDbSpline
70
0
71
2
72
6
73
3
74
0
42
0.000000001
43
0.0000000001
44
0.0000000001
40
0
40
0
40
0
40
1
40
1
40
1
10
-97.742155790328979
20
161.1391544342041
30
0
10
-97.592087984085083
20
161.81446075439453
30
0
10
-97.564802169799805
20
162.40109086036682
30
0
0
LINE
5
145
100
AcDbEntity
8
0
100
AcDbLine
10
-97.564802169799805
20
162.40109086036682
30
0
11
-96.548430919647217
21
161.98499321937561
31
0
0
SPLINE
5
146
100
AcDbEntity
8
0
100
AcDbSpline
70
0
71
2
72
6
73
3
74
0
42
0.000000001
43
0.0000000001
44
0.0000000001
40
0
40
0
40
0
40
1
40
1
40
1
10
-100.9208732843399
20
164.22919511795044
30
0
10
-101.61664426326752
20
163.30150008201599
30
0
10
-102.97407925128937
20
162.08049058914185
30
0
0
SPLINE
5
147
100
AcDbEntity
8
0
100
AcDbSpline
70
0
71
2
72
6
73
3
74
0
42
0.000000001
43
0.0000000001
44
0.0000000001
40
0
40
0
40
0
40
1
40
1
40
1
10
-102.97407925128937
20
162.08049058914185
30
0
10
-102.08049118518829
20
161.24147295951843
30
0
10
-101.04365646839142
20
159.84311103820801
30
0
0
LINE
5
148
100
AcDbEntity
8
0
100
AcDbLine
10
-101.04365646839142
20
159.84311103820801
30
0
11
-101.99181437492371
21
159.24283742904663
31
0
0
SPLINE
5
149
100
AcDbEntity
8
0
100
AcDbSpline
70
0
71
2
72
6
73
3
74
0
42
0.000000001
43
0.0000000001
44
0.0000000001
40
0
40
0
40
0
40
1
40
1
40
1
10
-101.99181437492371
20
159.24283742904663
30
0
10
-102.93997287750244
20
160.40245532989502
30
0
10
-103.78581166267395
20
161.2824010848999
30
0
0
SPLINE
5
150
100
AcDbEntity
8
0
100
AcDbSpline
70
0
71
2
72
6
73
3
74
0
42
0.000000001
43
0.0000000001
44
0.0000000001
40
0
40
0
40
0
40
1
40
1
40
1
10
-103.78581166267395
20
161.2824010848999
30
0
10
-104.2905867099762
20
160.77080488204956
30
0
10
-104.80218291282654
20
160.41609764099121
30
0
0
SPLINE
5
151
100
AcDbEntity
8
0
100
AcDbSpline
70
0
71
2
72
6
73
3
74
0
42
0.000000001
43
0.0000000001
44
0.0000000001
40
0
40
0
40
0
40
1
40
1
40
1
10
-104.80218291282654
20
160.41609764099121
30
0
10
-105.31377881765366
20
160.06821274757385
30
0
10
-105.94133675098419
20
159.74761247634888
30
0
0
SPLINE
5
152
100
AcDbEntity
8
0
100
AcDbSpline
70
0
71
2
72
6
73
3
74
0
42
0.000000001
43
0.0000000001
44
0.0000000001
40
0
40
0
40
0
40
1
40
1
40
1
10
-105.94133675098419
20
159.74761247634888
30
0
10
-106.56889498233795
20
159.42019104957581
30
0
10
-106.9713506102562
20
159.20191049575806
30
0
0
LINE
5
153
100
AcDbEntity
8
0
100
AcDbLine
10
-106.9713506102562
20
159.20191049575806
30
0
11
-107.72169172763824
21
160.06821274757385
31
0
0
SPLINE
5
154
100
AcDbEntity
8
0
100
AcDbSpline
70
0
71
2
72
6
73
3
74
0
42
0.000000001
43
0.0000000001
44
0.0000000001
40
0
40
0
40
0
40
1
40
1
40
1
10
-107.72169172763824
20
160.06821274757385
30
0
10
-105.8185538649559
20
160.92769384384155
30
0
10
-104.50886785984039
20
162.03956365585327
30
0
0
SPLINE
5
155
100
AcDbEntity
8
0
100
AcDbSpline
70
0
71
2
72
6
73
3
74
0
42
0.000000001
43
0.0000000001
44
0.0000000001
40
0
40
0
40
0
40
1
40
1
40
1
10
-104.50886785984039
20
162.03956365585327
30
0
10
-106.37107759714127
20
163.7175989151001
30
0
10
-106.82810366153717
20
163.99044990539551
30
0
0
LINE
5
156
100
AcDbEntity
8
0
100
AcDbLine
10
-106.82810366153717
20
163.99044990539551
30
0
11
-106.14597529172897
21
164.74761247634888
31
0
0
SPLINE
5
157
100
AcDbEntity
8
0
100
AcDbSpline
70
0
71
2
72
6
73
3
74
0
42
0.000000001
43
0.0000000001
44
0.0000000001
40
0
40
0
40
0
40
1
40
1
40
1
10
-106.14597529172897
20
164.74761247634888
30
0
10
-104.57708060741425
20
163.60845804214478
30
0
10
-103.81309688091278
20
162.89222359657288
30
0
0
SPLINE
5
158
100
AcDbEntity
8
0
100
AcDbSpline
70
0
71
2
72
6
73
3
74
0
42
0.000000001
43
0.0000000001
44
0.0000000001
40
0
40
0
40
0
40
1
40
1
40
1
10
-103.81309688091278
20
162.89222359657288
30
0
10
-102.39427030086517
20
164.02455568313599
30
0
10
-101.84174656867981
20
164.87721681594849
30
0
0
LINE
5
159
100
AcDbEntity
8
0
100
AcDbLine
10
-101.84174656867981
20
164.87721681594849
30
0
11
-100.9208732843399
21
164.22919511795044
31
0
0
LINE
5
160
100
AcDbEntity
8
0
100
AcDbLine
10
-91.364257335662842
20
169.05184268951416
30
0
11
-92.203273773193359
21
168.26739490032196
31
0
0
SPLINE
5
161
100
AcDbEntity
8
0
100
AcDbSpline
70
0
71
2
72
6
73
3
74
0
42
0.000000001
43
0.0000000001
44
0.0000000001
40
0
40
0
40
0
40
1
40
1
40
1
10
-92.203273773193359
20
168.26739490032196
30
0
10
-92.905867099761963
20
169.50886845588684
30
0
10
-94.563437700271606
20
170.29331564903259
30
0
0
LINE
5
162
100
AcDbEntity
8
0
100
AcDbLine
10
-94.563437700271606
20
170.29331564903259
30
0
11
-93.806276321411133
21
170.97544431686401
31
0
0
SPLINE
5
163
100
AcDbEntity
8
0
100
AcDbSpline
70
0
71
2
72
6
73
3
74
0
42
0.000000001
43
0.0000000001
44
0.0000000001
40
0
40
0
40
0
40
1
40
1
40
1
10
-93.806276321411133
20
170.97544431686401
30
0
10
-92.019100189208984
20
170.18417596817017
30
0
10
-91.364257335662842
20
169.05184268951416
30
0
0
LINE
5
164
100
AcDbEntity
8
0
100
AcDbLine
10
-84.50204610824585
20
165.40245592594147
30
0
11
-91.070941686630249
21
165.40245592594147
31
0
0
LINE
5
165
100
AcDbEntity
8
0
100
AcDbLine
10
-91.070941686630249
20
165.40245592594147
30
0
11
-91.070941686630249
21
170.78444838523865
31
0
0
LINE
5
166
100
AcDbEntity
8
0
100
AcDbLine
10
-91.070941686630249
20
170.78444838523865
30
0
11
-84.50204610824585
21
170.78444838523865
31
0
0
LINE
5
167
100
AcDbEntity
8
0
100
AcDbLine
10
-84.50204610824585
20
170.78444838523865
30
0
11
-84.50204610824585
21
165.40245592594147
31
0
0
LINE
5
168
100
AcDbEntity
8
0
100
AcDbLine
10
-85.566167831420898
20
168.6425656080246
30
0
11
-85.566167831420898
21
169.76125597953796
31
0
0
LINE
5
169
100
AcDbEntity
8
0
100
AcDbLine
10
-85.566167831420898
20
169.76125597953796
30
0
11
-90.006821155548096
21
169.76125597953796
31
0
0
LINE
5
170
100
AcDbEntity
8
0
100
AcDbLine
10
-90.006821155548096
20
169.76125597953796
30
0
11
-90.006821155548096
21
168.6425656080246
31
0
0
LINE
5
171
100
AcDbEntity
8
0
100
AcDbLine
10
-90.006821155548096
20
168.6425656080246
30
0
11
-85.566167831420898
21
168.6425656080246
31
0
0
LINE
5
172
100
AcDbEntity
8
0
100
AcDbLine
10
-85.566167831420898
20
166.42564833164215
30
0
11
-85.566167831420898
21
167.62619435787201
31
0
0
LINE
5
173
100
AcDbEntity
8
0
100
AcDbLine
10
-85.566167831420898
20
167.62619435787201
30
0
11
-90.006821155548096
21
167.62619435787201
31
0
0
LINE
5
174
100
AcDbEntity
8
0
100
AcDbLine
10
-90.006821155548096
20
167.62619435787201
30
0
11
-90.006821155548096
21
166.42564833164215
31
0
0
LINE
5
175
100
AcDbEntity
8
0
100
AcDbLine
10
-90.006821155548096
20
166.42564833164215
30
0
11
-85.566167831420898
21
166.42564833164215
31
0
0
LINE
5
176
100
AcDbEntity
8
0
100
AcDbLine
10
-92.148704528808594
20
166.34379327297211
30
0
11
-92.967257499694824
21
165.55934548377991
31
0
0
SPLINE
5
177
100
AcDbEntity
8
0
100
AcDbSpline
70
0
71
2
72
6
73
3
74
0
42
0.000000001
43
0.0000000001
44
0.0000000001
40
0
40
0
40
0
40
1
40
1
40
1
10
-92.967257499694824
20
165.55934548377991
30
0
10
-93.78581166267395
20
166.73260629177094
30
0
10
-95.525238513946533
20
167.44201958179474
30
0
0
LINE
5
178
100
AcDbEntity
8
0
100
AcDbLine
10
-95.525238513946533
20
167.44201958179474
30
0
11
-94.815825223922729
21
168.18553924560547
31
0
0
SPLINE
5
179
100
AcDbEntity
8
0
100
AcDbSpline
70
0
71
2
72
6
73
3
74
0
42
0.000000001
43
0.0000000001
44
0.0000000001
40
0
40
0
40
0
40
1
40
1
40
1
10
-94.815825223922729
20
168.18553924560547
30
0
10
-93.301501274108887
20
167.72851347923279
30
0
10
-92.148704528808594
20
166.34379327297211
30
0
0
SPLINE
5
180
100
AcDbEntity
8
0
100
AcDbSpline
70
0
71
2
72
6
73
3
74
0
42
0.000000001
43
0.0000000001
44
0.0000000001
40
0
40
0
40
0
40
1
40
1
40
1
10
-92.203273773193359
20
164.59754467010498
30
0
10
-92.892223596572876
20
161.04365587234497
30
0
10
-94.467940330505371
20
159.21555280685425
30
0
0
LINE
5
181
100
AcDbEntity
8
0
100
AcDbLine
10
-94.467940330505371
20
159.21555280685425
30
0
11
-95.49795389175415
21
159.77489709854126
31
0
0
SPLINE
5
182
100
AcDbEntity
8
0
100
AcDbSpline
70
0
71
2
72
6
73
3
74
0
42
0.000000001
43
0.0000000001
44
0.0000000001
40
0
40
0
40
0
40
1
40
1
40
1
10
-95.49795389175415
20
159.77489709854126
30
0
10
-93.819918632507324
20
161.64392948150635
30
0
10
-93.110505342483521
20
165.04092812538147
30
0
0
LINE
5
183
100
AcDbEntity
8
0
100
AcDbLine
10
-93.110505342483521
20
165.04092812538147
30
0
11
-92.203273773193359
21
164.59754467010498
31
0
0
LINE
5
184
100
AcDbEntity
8
0
100
AcDbLine
10
-82.858119010925293
20
159.46794033050537
30
0
11
-92.694406509399414
21
159.46794033050537
31
0
0
LINE
5
185
100
AcDbEntity
8
0
100
AcDbLine
10
-92.694406509399414
20
159.46794033050537
30
0
11
-92.694406509399414
21
160.48431158065796
31
0
0
LINE
5
186
100
AcDbEntity
8
0
100
AcDbLine
10
-92.694406509399414
20
160.48431158065796
30
0
11
-91.780354976654053
21
160.48431158065796
31
0
0
LINE
5
187
100
AcDbEntity
8
0
100
AcDbLine
10
-91.780354976654053
20
160.48431158065796
30
0
11
-91.780354976654053
21
164.5634388923645
31
0
0
LINE
5
188
100
AcDbEntity
8
0
100
AcDbLine
10
-91.780354976654053
20
164.5634388923645
30
0
11
-83.792634010314941
21
164.5634388923645
31
0
0
LINE
5
189
100
AcDbEntity
8
0
100
AcDbLine
10
-83.792634010314941
20
164.5634388923645
30
0
11
-83.792634010314941
21
160.48431158065796
31
0
0
LINE
5
190
100
AcDbEntity
8
0
100
AcDbLine
10
-83.792634010314941
20
160.48431158065796
30
0
11
-82.858119010925293
21
160.48431158065796
31
0
0
LINE
5
191
100
AcDbEntity
8
0
100
AcDbLine
10
-82.858119010925293
20
160.48431158065796
30
0
11
-82.858119010925293
21
159.46794033050537
31
0
0
LINE
5
192
100
AcDbEntity
8
0
100
AcDbLine
10
-84.856753349304199
20
160.48431158065796
30
0
11
-84.856753349304199
21
163.54706764221191
31
0
0
LINE
5
193
100
AcDbEntity
8
0
100
AcDbLine
10
-84.856753349304199
20
163.54706764221191
30
0
11
-86.111869812011719
21
163.54706764221191
31
0
0
LINE
5
194
100
AcDbEntity
8
0
100
AcDbLine
10
-86.111869812011719
20
163.54706764221191
30
0
11
-86.111869812011719
21
160.48431158065796
31
0
0
LINE
5
195
100
AcDbEntity
8
0
100
AcDbLine
10
-86.111869812011719
20
160.48431158065796
30
0
11
-84.856753349304199
21
160.48431158065796
31
0
0
LINE
5
196
100
AcDbEntity
8
0
100
AcDbLine
10
-87.175989151000977
20
160.48431158065796
30
0
11
-87.175989151000977
21
163.54706764221191
31
0
0
LINE
5
197
100
AcDbEntity
8
0
100
AcDbLine
10
-87.175989151000977
20
163.54706764221191
30
0
11
-88.417463302612305
21
163.54706764221191
31
0
0
LINE
5
198
100
AcDbEntity
8
0
100
AcDbLine
10
-88.417463302612305
20
163.54706764221191
30
0
11
-88.417463302612305
21
160.48431158065796
31
0
0
LINE
5
199
100
AcDbEntity
8
0
100
AcDbLine
10
-88.417463302612305
20
160.48431158065796
30
0
11
-87.175989151000977
21
160.48431158065796
31
0
0
LINE
5
200
100
AcDbEntity
8
0
100
AcDbLine
10
-89.474761486053467
20
160.48431158065796
30
0
11
-89.474761486053467
21
163.54706764221191
31
0
0
LINE
5
201
100
AcDbEntity
8
0
100
AcDbLine
10
-89.474761486053467
20
163.54706764221191
30
0
11
-90.723056793212891
21
163.54706764221191
31
0
0
LINE
5
202
100
AcDbEntity
8
0
100
AcDbLine
10
-90.723056793212891
20
163.54706764221191
30
0
11
-90.723056793212891
21
160.48431158065796
31
0
0
LINE
5
203
100
AcDbEntity
8
0
100
AcDbLine
10
-90.723056793212891
20
160.48431158065796
30
0
11
-89.474761486053467
21
160.48431158065796
31
0
0
LINE
5
204
100
AcDbEntity
8
0
100
AcDbLine
10
-75.027284622192383
20
161.24829411506653
30
0
11
-75.027284622192383
21
160.06821274757385
31
0
0
LINE
5
205
100
AcDbEntity
8
0
100
AcDbLine
10
-75.027284622192383
20
160.06821274757385
30
0
11
-81.637108325958252
21
160.06821274757385
31
0
0
SPLINE
5
206
100
AcDbEntity
8
0
100
AcDbSpline
70
0
71
2
72
6
73
3
74
0
42
0.000000001
43
0.0000000001
44
0.0000000001
40
0
40
0
40
0
40
1
40
1
40
1
10
-81.637108325958252
20
160.06821274757385
30
0
10
-81.650750637054443
20
160.51159620285034
30
0
10
-81.493861675262451
20
160.92087268829346
30
0
0
SPLINE
5
207
100
AcDbEntity
8
0
100
AcDbSpline
70
0
71
2
72
6
73
3
74
0
42
0.000000001
43
0.0000000001
44
0.0000000001
40
0
40
0
40
0
40
1
40
1
40
1
10
-81.493861675262451
20
160.92087268829346
30
0
10
-81.241474151611328
20
161.59618020057678
30
0
10
-80.688948631286621
20
162.25102305412292
30
0
0
SPLINE
5
208
100
AcDbEntity
8
0
100
AcDbSpline
70
0
71
2
72
6
73
3
74
0
42
0.000000001
43
0.0000000001
44
0.0000000001
40
0
40
0
40
0
40
1
40
1
40
1
10
-80.688948631286621
20
162.25102305412292
30
0
10
-80.129604339599609
20
162.90586590766907
30
0
10
-79.079127311706543
20
163.76534819602966
30
0
0
SPLINE
5
209
100
AcDbEntity
8
0
100
AcDbSpline
70
0
71
2
72
6
73
3
74
0
42
0.000000001
43
0.0000000001
44
0.0000000001
40
0
40
0
40
0
40
1
40
1
40
1
10
-79.079127311706543
20
163.76534819602966
30
0
10
-77.448840141296387
20
165.10231912136078
30
0
10
-76.875853538513184
20
165.87994515895844
30
0
0
SPLINE
5
210
100
AcDbEntity
8
0
100
AcDbSpline
70
0
71
2
72
6
73
3
74
0
42
0.000000001
43
0.0000000001
44
0.0000000001
40
0
40
0
40
0
40
1
40
1
40
1
10
-76.875853538513184
20
165.87994515895844
30
0
10
-76.302864551544189
20
166.66439294815063
30
0
10
-76.302864551544189
20
167.36016392707825
30
0
0
SPLINE
5
211
100
AcDbEntity
8
0
100
AcDbSpline
70
0
71
2
72
6
73
3
74
0
42
0.000000001
43
0.0000000001
44
0.0000000001
40
0
40
0
40
0
40
1
40
1
40
1
10
-76.302864551544189
20
167.36016392707825
30
0
10
-76.302864551544189
20
168.09004068374634
30
0
10
-76.828103065490723
20
168.58799457550049
30
0
0
SPLINE
5
212
100
AcDbEntity
8
0
100
AcDbSpline
70
0
71
2
72
6
73
3
74
0
42
0.000000001
43
0.0000000001
44
0.0000000001
40
0
40
0
40
0
40
1
40
1
40
1
10
-76.828103065490723
20
168.58799457550049
30
0
10
-77.34652042388916
20
169.09276962280273
30
0
10
-78.185539245605469
20
169.09276962280273
30
0
0
SPLINE
5
213
100
AcDbEntity
8
0
100
AcDbSpline
70
0
71
2
72
6
73
3
74
0
42
0.000000001
43
0.0000000001
44
0.0000000001
40
0
40
0
40
0
40
1
40
1
40
1
10
-78.185539245605469
20
169.09276962280273
30
0
10
-79.072306156158447
20
169.09276962280273
30
0
10
-79.604365825653076
20
168.56070935726166
30
0
0
SPLINE
5
214
100
AcDbEntity
8
0
100
AcDbSpline
70
0
71
2
72
6
73
3
74
0
42
0.000000001
43
0.0000000001
44
0.0000000001
40
0
40
0
40
0
40
1
40
1
40
1
10
-79.604365825653076
20
168.56070935726166
30
0
10
-80.136425495147705
20
168.02864909172058
30
0
10
-80.143246650695801
20
167.08731234073639
30
0
0
LINE
5
215
100
AcDbEntity
8
0
100
AcDbLine
10
-80.143246650695801
20
167.08731234073639
30
0
11
-81.405184268951416
21
167.216916680336
31
0
0
SPLINE
5
216
100
AcDbEntity
8
0
100
AcDbSpline
70
0
71
2
72
6
73
3
74
0
42
0.000000001
43
0.0000000001
44
0.0000000001
40
0
40
0
40
0
40
1
40
1
40
1
10
-81.405184268951416
20
167.216916680336
30
0
10
-81.275579929351807
20
168.62892210483551
30
0
10
-80.429739952087402
20
169.36562061309814
30
0
0
SPLINE
5
217
100
AcDbEntity
8
0
100
AcDbSpline
70
0
71
2
72
6
73
3
74
0
42
0.000000001
43
0.0000000001
44
0.0000000001
40
0
40
0
40
0
40
1
40
1
40
1
10
-80.429739952087402
20
169.36562061309814
30
0
10
-79.583902359008789
20
170.10914087295532
30
0
10
-78.158254623413086
20
170.10914087295532
30
0
0
SPLINE
5
218
100
AcDbEntity
8
0
100
AcDbSpline
70
0
71
2
72
6
73
3
74
0
42
0.000000001
43
0.0000000001
44
0.0000000001
40
0
40
0
40
0
40
1
40
1
40
1
10
-78.158254623413086
20
170.10914087295532
30
0
10
-76.7189621925354
20
170.10914087295532
30
0
10
-75.879945755004883
20
169.31105017662048
30
0
0
SPLINE
5
219
100
AcDbEntity
8
0
100
AcDbSpline
70
0
71
2
72
6
73
3
74
0
42
0.000000001
43
0.0000000001
44
0.0000000001
40
0
40
0
40
0
40
1
40
1
40
1
10
-75.879945755004883
20
169.31105017662048
30
0
10
-75.040926933288574
20
168.51296067237854
30
0
10
-75.040926933288574
20
167.33287870883942
30
0
0
SPLINE
5
220
100
AcDbEntity
8
0
100
AcDbSpline
70
0
71
2
72
6
73
3
74
0
42
0.000000001
43
0.0000000001
44
0.0000000001
40
0
40
0
40
0
40
1
40
1
40
1
10
-75.040926933288574
20
167.33287870883942
30
0
10
-75.040926933288574
20
166.73260569572449
30
0
10
-75.286493301391602
20
166.15279674530029
30
0
0
SPLINE
5
221
100
AcDbEntity
8
0
100
AcDbSpline
70
0
71
2
72
6
73
3
74
0
42
0.000000001
43
0.0000000001
44
0.0000000001
40
0
40
0
40
0
40
1
40
1
40
1
10
-75.286493301391602
20
166.15279674530029
30
0
10
-75.532059669494629
20
165.5729877948761
30
0
10
-76.105046272277832
20
164.93178725242615
30
0
0
SPLINE
5
222
100
AcDbEntity
8
0
100
AcDbSpline
70
0
71
2
72
6
73
3
74
0
42
0.000000001
43
0.0000000001
44
0.0000000001
40
0
40
0
40
0
40
1
40
1
40
1
10
-76.105046272277832
20
164.93178725242615
30
0
10
-76.67121410369873
20
164.2905867099762
30
0
10
-77.994542121887207
20
163.17189693450928
30
0
0
SPLINE
5
223
100
AcDbEntity
8
0
100
AcDbSpline
70
0
71
2
72
6
73
3
74
0
42
0.000000001
43
0.0000000001
44
0.0000000001
40
0
40
0
40
0
40
1
40
1
40
1
10
-77.994542121887207
20
163.17189693450928
30
0
10
-79.09959077835083
20
162.24420189857483
30
0
10
-79.413368701934814
20
161.90995931625366
30
0
0
SPLINE
5
224
100
AcDbEntity
8
0
100
AcDbSpline
70
0
71
2
72
6
73
3
74
0
42
0.000000001
43
0.0000000001
44
0.0000000001
40
0
40
0
40
0
40
1
40
1
40
1
10
-79.413368701934814
20
161.90995931625366
30
0
10
-79.72714900970459
20
161.58253788948059
30
0
10
-79.931786060333252
20
161.24829411506653
30
0
0
LINE
5
225
100
AcDbEntity
8
0
100
AcDbLine
10
-79.931786060333252
20
161.24829411506653
30
0
11
-75.027284622192383
21
161.24829411506653
31
0
0
SPLINE
5
226
100
AcDbEntity
8
0
100
AcDbSpline
70
0
71
2
72
6
73
3
74
0
42
0.000000001
43
0.0000000001
44
0.0000000001
40
0
40
0
40
0
40
1
40
1
40
1
10
-73.710777759552002
20
165
30
0
10
-73.710777759552002
20
166.77353382110596
30
0
10
-73.349249362945557
20
167.85129606723785
30
0
0
SPLINE
5
227
100
AcDbEntity
8
0
100
AcDbSpline
70
0
71
2
72
6
73
3
74
0
42
0.000000001
43
0.0000000001
44
0.0000000001
40
0
40
0
40
0
40
1
40
1
40
1
10
-73.349249362945557
20
167.85129606723785
30
0
10
-72.980899810791016
20
168.93588006496429
30
0
10
-72.264666557312012
20
169.52251017093658
30
0
0
SPLINE
5
228
100
AcDbEntity
8
0
100
AcDbSpline
70
0
71
2
72
6
73
3
74
0
42
0.000000001
43
0.0000000001
44
0.0000000001
40
0
40
0
40
0
40
1
40
1
40
1
10
-72.264666557312012
20
169.52251017093658
30
0
10
-71.541609764099121
20
170.10914087295532
30
0
10
-70.45020580291748
20
170.10914087295532
30
0
0
SPLINE
5
229
100
AcDbEntity
8
0
100
AcDbSpline
70
0
71
2
72
6
73
3
74
0
42
0.000000001
43
0.0000000001
44
0.0000000001
40
0
40
0
40
0
40
1
40
1
40
1
10
-70.45020580291748
20
170.10914087295532
30
0
10
-69.645290374755859
20
170.10914087295532
30
0
10
-69.038200378417969
20
169.78171944618225
30
0
0
SPLINE
5
230
100
AcDbEntity
8
0
100
AcDbSpline
70
0
71
2
72
6
73
3
74
0
42
0.000000001
43
0.0000000001
44
0.0000000001
40
0
40
0
40
0
40
1
40
1
40
1
10
-69.038200378417969
20
169.78171944618225
30
0
10
-68.431105613708496
20
169.46111917495728
30
0
10
-68.035469055175781
20
168.84720325469971
30
0
0
SPLINE
5
231
100
AcDbEntity
8
0
100
AcDbSpline
70
0
71
2
72
6
73
3
74
0
42
0.000000001
43
0.0000000001
44
0.0000000001
40
0
40
0
40
0
40
1
40
1
40
1
10
-68.035469055175781
20
168.84720325469971
30
0
10
-67.639837265014648
20
168.24010908603668
30
0
10
-67.414731979370117
20
167.36016392707825
30
0
0
SPLINE
5
232
100
AcDbEntity
8
0
100
AcDbSpline
70
0
71
2
72
6
73
3
74
0
42
0.000000001
43
0.0000000001
44
0.0000000001
40
0
40
0
40
0
40
1
40
1
40
1
10
-67.414731979370117
20
167.36016392707825
30
0
10
-67.189631462097168
20
166.48703992366791
30
0
10
-67.189631462097168
20
165
30
0
0
SPLINE
5
233
100
AcDbEntity
8
0
100
AcDbSpline
70
0
71
2
72
6
73
3
74
0
42
0.000000001
43
0.0000000001
44
0.0000000001
40
0
40
0
40
0
40
1
40
1
40
1
10
-67.189631462097168
20
165
30
0
10
-67.189631462097168
20
163.24010848999023
30
0
10
-67.551159858703613
20
162.15552568435669
30
0
0
SPLINE
5
234
100
AcDbEntity
8
0
100
AcDbSpline
70
0
71
2
72
6
73
3
74
0
42
0.000000001
43
0.0000000001
44
0.0000000001
40
0
40
0
40
0
40
1
40
1
40
1
10
-67.551159858703613
20
162.15552568435669
30
0
10
-67.912688255310059
20
161.07776284217834
30
0
10
-68.635740280151367
20
160.48431158065796
30
0
0
SPLINE
5
235
100
AcDbEntity
8
0
100
AcDbSpline
70
0
71
2
72
6
73
3
74
0
42
0.000000001
43
0.0000000001
44
0.0000000001
40
0
40
0
40
0
40
1
40
1
40
1
10
-68.635740280151367
20
160.48431158065796
30
0
10
-69.351978302001953
20
159.89768028259277
30
0
10
-70.45020580291748
20
159.89768028259277
30
0
0
SPLINE
5
236
100
AcDbEntity
8
0
100
AcDbSpline
70
0
71
2
72
6
73
3
74
0
42
0.000000001
43
0.0000000001
44
0.0000000001
40
0
40
0
40
0
40
1
40
1
40
1
10
-70.45020580291748
20
159.89768028259277
30
0
10
-71.896317005157471
20
159.89768028259277
30
0
10
-72.721691131591797
20
160.93451499938965
30
0
0
SPLINE
5
237
100
AcDbEntity
8
0
100
AcDbSpline
70
0
71
2
72
6
73
3
74
0
42
0.000000001
43
0.0000000001
44
0.0000000001
40
0
40
0
40
0
40
1
40
1
40
1
10
-72.721691131591797
20
160.93451499938965
30
0
10
-73.710777759552002
20
162.18281030654907
30
0
10
-73.710777759552002
20
165
30
0
0
SPLINE
5
238
100
AcDbEntity
8
0
100
AcDbSpline
70
0
71
2
72
6
73
3
74
0
42
0.000000001
43
0.0000000001
44
0.0000000001
40
0
40
0
40
0
40
1
40
1
40
1
10
-72.448840141296387
20
165
30
0
10
-72.448840141296387
20
162.53751754760742
30
0
10
-71.875853538513184
20
161.7189633846283
30
0
0
SPLINE
5
239
100
AcDbEntity
8
0
100
AcDbSpline
70
0
71
2
72
6
73
3
74
0
42
0.000000001
43
0.0000000001
44
0.0000000001
40
0
40
0
40
0
40
1
40
1
40
1
10
-71.875853538513184
20
161.7189633846283
30
0
10
-71.296043395996094
20
160.90723037719727
30
0
10
-70.45020580291748
20
160.90723037719727
30
0
0
SPLINE
5
240
100
AcDbEntity
8
0
100
AcDbSpline
70
0
71
2
72
6
73
3
74
0
42
0.000000001
43
0.0000000001
44
0.0000000001
40
0
40
0
40
0
40
1
40
1
40
1
10
-70.45020580291748
20
160.90723037719727
30
0
10
-69.604368209838867
20
160.90723037719727
30
0
10
-69.031376838684082
20
161.72578454017639
30
0
0
SPLINE
5
241
100
AcDbEntity
8
0
100
AcDbSpline
70
0
71
2
72
6
73
3
74
0
42
0.000000001
43
0.0000000001
44
0.0000000001
40
0
40
0
40
0
40
1
40
1
40
1
10
-69.031376838684082
20
161.72578454017639
30
0
10
-68.451566696166992
20
162.54433870315552
30
0
10
-68.451566696166992
20
165
30
0
0
SPLINE
5
242
100
AcDbEntity
8
0
100
AcDbSpline
70
0
71
2
72
6
73
3
74
0
42
0.000000001
43
0.0000000001
44
0.0000000001
40
0
40
0
40
0
40
1
40
1
40
1
10
-68.451566696166992
20
165
30
0
10
-68.451566696166992
20
167.46930420398712
30
0
10
-69.031376838684082
20
168.28103721141815
30
0
0
SPLINE
5
243
100
AcDbEntity
8
0
100
AcDbSpline
70
0
71
2
72
6
73
3
74
0
42
0.000000001
43
0.0000000001
44
0.0000000001
40
0
40
0
40
0
40
1
40
1
40
1
10
-69.031376838684082
20
168.28103721141815
30
0
10
-69.604368209838867
20
169.09276962280273
30
0
10
-70.463848114013672
20
169.09276962280273
30
0
0
SPLINE
5
244
100
AcDbEntity
8
0
100
AcDbSpline
70
0
71
2
72
6
73
3
74
0
42
0.000000001
43
0.0000000001
44
0.0000000001
40
0
40
0
40
0
40
1
40
1
40
1
10
-70.463848114013672
20
169.09276962280273
30
0
10
-71.309685707092285
20
169.09276962280273
30
0
10
-71.814460754394531
20
168.37653517723083
30
0
0
SPLINE
5
245
100
AcDbEntity
8
0
100
AcDbSpline
70
0
71
2
72
6
73
3
74
0
42
0.000000001
43
0.0000000001
44
0.0000000001
40
0
40
0
40
0
40
1
40
1
40
1
10
-71.814460754394531
20
168.37653517723083
30
0
10
-72.448840141296387
20
167.46248304843903
30
0
10
-72.448840141296387
20
165
30
0
0
SPLINE
5
246
100
AcDbEntity
8
0
100
AcDbSpline
70
0
71
2
72
6
73
3
74
0
42
0.000000001
43
0.0000000001
44
0.0000000001
40
0
40
0
40
0
40
1
40
1
40
1
10
-52.789907455444336
20
163.24010848999023
30
0
10
-53.226470947265625
20
161.55525207519531
30
0
10
-54.317874908447266
20
160.72305560112
30
0
0
SPLINE
5
247
100
AcDbEntity
8
0
100
AcDbSpline
70
0
71
2
72
6
73
3
74
0
42
0.000000001
43
0.0000000001
44
0.0000000001
40
0
40
0
40
0
40
1
40
1
40
1
10
-54.317874908447266
20
160.72305560112
30
0
10
-55.402460098266602
20
159.89768028259277
30
0
10
-56.923604011535645
20
159.89768028259277
30
0
0
SPLINE
5
248
100
AcDbEntity
8
0
100
AcDbSpline
70
0
71
2
72
6
73
3
74
0
42
0.000000001
43
0.0000000001
44
0.0000000001
40
0
40
0
40
0
40
1
40
1
40
1
10
-56.923604011535645
20
159.89768028259277
30
0
10
-59.372444152832031
20
159.89768028259277
30
0
10
-60.497956275939941
20
161.4324688911438
30
0
0
SPLINE
5
249
100
AcDbEntity
8
0
100
AcDbSpline
70
0
71
2
72
6
73
3
74
0
42
0.000000001
43
0.0000000001
44
0.0000000001
40
0
40
0
40
0
40
1
40
1
40
1
10
-60.497956275939941
20
161.4324688911438
30
0
10
-61.616644859313965
20
162.97407865524292
30
0
10
-61.616644859313965
20
165.13642549514771
30
0
0
SPLINE
5
250
100
AcDbEntity
8
0
100
AcDbSpline
70
0
71
2
72
6
73
3
74
0
42
0.000000001
43
0.0000000001
44
0.0000000001
40
0
40
0
40
0
40
1
40
1
40
1
10
-61.616644859313965
20
165.13642549514771
30
0
10
-61.616644859313965
20
167.53069519996643
30
0
10
-60.300140380859375
20
168.88130903244019
30
0
0
SPLINE
5
251
100
AcDbEntity
8
0
100
AcDbSpline
70
0
71
2
72
6
73
3
74
0
42
0.000000001
43
0.0000000001
44
0.0000000001
40
0
40
0
40
0
40
1
40
1
40
1
10
-60.300140380859375
20
168.88130903244019
30
0
10
-58.976812362670898
20
170.23874402046204
30
0
10
-56.909961700439453
20
170.23874402046204
30
0
0
SPLINE
5
252
100
AcDbEntity
8
0
100
AcDbSpline
70
0
71
2
72
6
73
3
74
0
42
0.000000001
43
0.0000000001
44
0.0000000001
40
0
40
0
40
0
40
1
40
1
40
1
10
-56.909961700439453
20
170.23874402046204
30
0
10
-55.443387031555176
20
170.23874402046204
30
0
10
-54.406552314758301
20
169.49522435665131
30
0
0
SPLINE
5
253
100
AcDbEntity
8
0
100
AcDbSpline
70
0
71
2
72
6
73
3
74
0
42
0.000000001
43
0.0000000001
44
0.0000000001
40
0
40
0
40
0
40
1
40
1
40
1
10
-54.406552314758301
20
169.49522435665131
30
0
10
-53.369712829589844
20
168.75170469284058
30
0
10
-52.953615188598633
20
167.31923580169678
30
0
0
LINE
5
254
100
AcDbEntity
8
0
100
AcDbLine
10
-52.953615188598633
20
167.31923580169678
30
0
11
-54.256482124328613
21
167.01227784156799
31
0
0
SPLINE
5
255
100
AcDbEntity
8
0
100
AcDbSpline
70
0
71
2
72
6
73
3
74
0
42
0.000000001
43
0.0000000001
44
0.0000000001
40
0
40
0
40
0
40
1
40
1
40
1
10
-54.256482124328613
20
167.01227784156799
30
0
10
-54.90450382232666
20
169.10641133785248
30
0
10
-56.923604011535645
20
169.10641133785248
30
0
0
SPLINE
5
256
100
AcDbEntity
8
0
100
AcDbSpline
70
0
71
2
72
6
73
3
74
0
42
0.000000001
43
0.0000000001
44
0.0000000001
40
0
40
0
40
0
40
1
40
1
40
1
10
-56.923604011535645
20
169.10641133785248
30
0
10
-58.560714721679688
20
169.10641133785248
30
0
10
-59.406552314758301
20
168.02864909172058
30
0
0
SPLINE
5
257
100
AcDbEntity
8
0
100
AcDbSpline
70
0
71
2
72
6
73
3
74
0
42
0.000000001
43
0.0000000001
44
0.0000000001
40
0
40
0
40
0
40
1
40
1
40
1
10
-59.406552314758301
20
168.02864909172058
30
0
10
-60.245571136474609
20
166.95770740509033
30
0
10
-60.245571136474609
20
165.1500678062439
30
0
0
SPLINE
5
258
100
AcDbEntity
8
0
100
AcDbSpline
70
0
71
2
72
6
73
3
74
0
42
0.000000001
43
0.0000000001
44
0.0000000001
40
0
40
0
40
0
40
1
40
1
40
1
10
-60.245571136474609
20
165.1500678062439
30
0
10
-60.245571136474609
20
163.06275606155396
30
0
10
-59.35880184173584
20
162.04638481140137
30
0
0
SPLINE
5
259
100
AcDbEntity
8
0
100
AcDbSpline
70
0
71
2
72
6
73
3
74
0
42
0.000000001
43
0.0000000001
44
0.0000000001
40
0
40
0
40
0
40
1
40
1
40
1
10
-59.35880184173584
20
162.04638481140137
30
0
10
-58.472037315368652
20
161.03001356124878
30
0
10
-57.032747268676758
20
161.03001356124878
30
0
0
SPLINE
5
260
100
AcDbEntity
8
0
100
AcDbSpline
70
0
71
2
72
6
73
3
74
0
42
0.000000001
43
0.0000000001
44
0.0000000001
40
0
40
0
40
0
40
1
40
1
40
1
10
-57.032747268676758
20
161.03001356124878
30
0
10
-54.686222076416016
20
161.03001356124878
30
0
10
-54.099593162536621
20
163.5743522644043
30
0
0
LINE
5
261
100
AcDbEntity
8
0
100
AcDbLine
10
-54.099593162536621
20
163.5743522644043
30
0
11
-52.789907455444336
21
163.24010848999023
31
0
0
SPLINE
5
262
100
AcDbEntity
8
0
100
AcDbSpline
70
0
71
2
72
6
73
3
74
0
42
0.000000001
43
0.0000000001
44
0.0000000001
40
0
40
0
40
0
40
1
40
1
40
1
10
-64.017739295959473
20
170.19781708717346
30
0
10
-63.240113258361816
20
170.19781708717346
30
0
10
-62.687587738037109
20
169.63847160339355
30
0
0
SPLINE
5
263
100
AcDbEntity
8
0
100
AcDbSpline
70
0
71
2
72
6
73
3
74
0
42
0.000000001
43
0.0000000001
44
0.0000000001
40
0
40
0
40
0
40
1
40
1
40
1
10
-62.687587738037109
20
169.63847160339355
30
0
10
-62.135062217712402
20
169.08594787120819
30
0
10
-62.135062217712402
20
168.30832123756409
30
0
0
SPLINE
5
264
100
AcDbEntity
8
0
100
AcDbSpline
70
0
71
2
72
6
73
3
74
0
42
0.000000001
43
0.0000000001
44
0.0000000001
40
0
40
0
40
0
40
1
40
1
40
1
10
-62.135062217712402
20
168.30832123756409
30
0
10
-62.135062217712402
20
167.52387404441833
30
0
10
-62.694411277770996
20
166.96452915668488
30
0
0
SPLINE
5
265
100
AcDbEntity
8
0
100
AcDbSpline
70
0
71
2
72
6
73
3
74
0
42
0.000000001
43
0.0000000001
44
0.0000000001
40
0
40
0
40
0
40
1
40
1
40
1
10
-62.694411277770996
20
166.96452915668488
30
0
10
-63.246932029724121
20
166.41200482845306
30
0
10
-64.017739295959473
20
166.41200482845306
30
0
0
SPLINE
5
266
100
AcDbEntity
8
0
100
AcDbSpline
70
0
71
2
72
6
73
3
74
0
42
0.000000001
43
0.0000000001
44
0.0000000001
40
0
40
0
40
0
40
1
40
1
40
1
10
-64.017739295959473
20
166.41200482845306
30
0
10
-64.795365333557129
20
166.41200482845306
30
0
10
-65.354709625244141
20
166.96452915668488
30
0
0
SPLINE
5
267
100
AcDbEntity
8
0
100
AcDbSpline
70
0
71
2
72
6
73
3
74
0
42
0.000000001
43
0.0000000001
44
0.0000000001
40
0
40
0
40
0
40
1
40
1
40
1
10
-65.354709625244141
20
166.96452915668488
30
0
10
-65.907235145568848
20
167.52387404441833
30
0
10
-65.907235145568848
20
168.30832123756409
30
0
0
SPLINE
5
268
100
AcDbEntity
8
0
100
AcDbSpline
70
0
71
2
72
6
73
3
74
0
42
0.000000001
43
0.0000000001
44
0.0000000001
40
0
40
0
40
0
40
1
40
1
40
1
10
-65.907235145568848
20
168.30832123756409
30
0
10
-65.907235145568848
20
169.09276902675629
30
0
10
-65.354709625244141
20
169.64529275894165
30
0
0
SPLINE
5
269
100
AcDbEntity
8
0
100
AcDbSpline
70
0
71
2
72
6
73
3
74
0
42
0.000000001
43
0.0000000001
44
0.0000000001
40
0
40
0
40
0
40
1
40
1
40
1
10
-65.354709625244141
20
169.64529275894165
30
0
10
-64.802184104919434
20
170.19781708717346
30
0
10
-64.017739295959473
20
170.19781708717346
30
0
0
SPLINE
5
270
100
AcDbEntity
8
0
100
AcDbSpline
70
0
71
2
72
6
73
3
74
0
42
0.000000001
43
0.0000000001
44
0.0000000001
40
0
40
0
40
0
40
1
40
1
40
1
10
-64.017739295959473
20
167.1487033367157
30
0
10
-63.547067642211914
20
167.1487033367157
30
0
10
-63.212828636169434
20
167.48976767063141
30
0
0
SPLINE
5
271
100
AcDbEntity
8
0
100
AcDbSpline
70
0
71
2
72
6
73
3
74
0
42
0.000000001
43
0.0000000001
44
0.0000000001
40
0
40
0
40
0
40
1
40
1
40
1
10
-63.212828636169434
20
167.48976767063141
30
0
10
-62.871761322021484
20
167.83083200454712
30
0
10
-62.871761322021484
20
168.30832123756409
30
0
0
SPLINE
5
272
100
AcDbEntity
8
0
100
AcDbSpline
70
0
71
2
72
6
73
3
74
0
42
0.000000001
43
0.0000000001
44
0.0000000001
40
0
40
0
40
0
40
1
40
1
40
1
10
-62.871761322021484
20
168.30832123756409
30
0
10
-62.871761322021484
20
168.7858110666275
30
0
10
-63.212828636169434
20
169.12005424499512
30
0
0
SPLINE
5
273
100
AcDbEntity
8
0
100
AcDbSpline
70
0
71
2
72
6
73
3
74
0
42
0.000000001
43
0.0000000001
44
0.0000000001
40
0
40
0
40
0
40
1
40
1
40
1
10
-63.212828636169434
20
169.12005424499512
30
0
10
-63.547067642211914
20
169.45429682731628
30
0
10
-64.017739295959473
20
169.45429682731628
30
0
0
SPLINE
5
274
100
AcDbEntity
8
0
100
AcDbSpline
70
0
71
2
72
6
73
3
74
0
42
0.000000001
43
0.0000000001
44
0.0000000001
40
0
40
0
40
0
40
1
40
1
40
1
10
-64.017739295959473
20
169.45429682731628
30
0
10
-64.495229721069336
20
169.45429682731628
30
0
10
-64.829468727111816
20
169.12005424499512
30
0
0
SPLINE
5
275
100
AcDbEntity
8
0
100
AcDbSpline
70
0
71
2
72
6
73
3
74
0
42
0.000000001
43
0.0000000001
44
0.0000000001
40
0
40
0
40
0
40
1
40
1
40
1
10
-64.829468727111816
20
169.12005424499512
30
0
10
-65.163712501525879
20
168.7858110666275
30
0
10
-65.163712501525879
20
168.30832123756409
30
0
0
SPLINE
5
276
100
AcDbEntity
8
0
100
AcDbSpline
70
0
71
2
72
6
73
3
74
0
42
0.000000001
43
0.0000000001
44
0.0000000001
40
0
40
0
40
0
40
1
40
1
40
1
10
-65.163712501525879
20
168.30832123756409
30
0
10
-65.163712501525879
20
167.83083200454712
30
0
10
-64.829468727111816
20
167.48976767063141
30
0
0
SPLINE
5
277
100
AcDbEntity
8
0
100
AcDbSpline
70
0
71
2
72
6
73
3
74
0
42
0.000000001
43
0.0000000001
44
0.0000000001
40
0
40
0
40
0
40
1
40
1
40
1
10
-64.829468727111816
20
167.48976767063141
30
0
10
-64.495229721069336
20
167.1487033367157
30
0
10
-64.017739295959473
20
167.1487033367157
30
0
0
LINE
5
278
100
AcDbEntity
8
0
100
AcDbLine
10
-39.045023918151855
20
160.38881301879883
30
0
11
-39.952254295349121
21
159.63847160339355
31
0
0
SPLINE
5
279
100
AcDbEntity
8
0
100
AcDbSpline
70
0
71
2
72
6
73
3
74
0
42
0.000000001
43
0.0000000001
44
0.0000000001
40
0
40
0
40
0
40
1
40
1
40
1
10
-39.952254295349121
20
159.63847160339355
30
0
10
-41.132335662841797
20
161.66439294815063
30
0
10
-42.899045944213867
20
162.94679403305054
30
0
0
SPLINE
5
280
100
AcDbEntity
8
0
100
AcDbSpline
70
0
71
2
72
6
73
3
74
0
42
0.000000001
43
0.0000000001
44
0.0000000001
40
0
40
0
40
0
40
1
40
1
40
1
10
-42.899045944213867
20
162.94679403305054
30
0
10
-44.433836936950684
20
160.8663022518158
30
0
10
-47.060031890869141
20
159.34515714645386
30
0
0
LINE
5
281
100
AcDbEntity
8
0
100
AcDbLine
10
-47.060031890869141
20
159.34515714645386
30
0
11
-47.728514671325684
21
160.33424258232117
31
0
0
SPLINE
5
282
100
AcDbEntity
8
0
100
AcDbSpline
70
0
71
2
72
6
73
3
74
0
42
0.000000001
43
0.0000000001
44
0.0000000001
40
0
40
0
40
0
40
1
40
1
40
1
10
-47.728514671325684
20
160.33424258232117
30
0
10
-46.139154434204102
20
161.1459755897522
30
0
10
-44.959077835083008
20
162.31923580169678
30
0
0
SPLINE
5
283
100
AcDbEntity
8
0
100
AcDbSpline
70
0
71
2
72
6
73
3
74
0
42
0.000000001
43
0.0000000001
44
0.0000000001
40
0
40
0
40
0
40
1
40
1
40
1
10
-44.959077835083008
20
162.31923580169678
30
0
10
-43.77899169921875
20
163.49249601364136
30
0
10
-43.158254623413086
20
164.91132259368896
30
0
0
SPLINE
5
284
100
AcDbEntity
8
0
100
AcDbSpline
70
0
71
2
72
6
73
3
74
0
42
0.000000001
43
0.0000000001
44
0.0000000001
40
0
40
0
40
0
40
1
40
1
40
1
10
-43.158254623413086
20
164.91132259368896
30
0
10
-42.537517547607422
20
166.33015036582947
30
0
10
-42.448844909667969
20
167.58526623249054
30
0
0
SPLINE
5
285
100
AcDbEntity
8
0
100
AcDbSpline
70
0
71
2
72
6
73
3
74
0
42
0.000000001
43
0.0000000001
44
0.0000000001
40
0
40
0
40
0
40
1
40
1
40
1
10
-42.448844909667969
20
167.58526623249054
30
0
10
-42.353343963623047
20
168.84720325469971
30
0
10
-42.353343963623047
20
171.26875877380371
30
0
0
LINE
5
286
100
AcDbEntity
8
0
100
AcDbLine
10
-42.353343963623047
20
171.26875877380371
30
0
11
-41.207370758056641
21
171.26875877380371
31
0
0
LINE
5
287
100
AcDbEntity
8
0
100
AcDbLine
10
-41.207370758056641
20
171.26875877380371
30
0
11
-41.261940002441406
21
168.24010968208313
31
0
0
SPLINE
5
288
100
AcDbEntity
8
0
100
AcDbSpline
70
0
71
2
72
6
73
3
74
0
42
0.000000001
43
0.0000000001
44
0.0000000001
40
0
40
0
40
0
40
1
40
1
40
1
10
-41.261940002441406
20
168.24010968208313
30
0
10
-41.30286693572998
20
165.75034141540527
30
0
10
-42.339701652526855
20
163.89495253562927
30
0
0
SPLINE
5
289
100
AcDbEntity
8
0
100
AcDbSpline
70
0
71
2
72
6
73
3
74
0
42
0.000000001
43
0.0000000001
44
0.0000000001
40
0
40
0
40
0
40
1
40
1
40
1
10
-42.339701652526855
20
163.89495253562927
30
0
10
-40.341067314147949
20
162.55115985870361
30
0
10
-39.045023918151855
20
160.38881301879883
30
0
0
SPLINE
5
290
100
AcDbEntity
8
0
100
AcDbSpline
70
0
71
2
72
6
73
3
74
0
42
0.000000001
43
0.0000000001
44
0.0000000001
40
0
40
0
40
0
40
1
40
1
40
1
10
-45.075035095214844
20
163.99044990539551
30
0
10
-46.350617408752441
20
163.21282386779785
30
0
10
-50.634384155273438
20
160.93451499938965
30
0
0
LINE
5
291
100
AcDbEntity
8
0
100
AcDbLine
10
-50.634384155273438
20
160.93451499938965
30
0
11
-51.323332786560059
21
161.90995931625366
31
0
0
LINE
5
292
100
AcDbEntity
8
0
100
AcDbLine
10
-51.323332786560059
20
161.90995931625366
30
0
11
-49.577083587646484
21
162.80354738235474
31
0
0
LINE
5
293
100
AcDbEntity
8
0
100
AcDbLine
10
-49.577083587646484
20
162.80354738235474
30
0
11
-49.577083587646484
21
170.81173300743103
31
0
0
LINE
5
294
100
AcDbEntity
8
0
100
AcDbLine
10
-49.577083587646484
20
170.81173300743103
30
0
11
-48.444747924804688
21
170.81173300743103
31
0
0
LINE
5
295
100
AcDbEntity
8
0
100
AcDbLine
10
-48.444747924804688
20
170.81173300743103
30
0
11
-48.444747924804688
21
163.40381979942322
31
0
0
LINE
5
296
100
AcDbEntity
8
0
100
AcDbLine
10
-48.444747924804688
20
163.40381979942322
30
0
11
-45.075035095214844
21
165.22510230541229
31
0
0
LINE
5
297
100
AcDbEntity
8
0
100
AcDbLine
10
-45.075035095214844
20
165.22510230541229
30
0
11
-45.075035095214844
21
163.99044990539551
31
0
0
LINE
5
298
100
AcDbEntity
8
0
100
AcDbLine
10
-43.963165283203125
20
167.61255145072937
30
0
11
-44.713506698608398
21
166.69167816638947
31
0
0
SPLINE
5
299
100
AcDbEntity
8
0
100
AcDbSpline
70
0
71
2
72
6
73
3
74
0
42
0.000000001
43
0.0000000001
44
0.0000000001
40
0
40
0
40
0
40
1
40
1
40
1
10
-44.713506698608398
20
166.69167816638947
30
0
10
-45.79127311706543
20
168.09686243534088
30
0
10
-47.660303115844727
20
168.89495253562927
30
0
0
LINE
5
300
100
AcDbEntity
8
0
100
AcDbLine
10
-47.660303115844727
20
168.89495253562927
30
0
11
-46.923604011535645
21
169.66575741767883
31
0
0
SPLINE
5
301
100
AcDbEntity
8
0
100
AcDbSpline
70
0
71
2
72
6
73
3
74
0
42
0.000000001
43
0.0000000001
44
0.0000000001
40
0
40
0
40
0
40
1
40
1
40
1
10
-46.923604011535645
20
169.66575741767883
30
0
10
-45.341067314147949
20
169.11323368549347
30
0
10
-43.963165283203125
20
167.61255145072937
30
0
0
LINE
5
302
100
AcDbEntity
8
0
100
AcDbLine
10
-25.327425003051758
20
160.20463824272156
30
0
11
-36.991815567016602
21
160.20463824272156
31
0
0
LINE
5
303
100
AcDbEntity
8
0
100
AcDbLine
10
-36.991815567016602
20
160.20463824272156
30
0
11
-36.991815567016602
21
161.22783064842224
31
0
0
LINE
5
304
100
AcDbEntity
8
0
100
AcDbLine
10
-36.991815567016602
20
161.22783064842224
30
0
11
-32.407917976379395
21
161.22783064842224
31
0
0
LINE
5
305
100
AcDbEntity
8
0
100
AcDbLine
10
-32.407917976379395
20
161.22783064842224
30
0
11
-32.407917976379395
21
171.43929004669189
31
0
0
LINE
5
306
100
AcDbEntity
8
0
100
AcDbLine
10
-32.407917976379395
20
171.43929004669189
30
0
11
-31.343793869018555
21
171.43929004669189
31
0
0
LINE
5
307
100
AcDbEntity
8
0
100
AcDbLine
10
-31.343793869018555
20
171.43929004669189
30
0
11
-31.343793869018555
21
167.38744854927063
31
0
0
LINE
5
308
100
AcDbEntity
8
0
100
AcDbLine
10
-31.343793869018555
20
167.38744854927063
30
0
11
-26.555252075195312
21
167.38744854927063
31
0
0
LINE
5
309
100
AcDbEntity
8
0
100
AcDbLine
10
-26.555252075195312
20
167.38744854927063
30
0
11
-26.555252075195312
21
166.37107729911804
31
0
0
LINE
5
310
100
AcDbEntity
8
0
100
AcDbLine
10
-26.555252075195312
20
166.37107729911804
30
0
11
-31.343793869018555
21
166.37107729911804
31
0
0
LINE
5
311
100
AcDbEntity
8
0
100
AcDbLine
10
-31.343793869018555
20
166.37107729911804
30
0
11
-31.343793869018555
21
161.22783064842224
31
0
0
LINE
5
312
100
AcDbEntity
8
0
100
AcDbLine
10
-31.343793869018555
20
161.22783064842224
30
0
11
-25.327425003051758
21
161.22783064842224
31
0
0
LINE
5
313
100
AcDbEntity
8
0
100
AcDbLine
10
-25.327425003051758
20
161.22783064842224
30
0
11
-25.327425003051758
21
160.20463824272156
31
0
0
LINE
5
314
100
AcDbEntity
8
0
100
AcDbLine
10
-96.773533821105957
20
144.37244117259979
30
0
11
-106.26875847578049
21
144.37244117259979
31
0
0
SPLINE
5
315
100
AcDbEntity
8
0
100
AcDbSpline
70
0
71
2
72
6
73
3
74
0
42
0.000000001
43
0.0000000001
44
0.0000000001
40
0
40
0
40
0
40
1
40
1
40
1
10
-106.26875847578049
20
144.37244117259979
30
0
10
-107.05320596694946
20
141.82810306549072
30
0
10
-108.64256486296654
20
140.15006721019745
30
0
0
LINE
5
316
100
AcDbEntity
8
0
100
AcDbLine
10
-108.64256486296654
20
140.15006721019745
30
0
11
-109.49522510170937
21
140.82537412643433
31
0
0
SPLINE
5
317
100
AcDbEntity
8
0
100
AcDbSpline
70
0
71
2
72
6
73
3
74
0
42
0.000000001
43
0.0000000001
44
0.0000000001
40
0
40
0
40
0
40
1
40
1
40
1
10
-109.49522510170937
20
140.82537412643433
30
0
10
-107.22373783588409
20
143.45838904380798
30
0
10
-106.88267379999161
20
146.98499202728271
30
0
0
LINE
5
318
100
AcDbEntity
8
0
100
AcDbLine
10
-106.88267379999161
20
146.98499202728271
30
0
11
-105.87994545698166
21
146.50750160217285
31
0
0
SPLINE
5
319
100
AcDbEntity
8
0
100
AcDbSpline
70
0
71
2
72
6
73
3
74
0
42
0.000000001
43
0.0000000001
44
0.0000000001
40
0
40
0
40
0
40
1
40
1
40
1
10
-105.87994545698166
20
146.50750160217285
30
0
10
-105.90040922164917
20
145.95497846603394
30
0
10
-106.01637095212936
20
145.38881182670593
30
0
0
LINE
5
320
100
AcDbEntity
8
0
100
AcDbLine
10
-106.01637095212936
20
145.38881182670593
30
0
11
-96.773533821105957
21
145.38881182670593
31
0
0
LINE
5
321
100
AcDbEntity
8
0
100
AcDbLine
10
-96.773533821105957
20
145.38881182670593
30
0
11
-96.773533821105957
21
144.37244117259979
31
0
0
LINE
5
322
100
AcDbEntity
8
0
100
AcDbLine
10
-97.933151721954346
20
142.34652042388916
30
0
11
-106.46657556295395
21
142.34652042388916
31
0
0
LINE
5
323
100
AcDbEntity
8
0
100
AcDbLine
10
-106.46657556295395
20
142.34652042388916
30
0
11
-106.46657556295395
21
143.36971282958984
31
0
0
LINE
5
324
100
AcDbEntity
8
0
100
AcDbLine
10
-106.46657556295395
20
143.36971282958984
30
0
11
-97.933151721954346
21
143.36971282958984
31
0
0
LINE
5
325
100
AcDbEntity
8
0
100
AcDbLine
10
-97.933151721954346
20
143.36971282958984
30
0
11
-97.933151721954346
21
142.34652042388916
31
0
0
SPLINE
5
326
100
AcDbEntity
8
0
100
AcDbSpline
70
0
71
2
72
6
73
3
74
0
42
0.000000001
43
0.0000000001
44
0.0000000001
40
0
40
0
40
0
40
1
40
1
40
1
10
-96.548430919647217
20
136.98499321937561
30
0
10
-96.98499321937561
20
134.2837655544281
30
0
10
-97.987722158432007
20
134.2837655544281
30
0
0
SPLINE
5
327
100
AcDbEntity
8
0
100
AcDbSpline
70
0
71
2
72
6
73
3
74
0
42
0.000000001
43
0.0000000001
44
0.0000000001
40
0
40
0
40
0
40
1
40
1
40
1
10
-97.987722158432007
20
134.2837655544281
30
0
10
-98.778990507125854
20
134.2837655544281
30
0
10
-99.59754467010498
20
135.90040922164917
30
0
0
SPLINE
5
328
100
AcDbEntity
8
0
100
AcDbSpline
70
0
71
2
72
6
73
3
74
0
42
0.000000001
43
0.0000000001
44
0.0000000001
40
0
40
0
40
0
40
1
40
1
40
1
10
-99.59754467010498
20
135.90040922164917
30
0
10
-100.41609823703766
20
137.52387404441833
30
0
10
-100.45702636241913
20
140.41609764099121
30
0
0
LINE
5
329
100
AcDbEntity
8
0
100
AcDbLine
10
-100.45702636241913
20
140.41609764099121
30
0
11
-107.41473376750946
21
140.41609764099121
31
0
0
LINE
5
330
100
AcDbEntity
8
0
100
AcDbLine
10
-107.41473376750946
20
140.41609764099121
30
0
11
-107.41473376750946
21
141.43929004669189
31
0
0
LINE
5
331
100
AcDbEntity
8
0
100
AcDbLine
10
-107.41473376750946
20
141.43929004669189
30
0
11
-99.338335990905762
21
141.43929004669189
31
0
0
SPLINE
5
332
100
AcDbEntity
8
0
100
AcDbSpline
70
0
71
2
72
6
73
3
74
0
42
0.000000001
43
0.0000000001
44
0.0000000001
40
0
40
0
40
0
40
1
40
1
40
1
10
-99.338335990905762
20
141.43929004669189
30
0
10
-99.440654516220093
20
137.97407865524292
30
0
10
-98.78581166267395
20
136.7189633846283
30
0
0
SPLINE
5
333
100
AcDbEntity
8
0
100
AcDbSpline
70
0
71
2
72
6
73
3
74
0
42
0.000000001
43
0.0000000001
44
0.0000000001
40
0
40
0
40
0
40
1
40
1
40
1
10
-98.78581166267395
20
136.7189633846283
30
0
10
-98.124147653579712
20
135.47066807746887
30
0
10
-97.933151721954346
20
135.47066807746887
30
0
0
SPLINE
5
334
100
AcDbEntity
8
0
100
AcDbSpline
70
0
71
2
72
6
73
3
74
0
42
0.000000001
43
0.0000000001
44
0.0000000001
40
0
40
0
40
0
40
1
40
1
40
1
10
-97.933151721954346
20
135.47066807746887
30
0
10
-97.892223596572876
20
135.47066807746887
30
0
10
-97.742155790328979
20
136.1391544342041
30
0
0
SPLINE
5
335
100
AcDbEntity
8
0
100
AcDbSpline
70
0
71
2
72
6
73
3
74
0
42
0.000000001
43
0.0000000001
44
0.0000000001
40
0
40
0
40
0
40
1
40
1
40
1
10
-97.742155790328979
20
136.1391544342041
30
0
10
-97.592087984085083
20
136.81446075439453
30
0
10
-97.564802169799805
20
137.40109086036682
30
0
0
LINE
5
336
100
AcDbEntity
8
0
100
AcDbLine
10
-97.564802169799805
20
137.40109086036682
30
0
11
-96.548430919647217
21
136.98499321937561
31
0
0
SPLINE
5
337
100
AcDbEntity
8
0
100
AcDbSpline
70
0
71
2
72
6
73
3
74
0
42
0.000000001
43
0.0000000001
44
0.0000000001
40
0
40
0
40
0
40
1
40
1
40
1
10
-100.9208732843399
20
139.22919511795044
30
0
10
-101.61664426326752
20
138.30150008201599
30
0
10
-102.97407925128937
20
137.08049058914185
30
0
0
SPLINE
5
338
100
AcDbEntity
8
0
100
AcDbSpline
70
0
71
2
72
6
73
3
74
0
42
0.000000001
43
0.0000000001
44
0.0000000001
40
0
40
0
40
0
40
1
40
1
40
1
10
-102.97407925128937
20
137.08049058914185
30
0
10
-102.08049118518829
20
136.24147295951843
30
0
10
-101.04365646839142
20
134.84311103820801
30
0
0
LINE
5
339
100
AcDbEntity
8
0
100
AcDbLine
10
-101.04365646839142
20
134.84311103820801
30
0
11
-101.99181437492371
21
134.24283742904663
31
0
0
SPLINE
5
340
100
AcDbEntity
8
0
100
AcDbSpline
70
0
71
2
72
6
73
3
74
0
42
0.000000001
43
0.0000000001
44
0.0000000001
40
0
40
0
40
0
40
1
40
1
40
1
10
-101.99181437492371
20
134.24283742904663
30
0
10
-102.93997287750244
20
135.40245532989502
30
0
10
-103.78581166267395
20
136.2824010848999
30
0
0
SPLINE
5
341
100
AcDbEntity
8
0
100
AcDbSpline
70
0
71
2
72
6
73
3
74
0
42
0.000000001
43
0.0000000001
44
0.0000000001
40
0
40
0
40
0
40
1
40
1
40
1
10
-103.78581166267395
20
136.2824010848999
30
0
10
-104.2905867099762
20
135.77080488204956
30
0
10
-104.80218291282654
20
135.41609764099121
30
0
0
SPLINE
5
342
100
AcDbEntity
8
0
100
AcDbSpline
70
0
71
2
72
6
73
3
74
0
42
0.000000001
43
0.0000000001
44
0.0000000001
40
0
40
0
40
0
40
1
40
1
40
1
10
-104.80218291282654
20
135.41609764099121
30
0
10
-105.31377881765366
20
135.06821274757385
30
0
10
-105.94133675098419
20
134.74761247634888
30
0
0
SPLINE
5
343
100
AcDbEntity
8
0
100
AcDbSpline
70
0
71
2
72
6
73
3
74
0
42
0.000000001
43
0.0000000001
44
0.0000000001
40
0
40
0
40
0
40
1
40
1
40
1
10
-105.94133675098419
20
134.74761247634888
30
0
10
-106.56889498233795
20
134.42019104957581
30
0
10
-106.9713506102562
20
134.20191049575806
30
0
0
LINE
5
344
100
AcDbEntity
8
0
100
AcDbLine
10
-106.9713506102562
20
134.20191049575806
30
0
11
-107.72169172763824
21
135.06821274757385
31
0
0
SPLINE
5
345
100
AcDbEntity
8
0
100
AcDbSpline
70
0
71
2
72
6
73
3
74
0
42
0.000000001
43
0.0000000001
44
0.0000000001
40
0
40
0
40
0
40
1
40
1
40
1
10
-107.72169172763824
20
135.06821274757385
30
0
10
-105.8185538649559
20
135.92769384384155
30
0
10
-104.50886785984039
20
137.03956365585327
30
0
0
SPLINE
5
346
100
AcDbEntity
8
0
100
AcDbSpline
70
0
71
2
72
6
73
3
74
0
42
0.000000001
43
0.0000000001
44
0.0000000001
40
0
40
0
40
0
40
1
40
1
40
1
10
-104.50886785984039
20
137.03956365585327
30
0
10
-106.37107759714127
20
138.7175989151001
30
0
10
-106.82810366153717
20
138.99044990539551
30
0
0
LINE
5
347
100
AcDbEntity
8
0
100
AcDbLine
10
-106.82810366153717
20
138.99044990539551
30
0
11
-106.14597529172897
21
139.74761247634888
31
0
0
SPLINE
5
348
100
AcDbEntity
8
0
100
AcDbSpline
70
0
71
2
72
6
73
3
74
0
42
0.000000001
43
0.0000000001
44
0.0000000001
40
0
40
0
40
0
40
1
40
1
40
1
10
-106.14597529172897
20
139.74761247634888
30
0
10
-104.57708060741425
20
138.60845804214478
30
0
10
-103.81309688091278
20
137.89222359657288
30
0
0
SPLINE
5
349
100
AcDbEntity
8
0
100
AcDbSpline
70
0
71
2
72
6
73
3
74
0
42
0.000000001
43
0.0000000001
44
0.0000000001
40
0
40
0
40
0
40
1
40
1
40
1
10
-103.81309688091278
20
137.89222359657288
30
0
10
-102.39427030086517
20
139.02455568313599
30
0
10
-101.84174656867981
20
139.87721681594849
30
0
0
LINE
5
350
100
AcDbEntity
8
0
100
AcDbLine
10
-101.84174656867981
20
139.87721681594849
30
0
11
-100.9208732843399
21
139.22919511795044
31
0
0
LINE
5
351
100
AcDbEntity
8
0
100
AcDbLine
10
-91.364257335662842
20
144.05184268951416
30
0
11
-92.203273773193359
21
143.26739490032196
31
0
0
SPLINE
5
352
100
AcDbEntity
8
0
100
AcDbSpline
70
0
71
2
72
6
73
3
74
0
42
0.000000001
43
0.0000000001
44
0.0000000001
40
0
40
0
40
0
40
1
40
1
40
1
10
-92.203273773193359
20
143.26739490032196
30
0
10
-92.905867099761963
20
144.50886845588684
30
0
10
-94.563437700271606
20
145.29331564903259
30
0
0
LINE
5
353
100
AcDbEntity
8
0
100
AcDbLine
10
-94.563437700271606
20
145.29331564903259
30
0
11
-93.806276321411133
21
145.97544431686401
31
0
0
SPLINE
5
354
100
AcDbEntity
8
0
100
AcDbSpline
70
0
71
2
72
6
73
3
74
0
42
0.000000001
43
0.0000000001
44
0.0000000001
40
0
40
0
40
0
40
1
40
1
40
1
10
-93.806276321411133
20
145.97544431686401
30
0
10
-92.019100189208984
20
145.18417596817017
30
0
10
-91.364257335662842
20
144.05184268951416
30
0
0
LINE
5
355
100
AcDbEntity
8
0
100
AcDbLine
10
-84.50204610824585
20
140.40245592594147
30
0
11
-91.070941686630249
21
140.40245592594147
31
0
0
LINE
5
356
100
AcDbEntity
8
0
100
AcDbLine
10
-91.070941686630249
20
140.40245592594147
30
0
11
-91.070941686630249
21
145.78444838523865
31
0
0
LINE
5
357
100
AcDbEntity
8
0
100
AcDbLine
10
-91.070941686630249
20
145.78444838523865
30
0
11
-84.50204610824585
21
145.78444838523865
31
0
0
LINE
5
358
100
AcDbEntity
8
0
100
AcDbLine
10
-84.50204610824585
20
145.78444838523865
30
0
11
-84.50204610824585
21
140.40245592594147
31
0
0
LINE
5
359
100
AcDbEntity
8
0
100
AcDbLine
10
-85.566167831420898
20
143.6425656080246
30
0
11
-85.566167831420898
21
144.76125597953796
31
0
0
LINE
5
360
100
AcDbEntity
8
0
100
AcDbLine
10
-85.566167831420898
20
144.76125597953796
30
0
11
-90.006821155548096
21
144.76125597953796
31
0
0
LINE
5
361
100
AcDbEntity
8
0
100
AcDbLine
10
-90.006821155548096
20
144.76125597953796
30
0
11
-90.006821155548096
21
143.6425656080246
31
0
0
LINE
5
362
100
AcDbEntity
8
0
100
AcDbLine
10
-90.006821155548096
20
143.6425656080246
30
0
11
-85.566167831420898
21
143.6425656080246
31
0
0
LINE
5
363
100
AcDbEntity
8
0
100
AcDbLine
10
-85.566167831420898
20
141.42564833164215
30
0
11
-85.566167831420898
21
142.62619435787201
31
0
0
LINE
5
364
100
AcDbEntity
8
0
100
AcDbLine
10
-85.566167831420898
20
142.62619435787201
30
0
11
-90.006821155548096
21
142.62619435787201
31
0
0
LINE
5
365
100
AcDbEntity
8
0
100
AcDbLine
10
-90.006821155548096
20
142.62619435787201
30
0
11
-90.006821155548096
21
141.42564833164215
31
0
0
LINE
5
366
100
AcDbEntity
8
0
100
AcDbLine
10
-90.006821155548096
20
141.42564833164215
30
0
11
-85.566167831420898
21
141.42564833164215
31
0
0
LINE
5
367
100
AcDbEntity
8
0
100
AcDbLine
10
-92.148704528808594
20
141.34379327297211
30
0
11
-92.967257499694824
21
140.55934548377991
31
0
0
SPLINE
5
368
100
AcDbEntity
8
0
100
AcDbSpline
70
0
71
2
72
6
73
3
74
0
42
0.000000001
43
0.0000000001
44
0.0000000001
40
0
40
0
40
0
40
1
40
1
40
1
10
-92.967257499694824
20
140.55934548377991
30
0
10
-93.78581166267395
20
141.73260629177094
30
0
10
-95.525238513946533
20
142.44201958179474
30
0
0
LINE
5
369
100
AcDbEntity
8
0
100
AcDbLine
10
-95.525238513946533
20
142.44201958179474
30
0
11
-94.815825223922729
21
143.18553924560547
31
0
0
SPLINE
5
370
100
AcDbEntity
8
0
100
AcDbSpline
70
0
71
2
72
6
73
3
74
0
42
0.000000001
43
0.0000000001
44
0.0000000001
40
0
40
0
40
0
40
1
40
1
40
1
10
-94.815825223922729
20
143.18553924560547
30
0
10
-93.301501274108887
20
142.72851347923279
30
0
10
-92.148704528808594
20
141.34379327297211
30
0
0
SPLINE
5
371
100
AcDbEntity
8
0
100
AcDbSpline
70
0
71
2
72
6
73
3
74
0
42
0.000000001
43
0.0000000001
44
0.0000000001
40
0
40
0
40
0
40
1
40
1
40
1
10
-92.203273773193359
20
139.59754467010498
30
0
10
-92.892223596572876
20
136.04365587234497
30
0
10
-94.467940330505371
20
134.21555280685425
30
0
0
LINE
5
372
100
AcDbEntity
8
0
100
AcDbLine
10
-94.467940330505371
20
134.21555280685425
30
0
11
-95.49795389175415
21
134.77489709854126
31
0
0
SPLINE
5
373
100
AcDbEntity
8
0
100
AcDbSpline
70
0
71
2
72
6
73
3
74
0
42
0.000000001
43
0.0000000001
44
0.0000000001
40
0
40
0
40
0
40
1
40
1
40
1
10
-95.49795389175415
20
134.77489709854126
30
0
10
-93.819918632507324
20
136.64392948150635
30
0
10
-93.110505342483521
20
140.04092812538147
30
0
0
LINE
5
374
100
AcDbEntity
8
0
100
AcDbLine
10
-93.110505342483521
20
140.04092812538147
30
0
11
-92.203273773193359
21
139.59754467010498
31
0
0
LINE
5
375
100
AcDbEntity
8
0
100
AcDbLine
10
-82.858119010925293
20
134.46794033050537
30
0
11
-92.694406509399414
21
134.46794033050537
31
0
0
LINE
5
376
100
AcDbEntity
8
0
100
AcDbLine
10
-92.694406509399414
20
134.46794033050537
30
0
11
-92.694406509399414
21
135.48431158065796
31
0
0
LINE
5
377
100
AcDbEntity
8
0
100
AcDbLine
10
-92.694406509399414
20
135.48431158065796
30
0
11
-91.780354976654053
21
135.48431158065796
31
0
0
LINE
5
378
100
AcDbEntity
8
0
100
AcDbLine
10
-91.780354976654053
20
135.48431158065796
30
0
11
-91.780354976654053
21
139.5634388923645
31
0
0
LINE
5
379
100
AcDbEntity
8
0
100
AcDbLine
10
-91.780354976654053
20
139.5634388923645
30
0
11
-83.792634010314941
21
139.5634388923645
31
0
0
LINE
5
380
100
AcDbEntity
8
0
100
AcDbLine
10
-83.792634010314941
20
139.5634388923645
30
0
11
-83.792634010314941
21
135.48431158065796
31
0
0
LINE
5
381
100
AcDbEntity
8
0
100
AcDbLine
10
-83.792634010314941
20
135.48431158065796
30
0
11
-82.858119010925293
21
135.48431158065796
31
0
0
LINE
5
382
100
AcDbEntity
8
0
100
AcDbLine
10
-82.858119010925293
20
135.48431158065796
30
0
11
-82.858119010925293
21
134.46794033050537
31
0
0
LINE
5
383
100
AcDbEntity
8
0
100
AcDbLine
10
-84.856753349304199
20
135.48431158065796
30
0
11
-84.856753349304199
21
138.54706764221191
31
0
0
LINE
5
384
100
AcDbEntity
8
0
100
AcDbLine
10
-84.856753349304199
20
138.54706764221191
30
0
11
-86.111869812011719
21
138.54706764221191
31
0
0
LINE
5
385
100
AcDbEntity
8
0
100
AcDbLine
10
-86.111869812011719
20
138.54706764221191
30
0
11
-86.111869812011719
21
135.48431158065796
31
0
0
LINE
5
386
100
AcDbEntity
8
0
100
AcDbLine
10
-86.111869812011719
20
135.48431158065796
30
0
11
-84.856753349304199
21
135.48431158065796
31
0
0
LINE
5
387
100
AcDbEntity
8
0
100
AcDbLine
10
-87.175989151000977
20
135.48431158065796
30
0
11
-87.175989151000977
21
138.54706764221191
31
0
0
LINE
5
388
100
AcDbEntity
8
0
100
AcDbLine
10
-87.175989151000977
20
138.54706764221191
30
0
11
-88.417463302612305
21
138.54706764221191
31
0
0
LINE
5
389
100
AcDbEntity
8
0
100
AcDbLine
10
-88.417463302612305
20
138.54706764221191
30
0
11
-88.417463302612305
21
135.48431158065796
31
0
0
LINE
5
390
100
AcDbEntity
8
0
100
AcDbLine
10
-88.417463302612305
20
135.48431158065796
30
0
11
-87.175989151000977
21
135.48431158065796
31
0
0
LINE
5
391
100
AcDbEntity
8
0
100
AcDbLine
10
-89.474761486053467
20
135.48431158065796
30
0
11
-89.474761486053467
21
138.54706764221191
31
0
0
LINE
5
392
100
AcDbEntity
8
0
100
AcDbLine
10
-89.474761486053467
20
138.54706764221191
30
0
11
-90.723056793212891
21
138.54706764221191
31
0
0
LINE
5
393
100
AcDbEntity
8
0
100
AcDbLine
10
-90.723056793212891
20
138.54706764221191
30
0
11
-90.723056793212891
21
135.48431158065796
31
0
0
LINE
5
394
100
AcDbEntity
8
0
100
AcDbLine
10
-90.723056793212891
20
135.48431158065796
30
0
11
-89.474761486053467
21
135.48431158065796
31
0
0
LINE
5
395
100
AcDbEntity
8
0
100
AcDbLine
10
-76.855387687683105
20
135.06821274757385
30
0
11
-78.083219528198242
21
135.06821274757385
31
0
0
LINE
5
396
100
AcDbEntity
8
0
100
AcDbLine
10
-78.083219528198242
20
135.06821274757385
30
0
11
-78.083219528198242
21
142.89222359657288
31
0
0
SPLINE
5
397
100
AcDbEntity
8
0
100
AcDbSpline
70
0
71
2
72
6
73
3
74
0
42
0.000000001
43
0.0000000001
44
0.0000000001
40
0
40
0
40
0
40
1
40
1
40
1
10
-78.083219528198242
20
142.89222359657288
30
0
10
-78.526601791381836
20
142.46930420398712
30
0
10
-79.249658584594727
20
142.04638481140137
30
0
0
SPLINE
5
398
100
AcDbEntity
8
0
100
AcDbSpline
70
0
71
2
72
6
73
3
74
0
42
0.000000001
43
0.0000000001
44
0.0000000001
40
0
40
0
40
0
40
1
40
1
40
1
10
-79.249658584594727
20
142.04638481140137
30
0
10
-79.965894222259521
20
141.62346541881561
30
0
10
-80.538880825042725
20
141.41200542449951
30
0
0
LINE
5
399
100
AcDbEntity
8
0
100
AcDbLine
10
-80.538880825042725
20
141.41200542449951
30
0
11
-80.538880825042725
21
142.59890854358673
31
0
0
SPLINE
5
400
100
AcDbEntity
8
0
100
AcDbSpline
70
0
71
2
72
6
73
3
74
0
42
0.000000001
43
0.0000000001
44
0.0000000001
40
0
40
0
40
0
40
1
40
1
40
1
10
-80.538880825042725
20
142.59890854358673
30
0
10
-79.508867263793945
20
143.08321952819824
30
0
10
-78.738062381744385
20
143.77216935157776
30
0
0
SPLINE
5
401
100
AcDbEntity
8
0
100
AcDbSpline
70
0
71
2
72
6
73
3
74
0
42
0.000000001
43
0.0000000001
44
0.0000000001
40
0
40
0
40
0
40
1
40
1
40
1
10
-78.738062381744385
20
143.77216935157776
30
0
10
-77.967257499694824
20
144.46111857891083
30
0
10
-77.646656036376953
20
145.10914087295532
30
0
0
LINE
5
402
100
AcDbEntity
8
0
100
AcDbLine
10
-77.646656036376953
20
145.10914087295532
30
0
11
-76.855387687683105
21
145.10914087295532
31
0
0
LINE
5
403
100
AcDbEntity
8
0
100
AcDbLine
10
-76.855387687683105
20
145.10914087295532
30
0
11
-76.855387687683105
21
135.06821274757385
31
0
0
LINE
5
404
100
AcDbEntity
8
0
100
AcDbLine
10
-73.710777759552002
20
137.68758535385132
30
0
11
-72.421555519104004
21
137.79672622680664
31
0
0
SPLINE
5
405
100
AcDbEntity
8
0
100
AcDbSpline
70
0
71
2
72
6
73
3
74
0
42
0.000000001
43
0.0000000001
44
0.0000000001
40
0
40
0
40
0
40
1
40
1
40
1
10
-72.421555519104004
20
137.79672622680664
30
0
10
-72.278308868408203
20
136.855388879776
30
0
10
-71.759891510009766
20
136.37789964675903
30
0
0
SPLINE
5
406
100
AcDbEntity
8
0
100
AcDbSpline
70
0
71
2
72
6
73
3
74
0
42
0.000000001
43
0.0000000001
44
0.0000000001
40
0
40
0
40
0
40
1
40
1
40
1
10
-71.759891510009766
20
136.37789964675903
30
0
10
-71.234652996063232
20
135.90723037719727
30
0
10
-70.49795389175415
20
135.90723037719727
30
0
0
SPLINE
5
407
100
AcDbEntity
8
0
100
AcDbSpline
70
0
71
2
72
6
73
3
74
0
42
0.000000001
43
0.0000000001
44
0.0000000001
40
0
40
0
40
0
40
1
40
1
40
1
10
-70.49795389175415
20
135.90723037719727
30
0
10
-69.611186981201172
20
135.90723037719727
30
0
10
-68.997268676757812
20
136.5757167339325
30
0
0
SPLINE
5
408
100
AcDbEntity
8
0
100
AcDbSpline
70
0
71
2
72
6
73
3
74
0
42
0.000000001
43
0.0000000001
44
0.0000000001
40
0
40
0
40
0
40
1
40
1
40
1
10
-68.997268676757812
20
136.5757167339325
30
0
10
-68.383355140686035
20
137.24420189857483
30
0
10
-68.383355140686035
20
138.34924936294556
30
0
0
SPLINE
5
409
100
AcDbEntity
8
0
100
AcDbSpline
70
0
71
2
72
6
73
3
74
0
42
0.000000001
43
0.0000000001
44
0.0000000001
40
0
40
0
40
0
40
1
40
1
40
1
10
-68.383355140686035
20
138.34924936294556
30
0
10
-68.383355140686035
20
139.39972758293152
30
0
10
-68.976807594299316
20
140.0068211555481
30
0
0
SPLINE
5
410
100
AcDbEntity
8
0
100
AcDbSpline
70
0
71
2
72
6
73
3
74
0
42
0.000000001
43
0.0000000001
44
0.0000000001
40
0
40
0
40
0
40
1
40
1
40
1
10
-68.976807594299316
20
140.0068211555481
30
0
10
-69.563436508178711
20
140.61391592025757
30
0
10
-70.518417358398438
20
140.61391592025757
30
0
0
SPLINE
5
411
100
AcDbEntity
8
0
100
AcDbSpline
70
0
71
2
72
6
73
3
74
0
42
0.000000001
43
0.0000000001
44
0.0000000001
40
0
40
0
40
0
40
1
40
1
40
1
10
-70.518417358398438
20
140.61391592025757
30
0
10
-71.111869812011719
20
140.61391592025757
30
0
10
-71.589360237121582
20
140.34106492996216
30
0
0
SPLINE
5
412
100
AcDbEntity
8
0
100
AcDbSpline
70
0
71
2
72
6
73
3
74
0
42
0.000000001
43
0.0000000001
44
0.0000000001
40
0
40
0
40
0
40
1
40
1
40
1
10
-71.589360237121582
20
140.34106492996216
30
0
10
-72.066848278045654
20
140.0750344991684
30
0
10
-72.339701652526855
20
139.64529395103455
30
0
0
LINE
5
413
100
AcDbEntity
8
0
100
AcDbLine
10
-72.339701652526855
20
139.64529395103455
30
0
11
-73.492496013641357
21
139.79536175727844
31
0
0
LINE
5
414
100
AcDbEntity
8
0
100
AcDbLine
10
-73.492496013641357
20
139.79536175727844
30
0
11
-72.52387523651123
21
144.93178844451904
31
0
0
LINE
5
415
100
AcDbEntity
8
0
100
AcDbLine
10
-72.52387523651123
20
144.93178844451904
30
0
11
-67.551159858703613
21
144.93178844451904
31
0
0
LINE
5
416
100
AcDbEntity
8
0
100
AcDbLine
10
-67.551159858703613
20
144.93178844451904
30
0
11
-67.551159858703613
21
143.75852763652802
31
0
0
LINE
5
417
100
AcDbEntity
8
0
100
AcDbLine
10
-67.551159858703613
20
143.75852763652802
30
0
11
-71.541609764099121
21
143.75852763652802
31
0
0
LINE
5
418
100
AcDbEntity
8
0
100
AcDbLine
10
-71.541609764099121
20
143.75852763652802
30
0
11
-72.080490589141846
21
141.0709422826767
31
0
0
SPLINE
5
419
100
AcDbEntity
8
0
100
AcDbSpline
70
0
71
2
72
6
73
3
74
0
42
0.000000001
43
0.0000000001
44
0.0000000001
40
0
40
0
40
0
40
1
40
1
40
1
10
-72.080490589141846
20
141.0709422826767
30
0
10
-71.180081367492676
20
141.69849991798401
30
0
10
-70.190997123718262
20
141.69849991798401
30
0
0
SPLINE
5
420
100
AcDbEntity
8
0
100
AcDbSpline
70
0
71
2
72
6
73
3
74
0
42
0.000000001
43
0.0000000001
44
0.0000000001
40
0
40
0
40
0
40
1
40
1
40
1
10
-70.190997123718262
20
141.69849991798401
30
0
10
-68.881311416625977
20
141.69849991798401
30
0
10
-67.980899810791016
20
140.79126954078674
30
0
0
SPLINE
5
421
100
AcDbEntity
8
0
100
AcDbSpline
70
0
71
2
72
6
73
3
74
0
42
0.000000001
43
0.0000000001
44
0.0000000001
40
0
40
0
40
0
40
1
40
1
40
1
10
-67.980899810791016
20
140.79126954078674
30
0
10
-67.080488204956055
20
139.88403797149658
30
0
10
-67.080488204956055
20
138.45839023590088
30
0
0
SPLINE
5
422
100
AcDbEntity
8
0
100
AcDbSpline
70
0
71
2
72
6
73
3
74
0
42
0.000000001
43
0.0000000001
44
0.0000000001
40
0
40
0
40
0
40
1
40
1
40
1
10
-67.080488204956055
20
138.45839023590088
30
0
10
-67.080488204956055
20
137.10095524787903
30
0
10
-67.871761322021484
20
136.11186861991882
30
0
0
SPLINE
5
423
100
AcDbEntity
8
0
100
AcDbSpline
70
0
71
2
72
6
73
3
74
0
42
0.000000001
43
0.0000000001
44
0.0000000001
40
0
40
0
40
0
40
1
40
1
40
1
10
-67.871761322021484
20
136.11186861991882
30
0
10
-68.833560943603516
20
134.89768028259277
30
0
10
-70.49795389175415
20
134.89768028259277
30
0
0
SPLINE
5
424
100
AcDbEntity
8
0
100
AcDbSpline
70
0
71
2
72
6
73
3
74
0
42
0.000000001
43
0.0000000001
44
0.0000000001
40
0
40
0
40
0
40
1
40
1
40
1
10
-70.49795389175415
20
134.89768028259277
30
0
10
-71.862211227416992
20
134.89768028259277
30
0
10
-72.728514671325684
20
135.66166400909424
30
0
0
SPLINE
5
425
100
AcDbEntity
8
0
100
AcDbSpline
70
0
71
2
72
6
73
3
74
0
42
0.000000001
43
0.0000000001
44
0.0000000001
40
0
40
0
40
0
40
1
40
1
40
1
10
-72.728514671325684
20
135.66166400909424
30
0
10
-73.587994575500488
20
136.4256477355957
30
0
10
-73.710777759552002
20
137.68758535385132
30
0
0
SPLINE
5
426
100
AcDbEntity
8
0
100
AcDbSpline
70
0
71
2
72
6
73
3
74
0
42
0.000000001
43
0.0000000001
44
0.0000000001
40
0
40
0
40
0
40
1
40
1
40
1
10
-52.789907455444336
20
138.24010848999023
30
0
10
-53.226470947265625
20
136.55525207519531
30
0
10
-54.317874908447266
20
135.72305560112
30
0
0
SPLINE
5
427
100
AcDbEntity
8
0
100
AcDbSpline
70
0
71
2
72
6
73
3
74
0
42
0.000000001
43
0.0000000001
44
0.0000000001
40
0
40
0
40
0
40
1
40
1
40
1
10
-54.317874908447266
20
135.72305560112
30
0
10
-55.402460098266602
20
134.89768028259277
30
0
10
-56.923604011535645
20
134.89768028259277
30
0
0
SPLINE
5
428
100
AcDbEntity
8
0
100
AcDbSpline
70
0
71
2
72
6
73
3
74
0
42
0.000000001
43
0.0000000001
44
0.0000000001
40
0
40
0
40
0
40
1
40
1
40
1
10
-56.923604011535645
20
134.89768028259277
30
0
10
-59.372444152832031
20
134.89768028259277
30
0
10
-60.497956275939941
20
136.4324688911438
30
0
0
SPLINE
5
429
100
AcDbEntity
8
0
100
AcDbSpline
70
0
71
2
72
6
73
3
74
0
42
0.000000001
43
0.0000000001
44
0.0000000001
40
0
40
0
40
0
40
1
40
1
40
1
10
-60.497956275939941
20
136.4324688911438
30
0
10
-61.616644859313965
20
137.97407865524292
30
0
10
-61.616644859313965
20
140.13642549514771
30
0
0
SPLINE
5
430
100
AcDbEntity
8
0
100
AcDbSpline
70
0
71
2
72
6
73
3
74
0
42
0.000000001
43
0.0000000001
44
0.0000000001
40
0
40
0
40
0
40
1
40
1
40
1
10
-61.616644859313965
20
140.13642549514771
30
0
10
-61.616644859313965
20
142.53069519996643
30
0
10
-60.300140380859375
20
143.88130903244019
30
0
0
SPLINE
5
431
100
AcDbEntity
8
0
100
AcDbSpline
70
0
71
2
72
6
73
3
74
0
42
0.000000001
43
0.0000000001
44
0.0000000001
40
0
40
0
40
0
40
1
40
1
40
1
10
-60.300140380859375
20
143.88130903244019
30
0
10
-58.976812362670898
20
145.23874402046204
30
0
10
-56.909961700439453
20
145.23874402046204
30
0
0
SPLINE
5
432
100
AcDbEntity
8
0
100
AcDbSpline
70
0
71
2
72
6
73
3
74
0
42
0.000000001
43
0.0000000001
44
0.0000000001
40
0
40
0
40
0
40
1
40
1
40
1
10
-56.909961700439453
20
145.23874402046204
30
0
10
-55.443387031555176
20
145.23874402046204
30
0
10
-54.406552314758301
20
144.49522435665131
30
0
0
SPLINE
5
433
100
AcDbEntity
8
0
100
AcDbSpline
70
0
71
2
72
6
73
3
74
0
42
0.000000001
43
0.0000000001
44
0.0000000001
40
0
40
0
40
0
40
1
40
1
40
1
10
-54.406552314758301
20
144.49522435665131
30
0
10
-53.369712829589844
20
143.75170469284058
30
0
10
-52.953615188598633
20
142.31923580169678
30
0
0
LINE
5
434
100
AcDbEntity
8
0
100
AcDbLine
10
-52.953615188598633
20
142.31923580169678
30
0
11
-54.256482124328613
21
142.01227784156799
31
0
0
SPLINE
5
435
100
AcDbEntity
8
0
100
AcDbSpline
70
0
71
2
72
6
73
3
74
0
42
0.000000001
43
0.0000000001
44
0.0000000001
40
0
40
0
40
0
40
1
40
1
40
1
10
-54.256482124328613
20
142.01227784156799
30
0
10
-54.90450382232666
20
144.10641133785248
30
0
10
-56.923604011535645
20
144.10641133785248
30
0
0
SPLINE
5
436
100
AcDbEntity
8
0
100
AcDbSpline
70
0
71
2
72
6
73
3
74
0
42
0.000000001
43
0.0000000001
44
0.0000000001
40
0
40
0
40
0
40
1
40
1
40
1
10
-56.923604011535645
20
144.10641133785248
30
0
10
-58.560714721679688
20
144.10641133785248
30
0
10
-59.406552314758301
20
143.02864909172058
30
0
0
SPLINE
5
437
100
AcDbEntity
8
0
100
AcDbSpline
70
0
71
2
72
6
73
3
74
0
42
0.000000001
43
0.0000000001
44
0.0000000001
40
0
40
0
40
0
40
1
40
1
40
1
10
-59.406552314758301
20
143.02864909172058
30
0
10
-60.245571136474609
20
141.95770740509033
30
0
10
-60.245571136474609
20
140.1500678062439
30
0
0
SPLINE
5
438
100
AcDbEntity
8
0
100
AcDbSpline
70
0
71
2
72
6
73
3
74
0
42
0.000000001
43
0.0000000001
44
0.0000000001
40
0
40
0
40
0
40
1
40
1
40
1
10
-60.245571136474609
20
140.1500678062439
30
0
10
-60.245571136474609
20
138.06275606155396
30
0
10
-59.35880184173584
20
137.04638481140137
30
0
0
SPLINE
5
439
100
AcDbEntity
8
0
100
AcDbSpline
70
0
71
2
72
6
73
3
74
0
42
0.000000001
43
0.0000000001
44
0.0000000001
40
0
40
0
40
0
40
1
40
1
40
1
10
-59.35880184173584
20
137.04638481140137
30
0
10
-58.472037315368652
20
136.03001356124878
30
0
10
-57.032747268676758
20
136.03001356124878
30
0
0
SPLINE
5
440
100
AcDbEntity
8
0
100
AcDbSpline
70
0
71
2
72
6
73
3
74
0
42
0.000000001
43
0.0000000001
44
0.0000000001
40
0
40
0
40
0
40
1
40
1
40
1
10
-57.032747268676758
20
136.03001356124878
30
0
10
-54.686222076416016
20
136.03001356124878
30
0
10
-54.099593162536621
20
138.5743522644043
30
0
0
LINE
5
441
100
AcDbEntity
8
0
100
AcDbLine
10
-54.099593162536621
20
138.5743522644043
30
0
11
-52.789907455444336
21
138.24010848999023
31
0
0
SPLINE
5
442
100
AcDbEntity
8
0
100
AcDbSpline
70
0
71
2
72
6
73
3
74
0
42
0.000000001
43
0.0000000001
44
0.0000000001
40
0
40
0
40
0
40
1
40
1
40
1
10
-64.017739295959473
20
145.19781708717346
30
0
10
-63.240113258361816
20
145.19781708717346
30
0
10
-62.687587738037109
20
144.63847160339355
30
0
0
SPLINE
5
443
100
AcDbEntity
8
0
100
AcDbSpline
70
0
71
2
72
6
73
3
74
0
42
0.000000001
43
0.0000000001
44
0.0000000001
40
0
40
0
40
0
40
1
40
1
40
1
10
-62.687587738037109
20
144.63847160339355
30
0
10
-62.135062217712402
20
144.08594787120819
30
0
10
-62.135062217712402
20
143.30832123756409
30
0
0
SPLINE
5
444
100
AcDbEntity
8
0
100
AcDbSpline
70
0
71
2
72
6
73
3
74
0
42
0.000000001
43
0.0000000001
44
0.0000000001
40
0
40
0
40
0
40
1
40
1
40
1
10
-62.135062217712402
20
143.30832123756409
30
0
10
-62.135062217712402
20
142.52387404441833
30
0
10
-62.694411277770996
20
141.96452915668488
30
0
0
SPLINE
5
445
100
AcDbEntity
8
0
100
AcDbSpline
70
0
71
2
72
6
73
3
74
0
42
0.000000001
43
0.0000000001
44
0.0000000001
40
0
40
0
40
0
40
1
40
1
40
1
10
-62.694411277770996
20
141.96452915668488
30
0
10
-63.246932029724121
20
141.41200482845306
30
0
10
-64.017739295959473
20
141.41200482845306
30
0
0
SPLINE
5
446
100
AcDbEntity
8
0
100
AcDbSpline
70
0
71
2
72
6
73
3
74
0
42
0.000000001
43
0.0000000001
44
0.0000000001
40
0
40
0
40
0
40
1
40
1
40
1
10
-64.017739295959473
20
141.41200482845306
30
0
10
-64.795365333557129
20
141.41200482845306
30
0
10
-65.354709625244141
20
141.96452915668488
30
0
0
SPLINE
5
447
100
AcDbEntity
8
0
100
AcDbSpline
70
0
71
2
72
6
73
3
74
0
42
0.000000001
43
0.0000000001
44
0.0000000001
40
0
40
0
40
0
40
1
40
1
40
1
10
-65.354709625244141
20
141.96452915668488
30
0
10
-65.907235145568848
20
142.52387404441833
30
0
10
-65.907235145568848
20
143.30832123756409
30
0
0
SPLINE
5
448
100
AcDbEntity
8
0
100
AcDbSpline
70
0
71
2
72
6
73
3
74
0
42
0.000000001
43
0.0000000001
44
0.0000000001
40
0
40
0
40
0
40
1
40
1
40
1
10
-65.907235145568848
20
143.30832123756409
30
0
10
-65.907235145568848
20
144.09276902675629
30
0
10
-65.354709625244141
20
144.64529275894165
30
0
0
SPLINE
5
449
100
AcDbEntity
8
0
100
AcDbSpline
70
0
71
2
72
6
73
3
74
0
42
0.000000001
43
0.0000000001
44
0.0000000001
40
0
40
0
40
0
40
1
40
1
40
1
10
-65.354709625244141
20
144.64529275894165
30
0
10
-64.802184104919434
20
145.19781708717346
30
0
10
-64.017739295959473
20
145.19781708717346
30
0
0
SPLINE
5
450
100
AcDbEntity
8
0
100
AcDbSpline
70
0
71
2
72
6
73
3
74
0
42
0.000000001
43
0.0000000001
44
0.0000000001
40
0
40
0
40
0
40
1
40
1
40
1
10
-64.017739295959473
20
142.1487033367157
30
0
10
-63.547067642211914
20
142.1487033367157
30
0
10
-63.212828636169434
20
142.48976767063141
30
0
0
SPLINE
5
451
100
AcDbEntity
8
0
100
AcDbSpline
70
0
71
2
72
6
73
3
74
0
42
0.000000001
43
0.0000000001
44
0.0000000001
40
0
40
0
40
0
40
1
40
1
40
1
10
-63.212828636169434
20
142.48976767063141
30
0
10
-62.871761322021484
20
142.83083200454712
30
0
10
-62.871761322021484
20
143.30832123756409
30
0
0
SPLINE
5
452
100
AcDbEntity
8
0
100
AcDbSpline
70
0
71
2
72
6
73
3
74
0
42
0.000000001
43
0.0000000001
44
0.0000000001
40
0
40
0
40
0
40
1
40
1
40
1
10
-62.871761322021484
20
143.30832123756409
30
0
10
-62.871761322021484
20
143.7858110666275
30
0
10
-63.212828636169434
20
144.12005424499512
30
0
0
SPLINE
5
453
100
AcDbEntity
8
0
100
AcDbSpline
70
0
71
2
72
6
73
3
74
0
42
0.000000001
43
0.0000000001
44
0.0000000001
40
0
40
0
40
0
40
1
40
1
40
1
10
-63.212828636169434
20
144.12005424499512
30
0
10
-63.547067642211914
20
144.45429682731628
30
0
10
-64.017739295959473
20
144.45429682731628
30
0
0
SPLINE
5
454
100
AcDbEntity
8
0
100
AcDbSpline
70
0
71
2
72
6
73
3
74
0
42
0.000000001
43
0.0000000001
44
0.0000000001
40
0
40
0
40
0
40
1
40
1
40
1
10
-64.017739295959473
20
144.45429682731628
30
0
10
-64.495229721069336
20
144.45429682731628
30
0
10
-64.829468727111816
20
144.12005424499512
30
0
0
SPLINE
5
455
100
AcDbEntity
8
0
100
AcDbSpline
70
0
71
2
72
6
73
3
74
0
42
0.000000001
43
0.0000000001
44
0.0000000001
40
0
40
0
40
0
40
1
40
1
40
1
10
-64.829468727111816
20
144.12005424499512
30
0
10
-65.163712501525879
20
143.7858110666275
30
0
10
-65.163712501525879
20
143.30832123756409
30
0
0
SPLINE
5
456
100
AcDbEntity
8
0
100
AcDbSpline
70
0
71
2
72
6
73
3
74
0
42
0.000000001
43
0.0000000001
44
0.0000000001
40
0
40
0
40
0
40
1
40
1
40
1
10
-65.163712501525879
20
143.30832123756409
30
0
10
-65.163712501525879
20
142.83083200454712
30
0
10
-64.829468727111816
20
142.48976767063141
30
0
0
SPLINE
5
457
100
AcDbEntity
8
0
100
AcDbSpline
70
0
71
2
72
6
73
3
74
0
42
0.000000001
43
0.0000000001
44
0.0000000001
40
0
40
0
40
0
40
1
40
1
40
1
10
-64.829468727111816
20
142.48976767063141
30
0
10
-64.495229721069336
20
142.1487033367157
30
0
10
-64.017739295959473
20
142.1487033367157
30
0
0
LINE
5
458
100
AcDbEntity
8
0
100
AcDbLine
10
-38.997273445129395
20
136.2824010848999
30
0
11
-39.63165283203125
21
135.40245532989502
31
0
0
SPLINE
5
459
100
AcDbEntity
8
0
100
AcDbSpline
70
0
71
2
72
6
73
3
74
0
42
0.000000001
43
0.0000000001
44
0.0000000001
40
0
40
0
40
0
40
1
40
1
40
1
10
-39.63165283203125
20
135.40245532989502
30
0
10
-43.23328971862793
20
137.10095524787903
30
0
10
-44.577083587646484
20
140.42974054813385
30
0
0
LINE
5
460
100
AcDbEntity
8
0
100
AcDbLine
10
-44.577083587646484
20
140.42974054813385
30
0
11
-44.577083587646484
21
134.13369655609131
31
0
0
LINE
5
461
100
AcDbEntity
8
0
100
AcDbLine
10
-44.577083587646484
20
134.13369655609131
30
0
11
-45.634384155273438
21
134.16098237037659
31
0
0
LINE
5
462
100
AcDbEntity
8
0
100
AcDbLine
10
-45.634384155273438
20
134.16098237037659
30
0
11
-45.634384155273438
21
140.32060027122498
31
0
0
SPLINE
5
463
100
AcDbEntity
8
0
100
AcDbSpline
70
0
71
2
72
6
73
3
74
0
42
0.000000001
43
0.0000000001
44
0.0000000001
40
0
40
0
40
0
40
1
40
1
40
1
10
-45.634384155273438
20
140.32060027122498
30
0
10
-47.353343963623047
20
137.36698508262634
30
0
10
-50.634384155273438
20
135.44338345527649
30
0
0
LINE
5
464
100
AcDbEntity
8
0
100
AcDbLine
10
-50.634384155273438
20
135.44338345527649
30
0
11
-51.33697509765625
21
136.30968570709229
31
0
0
SPLINE
5
465
100
AcDbEntity
8
0
100
AcDbSpline
70
0
71
2
72
6
73
3
74
0
42
0.000000001
43
0.0000000001
44
0.0000000001
40
0
40
0
40
0
40
1
40
1
40
1
10
-51.33697509765625
20
136.30968570709229
30
0
10
-48.253755569458008
20
138.09004068374634
30
0
10
-46.807641983032227
20
140.5047744512558
30
0
0
LINE
5
466
100
AcDbEntity
8
0
100
AcDbLine
10
-46.807641983032227
20
140.5047744512558
30
0
11
-50.552525520324707
21
140.5047744512558
31
0
0
LINE
5
467
100
AcDbEntity
8
0
100
AcDbLine
10
-50.552525520324707
20
140.5047744512558
30
0
11
-50.552525520324707
21
141.52114570140839
31
0
0
LINE
5
468
100
AcDbEntity
8
0
100
AcDbLine
10
-50.552525520324707
20
141.52114570140839
30
0
11
-45.688953399658203
21
141.52114570140839
31
0
0
LINE
5
469
100
AcDbEntity
8
0
100
AcDbLine
10
-45.688953399658203
20
141.52114570140839
30
0
11
-45.688953399658203
21
143.66302847862244
31
0
0
LINE
5
470
100
AcDbEntity
8
0
100
AcDbLine
10
-45.688953399658203
20
143.66302847862244
30
0
11
-49.645295143127441
21
143.66302847862244
31
0
0
LINE
5
471
100
AcDbEntity
8
0
100
AcDbLine
10
-49.645295143127441
20
143.66302847862244
30
0
11
-49.645295143127441
21
144.67939972877502
31
0
0
LINE
5
472
100
AcDbEntity
8
0
100
AcDbLine
10
-49.645295143127441
20
144.67939972877502
30
0
11
-45.688953399658203
21
144.67939972877502
31
0
0
LINE
5
473
100
AcDbEntity
8
0
100
AcDbLine
10
-45.688953399658203
20
144.67939972877502
30
0
11
-45.688953399658203
21
146.77353382110596
31
0
0
LINE
5
474
100
AcDbEntity
8
0
100
AcDbLine
10
-45.688953399658203
20
146.77353382110596
30
0
11
-44.577083587646484
21
146.77353382110596
31
0
0
LINE
5
475
100
AcDbEntity
8
0
100
AcDbLine
10
-44.577083587646484
20
146.77353382110596
30
0
11
-44.577083587646484
21
144.67939972877502
31
0
0
LINE
5
476
100
AcDbEntity
8
0
100
AcDbLine
10
-44.577083587646484
20
144.67939972877502
30
0
11
-40.66166877746582
21
144.67939972877502
31
0
0
LINE
5
477
100
AcDbEntity
8
0
100
AcDbLine
10
-40.66166877746582
20
144.67939972877502
30
0
11
-40.66166877746582
21
143.66302847862244
31
0
0
LINE
5
478
100
AcDbEntity
8
0
100
AcDbLine
10
-40.66166877746582
20
143.66302847862244
30
0
11
-44.577083587646484
21
143.66302847862244
31
0
0
LINE
5
479
100
AcDbEntity
8
0
100
AcDbLine
10
-44.577083587646484
20
143.66302847862244
30
0
11
-44.577083587646484
21
141.52114570140839
31
0
0
LINE
5
480
100
AcDbEntity
8
0
100
AcDbLine
10
-44.577083587646484
20
141.52114570140839
30
0
11
-39.699864387512207
21
141.52114570140839
31
0
0
LINE
5
481
100
AcDbEntity
8
0
100
AcDbLine
10
-39.699864387512207
20
141.52114570140839
30
0
11
-39.699864387512207
21
140.5047744512558
31
0
0
LINE
5
482
100
AcDbEntity
8
0
100
AcDbLine
10
-39.699864387512207
20
140.5047744512558
30
0
11
-43.540248870849609
21
140.5047744512558
31
0
0
SPLINE
5
483
100
AcDbEntity
8
0
100
AcDbSpline
70
0
71
2
72
6
73
3
74
0
42
0.000000001
43
0.0000000001
44
0.0000000001
40
0
40
0
40
0
40
1
40
1
40
1
10
-43.540248870849609
20
140.5047744512558
30
0
10
-42.169170379638672
20
137.82401084899902
30
0
10
-38.997273445129395
20
136.2824010848999
30
0
0
LINE
5
484
100
AcDbEntity
8
0
100
AcDbLine
10
-25.395641326904297
20
142.18963146209717
30
0
11
-29.317874908447266
21
142.18963146209717
31
0
0
LINE
5
485
100
AcDbEntity
8
0
100
AcDbLine
10
-29.317874908447266
20
142.18963146209717
30
0
11
-29.317874908447266
21
141.35743498802185
31
0
0
LINE
5
486
100
AcDbEntity
8
0
100
AcDbLine
10
-29.317874908447266
20
141.35743498802185
30
0
11
-25.798091888427734
21
141.35743498802185
31
0
0
LINE
5
487
100
AcDbEntity
8
0
100
AcDbLine
10
-25.798091888427734
20
141.35743498802185
30
0
11
-25.798091888427734
21
135.72305560112
31
0
0
SPLINE
5
488
100
AcDbEntity
8
0
100
AcDbSpline
70
0
71
2
72
6
73
3
74
0
42
0.000000001
43
0.0000000001
44
0.0000000001
40
0
40
0
40
0
40
1
40
1
40
1
10
-25.798091888427734
20
135.72305560112
30
0
10
-25.798091888427734
20
135.12278318405151
30
0
10
-26.084585189819336
20
134.78171944618225
30
0
0
SPLINE
5
489
100
AcDbEntity
8
0
100
AcDbSpline
70
0
71
2
72
6
73
3
74
0
42
0.000000001
43
0.0000000001
44
0.0000000001
40
0
40
0
40
0
40
1
40
1
40
1
10
-26.084585189819336
20
134.78171944618225
30
0
10
-26.364259719848633
20
134.44065451622009
30
0
10
-26.746253967285156
20
134.42019104957581
30
0
0
SPLINE
5
490
100
AcDbEntity
8
0
100
AcDbSpline
70
0
71
2
72
6
73
3
74
0
42
0.000000001
43
0.0000000001
44
0.0000000001
40
0
40
0
40
0
40
1
40
1
40
1
10
-26.746253967285156
20
134.42019104957581
30
0
10
-27.128238677978516
20
134.39972758293152
30
0
10
-27.980899810791016
20
134.39972758293152
30
0
0
LINE
5
491
100
AcDbEntity
8
0
100
AcDbLine
10
-27.980899810791016
20
134.39972758293152
30
0
11
-28.328790664672852
21
135.4297411441803
31
0
0
LINE
5
492
100
AcDbEntity
8
0
100
AcDbLine
10
-28.328790664672852
20
135.4297411441803
30
0
11
-27.087316513061523
21
135.37517070770264
31
0
0
SPLINE
5
493
100
AcDbEntity
8
0
100
AcDbSpline
70
0
71
2
72
6
73
3
74
0
42
0.000000001
43
0.0000000001
44
0.0000000001
40
0
40
0
40
0
40
1
40
1
40
1
10
-27.087316513061523
20
135.37517070770264
30
0
10
-26.848573684692383
20
135.37517070770264
30
0
10
-26.848573684692383
20
135.64120054244995
30
0
0
LINE
5
494
100
AcDbEntity
8
0
100
AcDbLine
10
-26.848573684692383
20
135.64120054244995
30
0
11
-26.848573684692383
21
140.33424258232117
31
0
0
LINE
5
495
100
AcDbEntity
8
0
100
AcDbLine
10
-26.848573684692383
20
140.33424258232117
30
0
11
-29.317874908447266
21
140.33424258232117
31
0
0
LINE
5
496
100
AcDbEntity
8
0
100
AcDbLine
10
-29.317874908447266
20
140.33424258232117
30
0
11
-29.317874908447266
21
137.77626156806946
31
0
0
LINE
5
497
100
AcDbEntity
8
0
100
AcDbLine
10
-29.317874908447266
20
137.77626156806946
30
0
11
-28.506145477294922
21
137.77626156806946
31
0
0
LINE
5
498
100
AcDbEntity
8
0
100
AcDbLine
10
-28.506145477294922
20
137.77626156806946
30
0
11
-28.506145477294922
21
139.66575741767883
31
0
0
LINE
5
499
100
AcDbEntity
8
0
100
AcDbLine
10
-28.506145477294922
20
139.66575741767883
30
0
11
-27.489776611328125
21
139.66575741767883
31
0
0
LINE
5
500
100
AcDbEntity
8
0
100
AcDbLine
10
-27.489776611328125
20
139.66575741767883
30
0
11
-27.489776611328125
21
136.1459755897522
31
0
0
LINE
5
501
100
AcDbEntity
8
0
100
AcDbLine
10
-27.489776611328125
20
136.1459755897522
30
0
11
-28.506145477294922
21
136.1459755897522
31
0
0
LINE
5
502
100
AcDbEntity
8
0
100
AcDbLine
10
-28.506145477294922
20
136.1459755897522
30
0
11
-28.506145477294922
21
136.74624800682068
31
0
0
LINE
5
503
100
AcDbEntity
8
0
100
AcDbLine
10
-28.506145477294922
20
136.74624800682068
30
0
11
-31.207370758056641
21
136.74624800682068
31
0
0
LINE
5
504
100
AcDbEntity
8
0
100
AcDbLine
10
-31.207370758056641
20
136.74624800682068
30
0
11
-31.207370758056641
21
136.20054602622986
31
0
0
LINE
5
505
100
AcDbEntity
8
0
100
AcDbLine
10
-31.207370758056641
20
136.20054602622986
30
0
11
-32.210097312927246
21
136.20054602622986
31
0
0
LINE
5
506
100
AcDbEntity
8
0
100
AcDbLine
10
-32.210097312927246
20
136.20054602622986
30
0
11
-32.210097312927246
21
139.66575741767883
31
0
0
LINE
5
507
100
AcDbEntity
8
0
100
AcDbLine
10
-32.210097312927246
20
139.66575741767883
30
0
11
-31.207370758056641
21
139.66575741767883
31
0
0
LINE
5
508
100
AcDbEntity
8
0
100
AcDbLine
10
-31.207370758056641
20
139.66575741767883
30
0
11
-31.207370758056641
21
137.77626156806946
31
0
0
LINE
5
509
100
AcDbEntity
8
0
100
AcDbLine
10
-31.207370758056641
20
137.77626156806946
30
0
11
-30.395636558532715
21
137.77626156806946
31
0
0
LINE
5
510
100
AcDbEntity
8
0
100
AcDbLine
10
-30.395636558532715
20
137.77626156806946
30
0
11
-30.395636558532715
21
140.34788489341736
31
0
0
LINE
5
511
100
AcDbEntity
8
0
100
AcDbLine
10
-30.395636558532715
20
140.34788489341736
30
0
11
-32.912693023681641
21
140.34788489341736
31
0
0
LINE
5
512
100
AcDbEntity
8
0
100
AcDbLine
10
-32.912693023681641
20
140.34788489341736
30
0
11
-32.92633056640625
21
134.24283742904663
31
0
0
LINE
5
513
100
AcDbEntity
8
0
100
AcDbLine
10
-32.92633056640625
20
134.24283742904663
30
0
11
-33.969988822937012
21
134.24283742904663
31
0
0
LINE
5
514
100
AcDbEntity
8
0
100
AcDbLine
10
-33.969988822937012
20
134.24283742904663
30
0
11
-33.969988822937012
21
141.35743498802185
31
0
0
LINE
5
515
100
AcDbEntity
8
0
100
AcDbLine
10
-33.969988822937012
20
141.35743498802185
30
0
11
-30.395636558532715
21
141.35743498802185
31
0
0
LINE
5
516
100
AcDbEntity
8
0
100
AcDbLine
10
-30.395636558532715
20
141.35743498802185
30
0
11
-30.395636558532715
21
142.18963146209717
31
0
0
LINE
5
517
100
AcDbEntity
8
0
100
AcDbLine
10
-30.395636558532715
20
142.18963146209717
30
0
11
-34.379267692565918
21
142.18963146209717
31
0
0
LINE
5
518
100
AcDbEntity
8
0
100
AcDbLine
10
-34.379267692565918
20
142.18963146209717
30
0
11
-34.379267692565918
21
143.21282386779785
31
0
0
LINE
5
519
100
AcDbEntity
8
0
100
AcDbLine
10
-34.379267692565918
20
143.21282386779785
30
0
11
-32.25102424621582
21
143.21282386779785
31
0
0
LINE
5
520
100
AcDbEntity
8
0
100
AcDbLine
10
-32.25102424621582
20
143.21282386779785
30
0
11
-32.25102424621582
21
144.55661654472351
31
0
0
LINE
5
521
100
AcDbEntity
8
0
100
AcDbLine
10
-32.25102424621582
20
144.55661654472351
30
0
11
-34.08595085144043
21
144.55661654472351
31
0
0
LINE
5
522
100
AcDbEntity
8
0
100
AcDbLine
10
-34.08595085144043
20
144.55661654472351
30
0
11
-34.08595085144043
21
145.5729877948761
31
0
0
LINE
5
523
100
AcDbEntity
8
0
100
AcDbLine
10
-34.08595085144043
20
145.5729877948761
30
0
11
-32.25102424621582
21
145.5729877948761
31
0
0
LINE
5
524
100
AcDbEntity
8
0
100
AcDbLine
10
-32.25102424621582
20
145.5729877948761
30
0
11
-32.25102424621582
21
146.63710832595825
31
0
0
LINE
5
525
100
AcDbEntity
8
0
100
AcDbLine
10
-32.25102424621582
20
146.63710832595825
30
0
11
-31.207370758056641
21
146.63710832595825
31
0
0
LINE
5
526
100
AcDbEntity
8
0
100
AcDbLine
10
-31.207370758056641
20
146.63710832595825
30
0
11
-31.207370758056641
21
145.5729877948761
31
0
0
LINE
5
527
100
AcDbEntity
8
0
100
AcDbLine
10
-31.207370758056641
20
145.5729877948761
30
0
11
-28.567533493041992
21
145.5729877948761
31
0
0
LINE
5
528
100
AcDbEntity
8
0
100
AcDbLine
10
-28.567533493041992
20
145.5729877948761
30
0
11
-28.567533493041992
21
146.63710832595825
31
0
0
LINE
5
529
100
AcDbEntity
8
0
100
AcDbLine
10
-28.567533493041992
20
146.63710832595825
30
0
11
-27.517051696777344
21
146.63710832595825
31
0
0
LINE
5
530
100
AcDbEntity
8
0
100
AcDbLine
10
-27.517051696777344
20
146.63710832595825
30
0
11
-27.517051696777344
21
145.5729877948761
31
0
0
LINE
5
531
100
AcDbEntity
8
0
100
AcDbLine
10
-27.517051696777344
20
145.5729877948761
30
0
11
-25.504779815673828
21
145.5729877948761
31
0
0
LINE
5
532
100
AcDbEntity
8
0
100
AcDbLine
10
-25.504779815673828
20
145.5729877948761
30
0
11
-25.504779815673828
21
144.55661654472351
31
0
0
LINE
5
533
100
AcDbEntity
8
0
100
AcDbLine
10
-25.504779815673828
20
144.55661654472351
30
0
11
-27.517051696777344
21
144.55661654472351
31
0
0
LINE
5
534
100
AcDbEntity
8
0
100
AcDbLine
10
-27.517051696777344
20
144.55661654472351
30
0
11
-27.517051696777344
21
143.21282386779785
31
0
0
LINE
5
535
100
AcDbEntity
8
0
100
AcDbLine
10
-27.517051696777344
20
143.21282386779785
30
0
11
-25.395641326904297
21
143.21282386779785
31
0
0
LINE
5
536
100
AcDbEntity
8
0
100
AcDbLine
10
-25.395641326904297
20
143.21282386779785
30
0
11
-25.395641326904297
21
142.18963146209717
31
0
0
LINE
5
537
100
AcDbEntity
8
0
100
AcDbLine
10
-28.567533493041992
20
143.21282386779785
30
0
11
-28.567533493041992
21
144.55661654472351
31
0
0
LINE
5
538
100
AcDbEntity
8
0
100
AcDbLine
10
-28.567533493041992
20
144.55661654472351
30
0
11
-31.207370758056641
21
144.55661654472351
31
0
0
LINE
5
539
100
AcDbEntity
8
0
100
AcDbLine
10
-31.207370758056641
20
144.55661654472351
30
0
11
-31.207370758056641
21
143.21282386779785
31
0
0
LINE
5
540
100
AcDbEntity
8
0
100
AcDbLine
10
-31.207370758056641
20
143.21282386779785
30
0
11
-28.567533493041992
21
143.21282386779785
31
0
0
LINE
5
541
100
AcDbEntity
8
0
100
AcDbLine
10
-34.304232597351074
20
144.65211451053619
30
0
11
-35.034112930297852
21
143.96998643875122
31
0
0
SPLINE
5
542
100
AcDbEntity
8
0
100
AcDbSpline
70
0
71
2
72
6
73
3
74
0
42
0.000000001
43
0.0000000001
44
0.0000000001
40
0
40
0
40
0
40
1
40
1
40
1
10
-35.034112930297852
20
143.96998643875122
30
0
10
-35.798091888427734
20
145.02046346664429
30
0
10
-36.978178024291992
20
145.65484404563904
30
0
0
LINE
5
543
100
AcDbEntity
8
0
100
AcDbLine
10
-36.978178024291992
20
145.65484404563904
30
0
11
-36.330156326293945
21
146.34379267692566
31
0
0
SPLINE
5
544
100
AcDbEntity
8
0
100
AcDbSpline
70
0
71
2
72
6
73
3
74
0
42
0.000000001
43
0.0000000001
44
0.0000000001
40
0
40
0
40
0
40
1
40
1
40
1
10
-36.330156326293945
20
146.34379267692566
30
0
10
-35.068216323852539
20
145.69577097892761
30
0
10
-34.304232597351074
20
144.65211451053619
30
0
0
LINE
5
545
100
AcDbEntity
8
0
100
AcDbLine
10
-34.849934577941895
20
141.81446075439453
30
0
11
-35.593452453613281
21
141.06411993503571
31
0
0
SPLINE
5
546
100
AcDbEntity
8
0
100
AcDbSpline
70
0
71
2
72
6
73
3
74
0
42
0.000000001
43
0.0000000001
44
0.0000000001
40
0
40
0
40
0
40
1
40
1
40
1
10
-35.593452453613281
20
141.06411993503571
30
0
10
-36.323332786560059
20
142.14870393276215
30
0
10
-37.517056465148926
20
142.90586590766907
30
0
0
LINE
5
547
100
AcDbEntity
8
0
100
AcDbLine
10
-37.517056465148926
20
142.90586590766907
30
0
11
-36.848573684692383
21
143.57435166835785
31
0
0
SPLINE
5
548
100
AcDbEntity
8
0
100
AcDbSpline
70
0
71
2
72
6
73
3
74
0
42
0.000000001
43
0.0000000001
44
0.0000000001
40
0
40
0
40
0
40
1
40
1
40
1
10
-36.848573684692383
20
143.57435166835785
30
0
10
-35.641202926635742
20
142.89904475212097
30
0
10
-34.849934577941895
20
141.81446075439453
30
0
0
SPLINE
5
549
100
AcDbEntity
8
0
100
AcDbSpline
70
0
71
2
72
6
73
3
74
0
42
0.000000001
43
0.0000000001
44
0.0000000001
40
0
40
0
40
0
40
1
40
1
40
1
10
-34.406552314758301
20
139.48158264160156
30
0
10
-35.347890853881836
20
136.10504746437073
30
0
10
-36.930427551269531
20
134.48158264160156
30
0
0
LINE
5
550
100
AcDbEntity
8
0
100
AcDbLine
10
-36.930427551269531
20
134.48158264160156
30
0
11
-37.742156982421875
21
135.13642549514771
31
0
0
SPLINE
5
551
100
AcDbEntity
8
0
100
AcDbSpline
70
0
71
2
72
6
73
3
74
0
42
0.000000001
43
0.0000000001
44
0.0000000001
40
0
40
0
40
0
40
1
40
1
40
1
10
-37.742156982421875
20
135.13642549514771
30
0
10
-35.954980850219727
20
137.19645261764526
30
0
10
-35.300140380859375
20
139.8567533493042
30
0
0
LINE
5
552
100
AcDbEntity
8
0
100
AcDbLine
10
-35.300140380859375
20
139.8567533493042
30
0
11
-34.406552314758301
21
139.48158264160156
31
0
0
LINE
5
553
100
AcDbEntity
8
0
100
AcDbLine
10
-96.773533821105957
20
119.37244117259979
30
0
11
-106.26875847578049
21
119.37244117259979
31
0
0
SPLINE
5
554
100
AcDbEntity
8
0
100
AcDbSpline
70
0
71
2
72
6
73
3
74
0
42
0.000000001
43
0.0000000001
44
0.0000000001
40
0
40
0
40
0
40
1
40
1
40
1
10
-106.26875847578049
20
119.37244117259979
30
0
10
-107.05320596694946
20
116.82810306549072
30
0
10
-108.64256486296654
20
115.15006721019745
30
0
0
LINE
5
555
100
AcDbEntity
8
0
100
AcDbLine
10
-108.64256486296654
20
115.15006721019745
30
0
11
-109.49522510170937
21
115.82537412643433
31
0
0
SPLINE
5
556
100
AcDbEntity
8
0
100
AcDbSpline
70
0
71
2
72
6
73
3
74
0
42
0.000000001
43
0.0000000001
44
0.0000000001
40
0
40
0
40
0
40
1
40
1
40
1
10
-109.49522510170937
20
115.82537412643433
30
0
10
-107.22373783588409
20
118.45838904380798
30
0
10
-106.88267379999161
20
121.98499202728271
30
0
0
LINE
5
557
100
AcDbEntity
8
0
100
AcDbLine
10
-106.88267379999161
20
121.98499202728271
30
0
11
-105.87994545698166
21
121.50750160217285
31
0
0
SPLINE
5
558
100
AcDbEntity
8
0
100
AcDbSpline
70
0
71
2
72
6
73
3
74
0
42
0.000000001
43
0.0000000001
44
0.0000000001
40
0
40
0
40
0
40
1
40
1
40
1
10
-105.87994545698166
20
121.50750160217285
30
0
10
-105.90040922164917
20
120.95497846603394
30
0
10
-106.01637095212936
20
120.38881182670593
30
0
0
LINE
5
559
100
AcDbEntity
8
0
100
AcDbLine
10
-106.01637095212936
20
120.38881182670593
30
0
11
-96.773533821105957
21
120.38881182670593
31
0
0
LINE
5
560
100
AcDbEntity
8
0
100
AcDbLine
10
-96.773533821105957
20
120.38881182670593
30
0
11
-96.773533821105957
21
119.37244117259979
31
0
0
LINE
5
561
100
AcDbEntity
8
0
100
AcDbLine
10
-97.933151721954346
20
117.34652042388916
30
0
11
-106.46657556295395
21
117.34652042388916
31
0
0
LINE
5
562
100
AcDbEntity
8
0
100
AcDbLine
10
-106.46657556295395
20
117.34652042388916
30
0
11
-106.46657556295395
21
118.36971282958984
31
0
0
LINE
5
563
100
AcDbEntity
8
0
100
AcDbLine
10
-106.46657556295395
20
118.36971282958984
30
0
11
-97.933151721954346
21
118.36971282958984
31
0
0
LINE
5
564
100
AcDbEntity
8
0
100
AcDbLine
10
-97.933151721954346
20
118.36971282958984
30
0
11
-97.933151721954346
21
117.34652042388916
31
0
0
SPLINE
5
565
100
AcDbEntity
8
0
100
AcDbSpline
70
0
71
2
72
6
73
3
74
0
42
0.000000001
43
0.0000000001
44
0.0000000001
40
0
40
0
40
0
40
1
40
1
40
1
10
-96.548430919647217
20
111.98499321937561
30
0
10
-96.98499321937561
20
109.2837655544281
30
0
10
-97.987722158432007
20
109.2837655544281
30
0
0
SPLINE
5
566
100
AcDbEntity
8
0
100
AcDbSpline
70
0
71
2
72
6
73
3
74
0
42
0.000000001
43
0.0000000001
44
0.0000000001
40
0
40
0
40
0
40
1
40
1
40
1
10
-97.987722158432007
20
109.2837655544281
30
0
10
-98.778990507125854
20
109.2837655544281
30
0
10
-99.59754467010498
20
110.90040922164917
30
0
0
SPLINE
5
567
100
AcDbEntity
8
0
100
AcDbSpline
70
0
71
2
72
6
73
3
74
0
42
0.000000001
43
0.0000000001
44
0.0000000001
40
0
40
0
40
0
40
1
40
1
40
1
10
-99.59754467010498
20
110.90040922164917
30
0
10
-100.41609823703766
20
112.52387404441833
30
0
10
-100.45702636241913
20
115.41609764099121
30
0
0
LINE
5
568
100
AcDbEntity
8
0
100
AcDbLine
10
-100.45702636241913
20
115.41609764099121
30
0
11
-107.41473376750946
21
115.41609764099121
31
0
0
LINE
5
569
100
AcDbEntity
8
0
100
AcDbLine
10
-107.41473376750946
20
115.41609764099121
30
0
11
-107.41473376750946
21
116.43929004669189
31
0
0
LINE
5
570
100
AcDbEntity
8
0
100
AcDbLine
10
-107.41473376750946
20
116.43929004669189
30
0
11
-99.338335990905762
21
116.43929004669189
31
0
0
SPLINE
5
571
100
AcDbEntity
8
0
100
AcDbSpline
70
0
71
2
72
6
73
3
74
0
42
0.000000001
43
0.0000000001
44
0.0000000001
40
0
40
0
40
0
40
1
40
1
40
1
10
-99.338335990905762
20
116.43929004669189
30
0
10
-99.440654516220093
20
112.97407865524292
30
0
10
-98.78581166267395
20
111.7189633846283
30
0
0
SPLINE
5
572
100
AcDbEntity
8
0
100
AcDbSpline
70
0
71
2
72
6
73
3
74
0
42
0.000000001
43
0.0000000001
44
0.0000000001
40
0
40
0
40
0
40
1
40
1
40
1
10
-98.78581166267395
20
111.7189633846283
30
0
10
-98.124147653579712
20
110.47066807746887
30
0
10
-97.933151721954346
20
110.47066807746887
30
0
0
SPLINE
5
573
100
AcDbEntity
8
0
100
AcDbSpline
70
0
71
2
72
6
73
3
74
0
42
0.000000001
43
0.0000000001
44
0.0000000001
40
0
40
0
40
0
40
1
40
1
40
1
10
-97.933151721954346
20
110.47066807746887
30
0
10
-97.892223596572876
20
110.47066807746887
30
0
10
-97.742155790328979
20
111.1391544342041
30
0
0
SPLINE
5
574
100
AcDbEntity
8
0
100
AcDbSpline
70
0
71
2
72
6
73
3
74
0
42
0.000000001
43
0.0000000001
44
0.0000000001
40
0
40
0
40
0
40
1
40
1
40
1
10
-97.742155790328979
20
111.1391544342041
30
0
10
-97.592087984085083
20
111.81446075439453
30
0
10
-97.564802169799805
20
112.40109086036682
30
0
0
LINE
5
575
100
AcDbEntity
8
0
100
AcDbLine
10
-97.564802169799805
20
112.40109086036682
30
0
11
-96.548430919647217
21
111.98499321937561
31
0
0
SPLINE
5
576
100
AcDbEntity
8
0
100
AcDbSpline
70
0
71
2
72
6
73
3
74
0
42
0.000000001
43
0.0000000001
44
0.0000000001
40
0
40
0
40
0
40
1
40
1
40
1
10
-100.9208732843399
20
114.22919511795044
30
0
10
-101.61664426326752
20
113.30150008201599
30
0
10
-102.97407925128937
20
112.08049058914185
30
0
0
SPLINE
5
577
100
AcDbEntity
8
0
100
AcDbSpline
70
0
71
2
72
6
73
3
74
0
42
0.000000001
43
0.0000000001
44
0.0000000001
40
0
40
0
40
0
40
1
40
1
40
1
10
-102.97407925128937
20
112.08049058914185
30
0
10
-102.08049118518829
20
111.24147295951843
30
0
10
-101.04365646839142
20
109.84311103820801
30
0
0
LINE
5
578
100
AcDbEntity
8
0
100
AcDbLine
10
-101.04365646839142
20
109.84311103820801
30
0
11
-101.99181437492371
21
109.24283742904663
31
0
0
SPLINE
5
579
100
AcDbEntity
8
0
100
AcDbSpline
70
0
71
2
72
6
73
3
74
0
42
0.000000001
43
0.0000000001
44
0.0000000001
40
0
40
0
40
0
40
1
40
1
40
1
10
-101.99181437492371
20
109.24283742904663
30
0
10
-102.93997287750244
20
110.40245532989502
30
0
10
-103.78581166267395
20
111.2824010848999
30
0
0
SPLINE
5
580
100
AcDbEntity
8
0
100
AcDbSpline
70
0
71
2
72
6
73
3
74
0
42
0.000000001
43
0.0000000001
44
0.0000000001
40
0
40
0
40
0
40
1
40
1
40
1
10
-103.78581166267395
20
111.2824010848999
30
0
10
-104.2905867099762
20
110.77080488204956
30
0
10
-104.80218291282654
20
110.41609764099121
30
0
0
SPLINE
5
581
100
AcDbEntity
8
0
100
AcDbSpline
70
0
71
2
72
6
73
3
74
0
42
0.000000001
43
0.0000000001
44
0.0000000001
40
0
40
0
40
0
40
1
40
1
40
1
10
-104.80218291282654
20
110.41609764099121
30
0
10
-105.31377881765366
20
110.06821274757385
30
0
10
-105.94133675098419
20
109.74761247634888
30
0
0
SPLINE
5
582
100
AcDbEntity
8
0
100
AcDbSpline
70
0
71
2
72
6
73
3
74
0
42
0.000000001
43
0.0000000001
44
0.0000000001
40
0
40
0
40
0
40
1
40
1
40
1
10
-105.94133675098419
20
109.74761247634888
30
0
10
-106.56889498233795
20
109.42019104957581
30
0
10
-106.9713506102562
20
109.20191049575806
30
0
0
LINE
5
583
100
AcDbEntity
8
0
100
AcDbLine
10
-106.9713506102562
20
109.20191049575806
30
0
11
-107.72169172763824
21
110.06821274757385
31
0
0
SPLINE
5
584
100
AcDbEntity
8
0
100
AcDbSpline
70
0
71
2
72
6
73
3
74
0
42
0.000000001
43
0.0000000001
44
0.0000000001
40
0
40
0
40
0
40
1
40
1
40
1
10
-107.72169172763824
20
110.06821274757385
30
0
10
-105.8185538649559
20
110.92769384384155
30
0
10
-104.50886785984039
20
112.03956365585327
30
0
0
SPLINE
5
585
100
AcDbEntity
8
0
100
AcDbSpline
70
0
71
2
72
6
73
3
74
0
42
0.000000001
43
0.0000000001
44
0.0000000001
40
0
40
0
40
0
40
1
40
1
40
1
10
-104.50886785984039
20
112.03956365585327
30
0
10
-106.37107759714127
20
113.7175989151001
30
0
10
-106.82810366153717
20
113.99044990539551
30
0
0
LINE
5
586
100
AcDbEntity
8
0
100
AcDbLine
10
-106.82810366153717
20
113.99044990539551
30
0
11
-106.14597529172897
21
114.74761247634888
31
0
0
SPLINE
5
587
100
AcDbEntity
8
0
100
AcDbSpline
70
0
71
2
72
6
73
3
74
0
42
0.000000001
43
0.0000000001
44
0.0000000001
40
0
40
0
40
0
40
1
40
1
40
1
10
-106.14597529172897
20
114.74761247634888
30
0
10
-104.57708060741425
20
113.60845804214478
30
0
10
-103.81309688091278
20
112.89222359657288
30
0
0
SPLINE
5
588
100
AcDbEntity
8
0
100
AcDbSpline
70
0
71
2
72
6
73
3
74
0
42
0.000000001
43
0.0000000001
44
0.0000000001
40
0
40
0
40
0
40
1
40
1
40
1
10
-103.81309688091278
20
112.89222359657288
30
0
10
-102.39427030086517
20
114.02455568313599
30
0
10
-101.84174656867981
20
114.87721681594849
30
0
0
LINE
5
589
100
AcDbEntity
8
0
100
AcDbLine
10
-101.84174656867981
20
114.87721681594849
30
0
11
-100.9208732843399
21
114.22919511795044
31
0
0
LINE
5
590
100
AcDbEntity
8
0
100
AcDbLine
10
-91.364257335662842
20
119.05184268951416
30
0
11
-92.203273773193359
21
118.26739490032196
31
0
0
SPLINE
5
591
100
AcDbEntity
8
0
100
AcDbSpline
70
0
71
2
72
6
73
3
74
0
42
0.000000001
43
0.0000000001
44
0.0000000001
40
0
40
0
40
0
40
1
40
1
40
1
10
-92.203273773193359
20
118.26739490032196
30
0
10
-92.905867099761963
20
119.50886845588684
30
0
10
-94.563437700271606
20
120.29331564903259
30
0
0
LINE
5
592
100
AcDbEntity
8
0
100
AcDbLine
10
-94.563437700271606
20
120.29331564903259
30
0
11
-93.806276321411133
21
120.97544431686401
31
0
0
SPLINE
5
593
100
AcDbEntity
8
0
100
AcDbSpline
70
0
71
2
72
6
73
3
74
0
42
0.000000001
43
0.0000000001
44
0.0000000001
40
0
40
0
40
0
40
1
40
1
40
1
10
-93.806276321411133
20
120.97544431686401
30
0
10
-92.019100189208984
20
120.18417596817017
30
0
10
-91.364257335662842
20
119.05184268951416
30
0
0
LINE
5
594
100
AcDbEntity
8
0
100
AcDbLine
10
-84.50204610824585
20
115.40245592594147
30
0
11
-91.070941686630249
21
115.40245592594147
31
0
0
LINE
5
595
100
AcDbEntity
8
0
100
AcDbLine
10
-91.070941686630249
20
115.40245592594147
30
0
11
-91.070941686630249
21
120.78444838523865
31
0
0
LINE
5
596
100
AcDbEntity
8
0
100
AcDbLine
10
-91.070941686630249
20
120.78444838523865
30
0
11
-84.50204610824585
21
120.78444838523865
31
0
0
LINE
5
597
100
AcDbEntity
8
0
100
AcDbLine
10
-84.50204610824585
20
120.78444838523865
30
0
11
-84.50204610824585
21
115.40245592594147
31
0
0
LINE
5
598
100
AcDbEntity
8
0
100
AcDbLine
10
-85.566167831420898
20
118.6425656080246
30
0
11
-85.566167831420898
21
119.76125597953796
31
0
0
LINE
5
599
100
AcDbEntity
8
0
100
AcDbLine
10
-85.566167831420898
20
119.76125597953796
30
0
11
-90.006821155548096
21
119.76125597953796
31
0
0
LINE
5
600
100
AcDbEntity
8
0
100
AcDbLine
10
-90.006821155548096
20
119.76125597953796
30
0
11
-90.006821155548096
21
118.6425656080246
31
0
0
LINE
5
601
100
AcDbEntity
8
0
100
AcDbLine
10
-90.006821155548096
20
118.6425656080246
30
0
11
-85.566167831420898
21
118.6425656080246
31
0
0
LINE
5
602
100
AcDbEntity
8
0
100
AcDbLine
10
-85.566167831420898
20
116.42564833164215
30
0
11
-85.566167831420898
21
117.62619435787201
31
0
0
LINE
5
603
100
AcDbEntity
8
0
100
AcDbLine
10
-85.566167831420898
20
117.62619435787201
30
0
11
-90.006821155548096
21
117.62619435787201
31
0
0
LINE
5
604
100
AcDbEntity
8
0
100
AcDbLine
10
-90.006821155548096
20
117.62619435787201
30
0
11
-90.006821155548096
21
116.42564833164215
31
0
0
LINE
5
605
100
AcDbEntity
8
0
100
AcDbLine
10
-90.006821155548096
20
116.42564833164215
30
0
11
-85.566167831420898
21
116.42564833164215
31
0
0
LINE
5
606
100
AcDbEntity
8
0
100
AcDbLine
10
-92.148704528808594
20
116.34379327297211
30
0
11
-92.967257499694824
21
115.55934548377991
31
0
0
SPLINE
5
607
100
AcDbEntity
8
0
100
AcDbSpline
70
0
71
2
72
6
73
3
74
0
42
0.000000001
43
0.0000000001
44
0.0000000001
40
0
40
0
40
0
40
1
40
1
40
1
10
-92.967257499694824
20
115.55934548377991
30
0
10
-93.78581166267395
20
116.73260629177094
30
0
10
-95.525238513946533
20
117.44201958179474
30
0
0
LINE
5
608
100
AcDbEntity
8
0
100
AcDbLine
10
-95.525238513946533
20
117.44201958179474
30
0
11
-94.815825223922729
21
118.18553924560547
31
0
0
SPLINE
5
609
100
AcDbEntity
8
0
100
AcDbSpline
70
0
71
2
72
6
73
3
74
0
42
0.000000001
43
0.0000000001
44
0.0000000001
40
0
40
0
40
0
40
1
40
1
40
1
10
-94.815825223922729
20
118.18553924560547
30
0
10
-93.301501274108887
20
117.72851347923279
30
0
10
-92.148704528808594
20
116.34379327297211
30
0
0
SPLINE
5
610
100
AcDbEntity
8
0
100
AcDbSpline
70
0
71
2
72
6
73
3
74
0
42
0.000000001
43
0.0000000001
44
0.0000000001
40
0
40
0
40
0
40
1
40
1
40
1
10
-92.203273773193359
20
114.59754467010498
30
0
10
-92.892223596572876
20
111.04365587234497
30
0
10
-94.467940330505371
20
109.21555280685425
30
0
0
LINE
5
611
100
AcDbEntity
8
0
100
AcDbLine
10
-94.467940330505371
20
109.21555280685425
30
0
11
-95.49795389175415
21
109.77489709854126
31
0
0
SPLINE
5
612
100
AcDbEntity
8
0
100
AcDbSpline
70
0
71
2
72
6
73
3
74
0
42
0.000000001
43
0.0000000001
44
0.0000000001
40
0
40
0
40
0
40
1
40
1
40
1
10
-95.49795389175415
20
109.77489709854126
30
0
10
-93.819918632507324
20
111.64392948150635
30
0
10
-93.110505342483521
20
115.04092812538147
30
0
0
LINE
5
613
100
AcDbEntity
8
0
100
AcDbLine
10
-93.110505342483521
20
115.04092812538147
30
0
11
-92.203273773193359
21
114.59754467010498
31
0
0
LINE
5
614
100
AcDbEntity
8
0
100
AcDbLine
10
-82.858119010925293
20
109.46794033050537
30
0
11
-92.694406509399414
21
109.46794033050537
31
0
0
LINE
5
615
100
AcDbEntity
8
0
100
AcDbLine
10
-92.694406509399414
20
109.46794033050537
30
0
11
-92.694406509399414
21
110.48431158065796
31
0
0
LINE
5
616
100
AcDbEntity
8
0
100
AcDbLine
10
-92.694406509399414
20
110.48431158065796
30
0
11
-91.780354976654053
21
110.48431158065796
31
0
0
LINE
5
617
100
AcDbEntity
8
0
100
AcDbLine
10
-91.780354976654053
20
110.48431158065796
30
0
11
-91.780354976654053
21
114.5634388923645
31
0
0
LINE
5
618
100
AcDbEntity
8
0
100
AcDbLine
10
-91.780354976654053
20
114.5634388923645
30
0
11
-83.792634010314941
21
114.5634388923645
31
0
0
LINE
5
619
100
AcDbEntity
8
0
100
AcDbLine
10
-83.792634010314941
20
114.5634388923645
30
0
11
-83.792634010314941
21
110.48431158065796
31
0
0
LINE
5
620
100
AcDbEntity
8
0
100
AcDbLine
10
-83.792634010314941
20
110.48431158065796
30
0
11
-82.858119010925293
21
110.48431158065796
31
0
0
LINE
5
621
100
AcDbEntity
8
0
100
AcDbLine
10
-82.858119010925293
20
110.48431158065796
30
0
11
-82.858119010925293
21
109.46794033050537
31
0
0
LINE
5
622
100
AcDbEntity
8
0
100
AcDbLine
10
-84.856753349304199
20
110.48431158065796
30
0
11
-84.856753349304199
21
113.54706764221191
31
0
0
LINE
5
623
100
AcDbEntity
8
0
100
AcDbLine
10
-84.856753349304199
20
113.54706764221191
30
0
11
-86.111869812011719
21
113.54706764221191
31
0
0
LINE
5
624
100
AcDbEntity
8
0
100
AcDbLine
10
-86.111869812011719
20
113.54706764221191
30
0
11
-86.111869812011719
21
110.48431158065796
31
0
0
LINE
5
625
100
AcDbEntity
8
0
100
AcDbLine
10
-86.111869812011719
20
110.48431158065796
30
0
11
-84.856753349304199
21
110.48431158065796
31
0
0
LINE
5
626
100
AcDbEntity
8
0
100
AcDbLine
10
-87.175989151000977
20
110.48431158065796
30
0
11
-87.175989151000977
21
113.54706764221191
31
0
0
LINE
5
627
100
AcDbEntity
8
0
100
AcDbLine
10
-87.175989151000977
20
113.54706764221191
30
0
11
-88.417463302612305
21
113.54706764221191
31
0
0
LINE
5
628
100
AcDbEntity
8
0
100
AcDbLine
10
-88.417463302612305
20
113.54706764221191
30
0
11
-88.417463302612305
21
110.48431158065796
31
0
0
LINE
5
629
100
AcDbEntity
8
0
100
AcDbLine
10
-88.417463302612305
20
110.48431158065796
30
0
11
-87.175989151000977
21
110.48431158065796
31
0
0
LINE
5
630
100
AcDbEntity
8
0
100
AcDbLine
10
-89.474761486053467
20
110.48431158065796
30
0
11
-89.474761486053467
21
113.54706764221191
31
0
0
LINE
5
631
100
AcDbEntity
8
0
100
AcDbLine
10
-89.474761486053467
20
113.54706764221191
30
0
11
-90.723056793212891
21
113.54706764221191
31
0
0
LINE
5
632
100
AcDbEntity
8
0
100
AcDbLine
10
-90.723056793212891
20
113.54706764221191
30
0
11
-90.723056793212891
21
110.48431158065796
31
0
0
LINE
5
633
100
AcDbEntity
8
0
100
AcDbLine
10
-90.723056793212891
20
110.48431158065796
30
0
11
-89.474761486053467
21
110.48431158065796
31
0
0
LINE
5
634
100
AcDbEntity
8
0
100
AcDbLine
10
-76.855387687683105
20
110.06821274757385
30
0
11
-78.083219528198242
21
110.06821274757385
31
0
0
LINE
5
635
100
AcDbEntity
8
0
100
AcDbLine
10
-78.083219528198242
20
110.06821274757385
30
0
11
-78.083219528198242
21
117.89222359657288
31
0
0
SPLINE
5
636
100
AcDbEntity
8
0
100
AcDbSpline
70
0
71
2
72
6
73
3
74
0
42
0.000000001
43
0.0000000001
44
0.0000000001
40
0
40
0
40
0
40
1
40
1
40
1
10
-78.083219528198242
20
117.89222359657288
30
0
10
-78.526601791381836
20
117.46930420398712
30
0
10
-79.249658584594727
20
117.04638481140137
30
0
0
SPLINE
5
637
100
AcDbEntity
8
0
100
AcDbSpline
70
0
71
2
72
6
73
3
74
0
42
0.000000001
43
0.0000000001
44
0.0000000001
40
0
40
0
40
0
40
1
40
1
40
1
10
-79.249658584594727
20
117.04638481140137
30
0
10
-79.965894222259521
20
116.62346541881561
30
0
10
-80.538880825042725
20
116.41200542449951
30
0
0
LINE
5
638
100
AcDbEntity
8
0
100
AcDbLine
10
-80.538880825042725
20
116.41200542449951
30
0
11
-80.538880825042725
21
117.59890854358673
31
0
0
SPLINE
5
639
100
AcDbEntity
8
0
100
AcDbSpline
70
0
71
2
72
6
73
3
74
0
42
0.000000001
43
0.0000000001
44
0.0000000001
40
0
40
0
40
0
40
1
40
1
40
1
10
-80.538880825042725
20
117.59890854358673
30
0
10
-79.508867263793945
20
118.08321952819824
30
0
10
-78.738062381744385
20
118.77216935157776
30
0
0
SPLINE
5
640
100
AcDbEntity
8
0
100
AcDbSpline
70
0
71
2
72
6
73
3
74
0
42
0.000000001
43
0.0000000001
44
0.0000000001
40
0
40
0
40
0
40
1
40
1
40
1
10
-78.738062381744385
20
118.77216935157776
30
0
10
-77.967257499694824
20
119.46111857891083
30
0
10
-77.646656036376953
20
120.10914087295532
30
0
0
LINE
5
641
100
AcDbEntity
8
0
100
AcDbLine
10
-77.646656036376953
20
120.10914087295532
30
0
11
-76.855387687683105
21
120.10914087295532
31
0
0
LINE
5
642
100
AcDbEntity
8
0
100
AcDbLine
10
-76.855387687683105
20
120.10914087295532
30
0
11
-76.855387687683105
21
110.06821274757385
31
0
0
SPLINE
5
643
100
AcDbEntity
8
0
100
AcDbSpline
70
0
71
2
72
6
73
3
74
0
42
0.000000001
43
0.0000000001
44
0.0000000001
40
0
40
0
40
0
40
1
40
1
40
1
10
-73.710777759552002
20
115
30
0
10
-73.710777759552002
20
116.77353382110596
30
0
10
-73.349249362945557
20
117.85129606723785
30
0
0
SPLINE
5
644
100
AcDbEntity
8
0
100
AcDbSpline
70
0
71
2
72
6
73
3
74
0
42
0.000000001
43
0.0000000001
44
0.0000000001
40
0
40
0
40
0
40
1
40
1
40
1
10
-73.349249362945557
20
117.85129606723785
30
0
10
-72.980899810791016
20
118.93588006496429
30
0
10
-72.264666557312012
20
119.52251017093658
30
0
0
SPLINE
5
645
100
AcDbEntity
8
0
100
AcDbSpline
70
0
71
2
72
6
73
3
74
0
42
0.000000001
43
0.0000000001
44
0.0000000001
40
0
40
0
40
0
40
1
40
1
40
1
10
-72.264666557312012
20
119.52251017093658
30
0
10
-71.541609764099121
20
120.10914087295532
30
0
10
-70.45020580291748
20
120.10914087295532
30
0
0
SPLINE
5
646
100
AcDbEntity
8
0
100
AcDbSpline
70
0
71
2
72
6
73
3
74
0
42
0.000000001
43
0.0000000001
44
0.0000000001
40
0
40
0
40
0
40
1
40
1
40
1
10
-70.45020580291748
20
120.10914087295532
30
0
10
-69.645290374755859
20
120.10914087295532
30
0
10
-69.038200378417969
20
119.78171944618225
30
0
0
SPLINE
5
647
100
AcDbEntity
8
0
100
AcDbSpline
70
0
71
2
72
6
73
3
74
0
42
0.000000001
43
0.0000000001
44
0.0000000001
40
0
40
0
40
0
40
1
40
1
40
1
10
-69.038200378417969
20
119.78171944618225
30
0
10
-68.431105613708496
20
119.46111917495728
30
0
10
-68.035469055175781
20
118.84720325469971
30
0
0
SPLINE
5
648
100
AcDbEntity
8
0
100
AcDbSpline
70
0
71
2
72
6
73
3
74
0
42
0.000000001
43
0.0000000001
44
0.0000000001
40
0
40
0
40
0
40
1
40
1
40
1
10
-68.035469055175781
20
118.84720325469971
30
0
10
-67.639837265014648
20
118.24010908603668
30
0
10
-67.414731979370117
20
117.36016392707825
30
0
0
SPLINE
5
649
100
AcDbEntity
8
0
100
AcDbSpline
70
0
71
2
72
6
73
3
74
0
42
0.000000001
43
0.0000000001
44
0.0000000001
40
0
40
0
40
0
40
1
40
1
40
1
10
-67.414731979370117
20
117.36016392707825
30
0
10
-67.189631462097168
20
116.48703992366791
30
0
10
-67.189631462097168
20
115
30
0
0
SPLINE
5
650
100
AcDbEntity
8
0
100
AcDbSpline
70
0
71
2
72
6
73
3
74
0
42
0.000000001
43
0.0000000001
44
0.0000000001
40
0
40
0
40
0
40
1
40
1
40
1
10
-67.189631462097168
20
115
30
0
10
-67.189631462097168
20
113.24010848999023
30
0
10
-67.551159858703613
20
112.15552568435669
30
0
0
SPLINE
5
651
100
AcDbEntity
8
0
100
AcDbSpline
70
0
71
2
72
6
73
3
74
0
42
0.000000001
43
0.0000000001
44
0.0000000001
40
0
40
0
40
0
40
1
40
1
40
1
10
-67.551159858703613
20
112.15552568435669
30
0
10
-67.912688255310059
20
111.07776284217834
30
0
10
-68.635740280151367
20
110.48431158065796
30
0
0
SPLINE
5
652
100
AcDbEntity
8
0
100
AcDbSpline
70
0
71
2
72
6
73
3
74
0
42
0.000000001
43
0.0000000001
44
0.0000000001
40
0
40
0
40
0
40
1
40
1
40
1
10
-68.635740280151367
20
110.48431158065796
30
0
10
-69.351978302001953
20
109.89768028259277
30
0
10
-70.45020580291748
20
109.89768028259277
30
0
0
SPLINE
5
653
100
AcDbEntity
8
0
100
AcDbSpline
70
0
71
2
72
6
73
3
74
0
42
0.000000001
43
0.0000000001
44
0.0000000001
40
0
40
0
40
0
40
1
40
1
40
1
10
-70.45020580291748
20
109.89768028259277
30
0
10
-71.896317005157471
20
109.89768028259277
30
0
10
-72.721691131591797
20
110.93451499938965
30
0
0
SPLINE
5
654
100
AcDbEntity
8
0
100
AcDbSpline
70
0
71
2
72
6
73
3
74
0
42
0.000000001
43
0.0000000001
44
0.0000000001
40
0
40
0
40
0
40
1
40
1
40
1
10
-72.721691131591797
20
110.93451499938965
30
0
10
-73.710777759552002
20
112.18281030654907
30
0
10
-73.710777759552002
20
115
30
0
0
SPLINE
5
655
100
AcDbEntity
8
0
100
AcDbSpline
70
0
71
2
72
6
73
3
74
0
42
0.000000001
43
0.0000000001
44
0.0000000001
40
0
40
0
40
0
40
1
40
1
40
1
10
-72.448840141296387
20
115
30
0
10
-72.448840141296387
20
112.53751754760742
30
0
10
-71.875853538513184
20
111.7189633846283
30
0
0
SPLINE
5
656
100
AcDbEntity
8
0
100
AcDbSpline
70
0
71
2
72
6
73
3
74
0
42
0.000000001
43
0.0000000001
44
0.0000000001
40
0
40
0
40
0
40
1
40
1
40
1
10
-71.875853538513184
20
111.7189633846283
30
0
10
-71.296043395996094
20
110.90723037719727
30
0
10
-70.45020580291748
20
110.90723037719727
30
0
0
SPLINE
5
657
100
AcDbEntity
8
0
100
AcDbSpline
70
0
71
2
72
6
73
3
74
0
42
0.000000001
43
0.0000000001
44
0.0000000001
40
0
40
0
40
0
40
1
40
1
40
1
10
-70.45020580291748
20
110.90723037719727
30
0
10
-69.604368209838867
20
110.90723037719727
30
0
10
-69.031376838684082
20
111.72578454017639
30
0
0
SPLINE
5
658
100
AcDbEntity
8
0
100
AcDbSpline
70
0
71
2
72
6
73
3
74
0
42
0.000000001
43
0.0000000001
44
0.0000000001
40
0
40
0
40
0
40
1
40
1
40
1
10
-69.031376838684082
20
111.72578454017639
30
0
10
-68.451566696166992
20
112.54433870315552
30
0
10
-68.451566696166992
20
115
30
0
0
SPLINE
5
659
100
AcDbEntity
8
0
100
AcDbSpline
70
0
71
2
72
6
73
3
74
0
42
0.000000001
43
0.0000000001
44
0.0000000001
40
0
40
0
40
0
40
1
40
1
40
1
10
-68.451566696166992
20
115
30
0
10
-68.451566696166992
20
117.46930420398712
30
0
10
-69.031376838684082
20
118.28103721141815
30
0
0
SPLINE
5
660
100
AcDbEntity
8
0
100
AcDbSpline
70
0
71
2
72
6
73
3
74
0
42
0.000000001
43
0.0000000001
44
0.0000000001
40
0
40
0
40
0
40
1
40
1
40
1
10
-69.031376838684082
20
118.28103721141815
30
0
10
-69.604368209838867
20
119.09276962280273
30
0
10
-70.463848114013672
20
119.09276962280273
30
0
0
SPLINE
5
661
100
AcDbEntity
8
0
100
AcDbSpline
70
0
71
2
72
6
73
3
74
0
42
0.000000001
43
0.0000000001
44
0.0000000001
40
0
40
0
40
0
40
1
40
1
40
1
10
-70.463848114013672
20
119.09276962280273
30
0
10
-71.309685707092285
20
119.09276962280273
30
0
10
-71.814460754394531
20
118.37653517723083
30
0
0
SPLINE
5
662
100
AcDbEntity
8
0
100
AcDbSpline
70
0
71
2
72
6
73
3
74
0
42
0.000000001
43
0.0000000001
44
0.0000000001
40
0
40
0
40
0
40
1
40
1
40
1
10
-71.814460754394531
20
118.37653517723083
30
0
10
-72.448840141296387
20
117.46248304843903
30
0
10
-72.448840141296387
20
115
30
0
0
SPLINE
5
663
100
AcDbEntity
8
0
100
AcDbSpline
70
0
71
2
72
6
73
3
74
0
42
0.000000001
43
0.0000000001
44
0.0000000001
40
0
40
0
40
0
40
1
40
1
40
1
10
-52.789907455444336
20
113.24010848999023
30
0
10
-53.226470947265625
20
111.55525207519531
30
0
10
-54.317874908447266
20
110.72305560112
30
0
0
SPLINE
5
664
100
AcDbEntity
8
0
100
AcDbSpline
70
0
71
2
72
6
73
3
74
0
42
0.000000001
43
0.0000000001
44
0.0000000001
40
0
40
0
40
0
40
1
40
1
40
1
10
-54.317874908447266
20
110.72305560112
30
0
10
-55.402460098266602
20
109.89768028259277
30
0
10
-56.923604011535645
20
109.89768028259277
30
0
0
SPLINE
5
665
100
AcDbEntity
8
0
100
AcDbSpline
70
0
71
2
72
6
73
3
74
0
42
0.000000001
43
0.0000000001
44
0.0000000001
40
0
40
0
40
0
40
1
40
1
40
1
10
-56.923604011535645
20
109.89768028259277
30
0
10
-59.372444152832031
20
109.89768028259277
30
0
10
-60.497956275939941
20
111.4324688911438
30
0
0
SPLINE
5
666
100
AcDbEntity
8
0
100
AcDbSpline
70
0
71
2
72
6
73
3
74
0
42
0.000000001
43
0.0000000001
44
0.0000000001
40
0
40
0
40
0
40
1
40
1
40
1
10
-60.497956275939941
20
111.4324688911438
30
0
10
-61.616644859313965
20
112.97407865524292
30
0
10
-61.616644859313965
20
115.13642549514771
30
0
0
SPLINE
5
667
100
AcDbEntity
8
0
100
AcDbSpline
70
0
71
2
72
6
73
3
74
0
42
0.000000001
43
0.0000000001
44
0.0000000001
40
0
40
0
40
0
40
1
40
1
40
1
10
-61.616644859313965
20
115.13642549514771
30
0
10
-61.616644859313965
20
117.53069519996643
30
0
10
-60.300140380859375
20
118.88130903244019
30
0
0
SPLINE
5
668
100
AcDbEntity
8
0
100
AcDbSpline
70
0
71
2
72
6
73
3
74
0
42
0.000000001
43
0.0000000001
44
0.0000000001
40
0
40
0
40
0
40
1
40
1
40
1
10
-60.300140380859375
20
118.88130903244019
30
0
10
-58.976812362670898
20
120.23874402046204
30
0
10
-56.909961700439453
20
120.23874402046204
30
0
0
SPLINE
5
669
100
AcDbEntity
8
0
100
AcDbSpline
70
0
71
2
72
6
73
3
74
0
42
0.000000001
43
0.0000000001
44
0.0000000001
40
0
40
0
40
0
40
1
40
1
40
1
10
-56.909961700439453
20
120.23874402046204
30
0
10
-55.443387031555176
20
120.23874402046204
30
0
10
-54.406552314758301
20
119.49522435665131
30
0
0
SPLINE
5
670
100
AcDbEntity
8
0
100
AcDbSpline
70
0
71
2
72
6
73
3
74
0
42
0.000000001
43
0.0000000001
44
0.0000000001
40
0
40
0
40
0
40
1
40
1
40
1
10
-54.406552314758301
20
119.49522435665131
30
0
10
-53.369712829589844
20
118.75170469284058
30
0
10
-52.953615188598633
20
117.31923580169678
30
0
0
LINE
5
671
100
AcDbEntity
8
0
100
AcDbLine
10
-52.953615188598633
20
117.31923580169678
30
0
11
-54.256482124328613
21
117.01227784156799
31
0
0
SPLINE
5
672
100
AcDbEntity
8
0
100
AcDbSpline
70
0
71
2
72
6
73
3
74
0
42
0.000000001
43
0.0000000001
44
0.0000000001
40
0
40
0
40
0
40
1
40
1
40
1
10
-54.256482124328613
20
117.01227784156799
30
0
10
-54.90450382232666
20
119.10641133785248
30
0
10
-56.923604011535645
20
119.10641133785248
30
0
0
SPLINE
5
673
100
AcDbEntity
8
0
100
AcDbSpline
70
0
71
2
72
6
73
3
74
0
42
0.000000001
43
0.0000000001
44
0.0000000001
40
0
40
0
40
0
40
1
40
1
40
1
10
-56.923604011535645
20
119.10641133785248
30
0
10
-58.560714721679688
20
119.10641133785248
30
0
10
-59.406552314758301
20
118.02864909172058
30
0
0
SPLINE
5
674
100
AcDbEntity
8
0
100
AcDbSpline
70
0
71
2
72
6
73
3
74
0
42
0.000000001
43
0.0000000001
44
0.0000000001
40
0
40
0
40
0
40
1
40
1
40
1
10
-59.406552314758301
20
118.02864909172058
30
0
10
-60.245571136474609
20
116.95770740509033
30
0
10
-60.245571136474609
20
115.1500678062439
30
0
0
SPLINE
5
675
100
AcDbEntity
8
0
100
AcDbSpline
70
0
71
2
72
6
73
3
74
0
42
0.000000001
43
0.0000000001
44
0.0000000001
40
0
40
0
40
0
40
1
40
1
40
1
10
-60.245571136474609
20
115.1500678062439
30
0
10
-60.245571136474609
20
113.06275606155396
30
0
10
-59.35880184173584
20
112.04638481140137
30
0
0
SPLINE
5
676
100
AcDbEntity
8
0
100
AcDbSpline
70
0
71
2
72
6
73
3
74
0
42
0.000000001
43
0.0000000001
44
0.0000000001
40
0
40
0
40
0
40
1
40
1
40
1
10
-59.35880184173584
20
112.04638481140137
30
0
10
-58.472037315368652
20
111.03001356124878
30
0
10
-57.032747268676758
20
111.03001356124878
30
0
0
SPLINE
5
677
100
AcDbEntity
8
0
100
AcDbSpline
70
0
71
2
72
6
73
3
74
0
42
0.000000001
43
0.0000000001
44
0.0000000001
40
0
40
0
40
0
40
1
40
1
40
1
10
-57.032747268676758
20
111.03001356124878
30
0
10
-54.686222076416016
20
111.03001356124878
30
0
10
-54.099593162536621
20
113.5743522644043
30
0
0
LINE
5
678
100
AcDbEntity
8
0
100
AcDbLine
10
-54.099593162536621
20
113.5743522644043
30
0
11
-52.789907455444336
21
113.24010848999023
31
0
0
SPLINE
5
679
100
AcDbEntity
8
0
100
AcDbSpline
70
0
71
2
72
6
73
3
74
0
42
0.000000001
43
0.0000000001
44
0.0000000001
40
0
40
0
40
0
40
1
40
1
40
1
10
-64.017739295959473
20
120.19781708717346
30
0
10
-63.240113258361816
20
120.19781708717346
30
0
10
-62.687587738037109
20
119.63847160339355
30
0
0
SPLINE
5
680
100
AcDbEntity
8
0
100
AcDbSpline
70
0
71
2
72
6
73
3
74
0
42
0.000000001
43
0.0000000001
44
0.0000000001
40
0
40
0
40
0
40
1
40
1
40
1
10
-62.687587738037109
20
119.63847160339355
30
0
10
-62.135062217712402
20
119.08594787120819
30
0
10
-62.135062217712402
20
118.30832123756409
30
0
0
SPLINE
5
681
100
AcDbEntity
8
0
100
AcDbSpline
70
0
71
2
72
6
73
3
74
0
42
0.000000001
43
0.0000000001
44
0.0000000001
40
0
40
0
40
0
40
1
40
1
40
1
10
-62.135062217712402
20
118.30832123756409
30
0
10
-62.135062217712402
20
117.52387404441833
30
0
10
-62.694411277770996
20
116.96452915668488
30
0
0
SPLINE
5
682
100
AcDbEntity
8
0
100
AcDbSpline
70
0
71
2
72
6
73
3
74
0
42
0.000000001
43
0.0000000001
44
0.0000000001
40
0
40
0
40
0
40
1
40
1
40
1
10
-62.694411277770996
20
116.96452915668488
30
0
10
-63.246932029724121
20
116.41200482845306
30
0
10
-64.017739295959473
20
116.41200482845306
30
0
0
SPLINE
5
683
100
AcDbEntity
8
0
100
AcDbSpline
70
0
71
2
72
6
73
3
74
0
42
0.000000001
43
0.0000000001
44
0.0000000001
40
0
40
0
40
0
40
1
40
1
40
1
10
-64.017739295959473
20
116.41200482845306
30
0
10
-64.795365333557129
20
116.41200482845306
30
0
10
-65.354709625244141
20
116.96452915668488
30
0
0
SPLINE
5
684
100
AcDbEntity
8
0
100
AcDbSpline
70
0
71
2
72
6
73
3
74
0
42
0.000000001
43
0.0000000001
44
0.0000000001
40
0
40
0
40
0
40
1
40
1
40
1
10
-65.354709625244141
20
116.96452915668488
30
0
10
-65.907235145568848
20
117.52387404441833
30
0
10
-65.907235145568848
20
118.30832123756409
30
0
0
SPLINE
5
685
100
AcDbEntity
8
0
100
AcDbSpline
70
0
71
2
72
6
73
3
74
0
42
0.000000001
43
0.0000000001
44
0.0000000001
40
0
40
0
40
0
40
1
40
1
40
1
10
-65.907235145568848
20
118.30832123756409
30
0
10
-65.907235145568848
20
119.09276902675629
30
0
10
-65.354709625244141
20
119.64529275894165
30
0
0
SPLINE
5
686
100
AcDbEntity
8
0
100
AcDbSpline
70
0
71
2
72
6
73
3
74
0
42
0.000000001
43
0.0000000001
44
0.0000000001
40
0
40
0
40
0
40
1
40
1
40
1
10
-65.354709625244141
20
119.64529275894165
30
0
10
-64.802184104919434
20
120.19781708717346
30
0
10
-64.017739295959473
20
120.19781708717346
30
0
0
SPLINE
5
687
100
AcDbEntity
8
0
100
AcDbSpline
70
0
71
2
72
6
73
3
74
0
42
0.000000001
43
0.0000000001
44
0.0000000001
40
0
40
0
40
0
40
1
40
1
40
1
10
-64.017739295959473
20
117.1487033367157
30
0
10
-63.547067642211914
20
117.1487033367157
30
0
10
-63.212828636169434
20
117.48976767063141
30
0
0
SPLINE
5
688
100
AcDbEntity
8
0
100
AcDbSpline
70
0
71
2
72
6
73
3
74
0
42
0.000000001
43
0.0000000001
44
0.0000000001
40
0
40
0
40
0
40
1
40
1
40
1
10
-63.212828636169434
20
117.48976767063141
30
0
10
-62.871761322021484
20
117.83083200454712
30
0
10
-62.871761322021484
20
118.30832123756409
30
0
0
SPLINE
5
689
100
AcDbEntity
8
0
100
AcDbSpline
70
0
71
2
72
6
73
3
74
0
42
0.000000001
43
0.0000000001
44
0.0000000001
40
0
40
0
40
0
40
1
40
1
40
1
10
-62.871761322021484
20
118.30832123756409
30
0
10
-62.871761322021484
20
118.7858110666275
30
0
10
-63.212828636169434
20
119.12005424499512
30
0
0
SPLINE
5
690
100
AcDbEntity
8
0
100
AcDbSpline
70
0
71
2
72
6
73
3
74
0
42
0.000000001
43
0.0000000001
44
0.0000000001
40
0
40
0
40
0
40
1
40
1
40
1
10
-63.212828636169434
20
119.12005424499512
30
0
10
-63.547067642211914
20
119.45429682731628
30
0
10
-64.017739295959473
20
119.45429682731628
30
0
0
SPLINE
5
691
100
AcDbEntity
8
0
100
AcDbSpline
70
0
71
2
72
6
73
3
74
0
42
0.000000001
43
0.0000000001
44
0.0000000001
40
0
40
0
40
0
40
1
40
1
40
1
10
-64.017739295959473
20
119.45429682731628
30
0
10
-64.495229721069336
20
119.45429682731628
30
0
10
-64.829468727111816
20
119.12005424499512
30
0
0
SPLINE
5
692
100
AcDbEntity
8
0
100
AcDbSpline
70
0
71
2
72
6
73
3
74
0
42
0.000000001
43
0.0000000001
44
0.0000000001
40
0
40
0
40
0
40
1
40
1
40
1
10
-64.829468727111816
20
119.12005424499512
30
0
10
-65.163712501525879
20
118.7858110666275
30
0
10
-65.163712501525879
20
118.30832123756409
30
0
0
SPLINE
5
693
100
AcDbEntity
8
0
100
AcDbSpline
70
0
71
2
72
6
73
3
74
0
42
0.000000001
43
0.0000000001
44
0.0000000001
40
0
40
0
40
0
40
1
40
1
40
1
10
-65.163712501525879
20
118.30832123756409
30
0
10
-65.163712501525879
20
117.83083200454712
30
0
10
-64.829468727111816
20
117.48976767063141
30
0
0
SPLINE
5
694
100
AcDbEntity
8
0
100
AcDbSpline
70
0
71
2
72
6
73
3
74
0
42
0.000000001
43
0.0000000001
44
0.0000000001
40
0
40
0
40
0
40
1
40
1
40
1
10
-64.829468727111816
20
117.48976767063141
30
0
10
-64.495229721069336
20
117.1487033367157
30
0
10
-64.017739295959473
20
117.1487033367157
30
0
0
LINE
5
695
100
AcDbEntity
8
0
100
AcDbLine
10
-38.997273445129395
20
111.2824010848999
30
0
11
-39.63165283203125
21
110.40245532989502
31
0
0
SPLINE
5
696
100
AcDbEntity
8
0
100
AcDbSpline
70
0
71
2
72
6
73
3
74
0
42
0.000000001
43
0.0000000001
44
0.0000000001
40
0
40
0
40
0
40
1
40
1
40
1
10
-39.63165283203125
20
110.40245532989502
30
0
10
-43.23328971862793
20
112.10095524787903
30
0
10
-44.577083587646484
20
115.42974054813385
30
0
0
LINE
5
697
100
AcDbEntity
8
0
100
AcDbLine
10
-44.577083587646484
20
115.42974054813385
30
0
11
-44.577083587646484
21
109.13369655609131
31
0
0
LINE
5
698
100
AcDbEntity
8
0
100
AcDbLine
10
-44.577083587646484
20
109.13369655609131
30
0
11
-45.634384155273438
21
109.16098237037659
31
0
0
LINE
5
699
100
AcDbEntity
8
0
100
AcDbLine
10
-45.634384155273438
20
109.16098237037659
30
0
11
-45.634384155273438
21
115.32060027122498
31
0
0
SPLINE
5
700
100
AcDbEntity
8
0
100
AcDbSpline
70
0
71
2
72
6
73
3
74
0
42
0.000000001
43
0.0000000001
44
0.0000000001
40
0
40
0
40
0
40
1
40
1
40
1
10
-45.634384155273438
20
115.32060027122498
30
0
10
-47.353343963623047
20
112.36698508262634
30
0
10
-50.634384155273438
20
110.44338345527649
30
0
0
LINE
5
701
100
AcDbEntity
8
0
100
AcDbLine
10
-50.634384155273438
20
110.44338345527649
30
0
11
-51.33697509765625
21
111.30968570709229
31
0
0
SPLINE
5
702
100
AcDbEntity
8
0
100
AcDbSpline
70
0
71
2
72
6
73
3
74
0
42
0.000000001
43
0.0000000001
44
0.0000000001
40
0
40
0
40
0
40
1
40
1
40
1
10
-51.33697509765625
20
111.30968570709229
30
0
10
-48.253755569458008
20
113.09004068374634
30
0
10
-46.807641983032227
20
115.5047744512558
30
0
0
LINE
5
703
100
AcDbEntity
8
0
100
AcDbLine
10
-46.807641983032227
20
115.5047744512558
30
0
11
-50.552525520324707
21
115.5047744512558
31
0
0
LINE
5
704
100
AcDbEntity
8
0
100
AcDbLine
10
-50.552525520324707
20
115.5047744512558
30
0
11
-50.552525520324707
21
116.52114570140839
31
0
0
LINE
5
705
100
AcDbEntity
8
0
100
AcDbLine
10
-50.552525520324707
20
116.52114570140839
30
0
11
-45.688953399658203
21
116.52114570140839
31
0
0
LINE
5
706
100
AcDbEntity
8
0
100
AcDbLine
10
-45.688953399658203
20
116.52114570140839
30
0
11
-45.688953399658203
21
118.66302847862244
31
0
0
LINE
5
707
100
AcDbEntity
8
0
100
AcDbLine
10
-45.688953399658203
20
118.66302847862244
30
0
11
-49.645295143127441
21
118.66302847862244
31
0
0
LINE
5
708
100
AcDbEntity
8
0
100
AcDbLine
10
-49.645295143127441
20
118.66302847862244
30
0
11
-49.645295143127441
21
119.67939972877502
31
0
0
LINE
5
709
100
AcDbEntity
8
0
100
AcDbLine
10
-49.645295143127441
20
119.67939972877502
30
0
11
-45.688953399658203
21
119.67939972877502
31
0
0
LINE
5
710
100
AcDbEntity
8
0
100
AcDbLine
10
-45.688953399658203
20
119.67939972877502
30
0
11
-45.688953399658203
21
121.77353382110596
31
0
0
LINE
5
711
100
AcDbEntity
8
0
100
AcDbLine
10
-45.688953399658203
20
121.77353382110596
30
0
11
-44.577083587646484
21
121.77353382110596
31
0
0
LINE
5
712
100
AcDbEntity
8
0
100
AcDbLine
10
-44.577083587646484
20
121.77353382110596
30
0
11
-44.577083587646484
21
119.67939972877502
31
0
0
LINE
5
713
100
AcDbEntity
8
0
100
AcDbLine
10
-44.577083587646484
20
119.67939972877502
30
0
11
-40.66166877746582
21
119.67939972877502
31
0
0
LINE
5
714
100
AcDbEntity
8
0
100
AcDbLine
10
-40.66166877746582
20
119.67939972877502
30
0
11
-40.66166877746582
21
118.66302847862244
31
0
0
LINE
5
715
100
AcDbEntity
8
0
100
AcDbLine
10
-40.66166877746582
20
118.66302847862244
30
0
11
-44.577083587646484
21
118.66302847862244
31
0
0
LINE
5
716
100
AcDbEntity
8
0
100
AcDbLine
10
-44.577083587646484
20
118.66302847862244
30
0
11
-44.577083587646484
21
116.52114570140839
31
0
0
LINE
5
717
100
AcDbEntity
8
0
100
AcDbLine
10
-44.577083587646484
20
116.52114570140839
30
0
11
-39.699864387512207
21
116.52114570140839
31
0
0
LINE
5
718
100
AcDbEntity
8
0
100
AcDbLine
10
-39.699864387512207
20
116.52114570140839
30
0
11
-39.699864387512207
21
115.5047744512558
31
0
0
LINE
5
719
100
AcDbEntity
8
0
100
AcDbLine
10
-39.699864387512207
20
115.5047744512558
30
0
11
-43.540248870849609
21
115.5047744512558
31
0
0
SPLINE
5
720
100
AcDbEntity
8
0
100
AcDbSpline
70
0
71
2
72
6
73
3
74
0
42
0.000000001
43
0.0000000001
44
0.0000000001
40
0
40
0
40
0
40
1
40
1
40
1
10
-43.540248870849609
20
115.5047744512558
30
0
10
-42.169170379638672
20
112.82401084899902
30
0
10
-38.997273445129395
20
111.2824010848999
30
0
0
LINE
5
721
100
AcDbEntity
8
0
100
AcDbLine
10
-25.395641326904297
20
117.18963146209717
30
0
11
-29.317874908447266
21
117.18963146209717
31
0
0
LINE
5
722
100
AcDbEntity
8
0
100
AcDbLine
10
-29.317874908447266
20
117.18963146209717
30
0
11
-29.317874908447266
21
116.35743498802185
31
0
0
LINE
5
723
100
AcDbEntity
8
0
100
AcDbLine
10
-29.317874908447266
20
116.35743498802185
30
0
11
-25.798091888427734
21
116.35743498802185
31
0
0
LINE
5
724
100
AcDbEntity
8
0
100
AcDbLine
10
-25.798091888427734
20
116.35743498802185
30
0
11
-25.798091888427734
21
110.72305560112
31
0
0
SPLINE
5
725
100
AcDbEntity
8
0
100
AcDbSpline
70
0
71
2
72
6
73
3
74
0
42
0.000000001
43
0.0000000001
44
0.0000000001
40
0
40
0
40
0
40
1
40
1
40
1
10
-25.798091888427734
20
110.72305560112
30
0
10
-25.798091888427734
20
110.12278318405151
30
0
10
-26.084585189819336
20
109.78171944618225
30
0
0
SPLINE
5
726
100
AcDbEntity
8
0
100
AcDbSpline
70
0
71
2
72
6
73
3
74
0
42
0.000000001
43
0.0000000001
44
0.0000000001
40
0
40
0
40
0
40
1
40
1
40
1
10
-26.084585189819336
20
109.78171944618225
30
0
10
-26.364259719848633
20
109.44065451622009
30
0
10
-26.746253967285156
20
109.42019104957581
30
0
0
SPLINE
5
727
100
AcDbEntity
8
0
100
AcDbSpline
70
0
71
2
72
6
73
3
74
0
42
0.000000001
43
0.0000000001
44
0.0000000001
40
0
40
0
40
0
40
1
40
1
40
1
10
-26.746253967285156
20
109.42019104957581
30
0
10
-27.128238677978516
20
109.39972758293152
30
0
10
-27.980899810791016
20
109.39972758293152
30
0
0
LINE
5
728
100
AcDbEntity
8
0
100
AcDbLine
10
-27.980899810791016
20
109.39972758293152
30
0
11
-28.328790664672852
21
110.4297411441803
31
0
0
LINE
5
729
100
AcDbEntity
8
0
100
AcDbLine
10
-28.328790664672852
20
110.4297411441803
30
0
11
-27.087316513061523
21
110.37517070770264
31
0
0
SPLINE
5
730
100
AcDbEntity
8
0
100
AcDbSpline
70
0
71
2
72
6
73
3
74
0
42
0.000000001
43
0.0000000001
44
0.0000000001
40
0
40
0
40
0
40
1
40
1
40
1
10
-27.087316513061523
20
110.37517070770264
30
0
10
-26.848573684692383
20
110.37517070770264
30
0
10
-26.848573684692383
20
110.64120054244995
30
0
0
LINE
5
731
100
AcDbEntity
8
0
100
AcDbLine
10
-26.848573684692383
20
110.64120054244995
30
0
11
-26.848573684692383
21
115.33424258232117
31
0
0
LINE
5
732
100
AcDbEntity
8
0
100
AcDbLine
10
-26.848573684692383
20
115.33424258232117
30
0
11
-29.317874908447266
21
115.33424258232117
31
0
0
LINE
5
733
100
AcDbEntity
8
0
100
AcDbLine
10
-29.317874908447266
20
115.33424258232117
30
0
11
-29.317874908447266
21
112.77626156806946
31
0
0
LINE
5
734
100
AcDbEntity
8
0
100
AcDbLine
10
-29.317874908447266
20
112.77626156806946
30
0
11
-28.506145477294922
21
112.77626156806946
31
0
0
LINE
5
735
100
AcDbEntity
8
0
100
AcDbLine
10
-28.506145477294922
20
112.77626156806946
30
0
11
-28.506145477294922
21
114.66575741767883
31
0
0
LINE
5
736
100
AcDbEntity
8
0
100
AcDbLine
10
-28.506145477294922
20
114.66575741767883
30
0
11
-27.489776611328125
21
114.66575741767883
31
0
0
LINE
5
737
100
AcDbEntity
8
0
100
AcDbLine
10
-27.489776611328125
20
114.66575741767883
30
0
11
-27.489776611328125
21
111.1459755897522
31
0
0
LINE
5
738
100
AcDbEntity
8
0
100
AcDbLine
10
-27.489776611328125
20
111.1459755897522
30
0
11
-28.506145477294922
21
111.1459755897522
31
0
0
LINE
5
739
100
AcDbEntity
8
0
100
AcDbLine
10
-28.506145477294922
20
111.1459755897522
30
0
11
-28.506145477294922
21
111.74624800682068
31
0
0
LINE
5
740
100
AcDbEntity
8
0
100
AcDbLine
10
-28.506145477294922
20
111.74624800682068
30
0
11
-31.207370758056641
21
111.74624800682068
31
0
0
LINE
5
741
100
AcDbEntity
8
0
100
AcDbLine
10
-31.207370758056641
20
111.74624800682068
30
0
11
-31.207370758056641
21
111.20054602622986
31
0
0
LINE
5
742
100
AcDbEntity
8
0
100
AcDbLine
10
-31.207370758056641
20
111.20054602622986
30
0
11
-32.210097312927246
21
111.20054602622986
31
0
0
LINE
5
743
100
AcDbEntity
8
0
100
AcDbLine
10
-32.210097312927246
20
111.20054602622986
30
0
11
-32.210097312927246
21
114.66575741767883
31
0
0
LINE
5
744
100
AcDbEntity
8
0
100
AcDbLine
10
-32.210097312927246
20
114.66575741767883
30
0
11
-31.207370758056641
21
114.66575741767883
31
0
0
LINE
5
745
100
AcDbEntity
8
0
100
AcDbLine
10
-31.207370758056641
20
114.66575741767883
30
0
11
-31.207370758056641
21
112.77626156806946
31
0
0
LINE
5
746
100
AcDbEntity
8
0
100
AcDbLine
10
-31.207370758056641
20
112.77626156806946
30
0
11
-30.395636558532715
21
112.77626156806946
31
0
0
LINE
5
747
100
AcDbEntity
8
0
100
AcDbLine
10
-30.395636558532715
20
112.77626156806946
30
0
11
-30.395636558532715
21
115.34788489341736
31
0
0
LINE
5
748
100
AcDbEntity
8
0
100
AcDbLine
10
-30.395636558532715
20
115.34788489341736
30
0
11
-32.912693023681641
21
115.34788489341736
31
0
0
LINE
5
749
100
AcDbEntity
8
0
100
AcDbLine
10
-32.912693023681641
20
115.34788489341736
30
0
11
-32.92633056640625
21
109.24283742904663
31
0
0
LINE
5
750
100
AcDbEntity
8
0
100
AcDbLine
10
-32.92633056640625
20
109.24283742904663
30
0
11
-33.969988822937012
21
109.24283742904663
31
0
0
LINE
5
751
100
AcDbEntity
8
0
100
AcDbLine
10
-33.969988822937012
20
109.24283742904663
30
0
11
-33.969988822937012
21
116.35743498802185
31
0
0
LINE
5
752
100
AcDbEntity
8
0
100
AcDbLine
10
-33.969988822937012
20
116.35743498802185
30
0
11
-30.395636558532715
21
116.35743498802185
31
0
0
LINE
5
753
100
AcDbEntity
8
0
100
AcDbLine
10
-30.395636558532715
20
116.35743498802185
30
0
11
-30.395636558532715
21
117.18963146209717
31
0
0
LINE
5
754
100
AcDbEntity
8
0
100
AcDbLine
10
-30.395636558532715
20
117.18963146209717
30
0
11
-34.379267692565918
21
117.18963146209717
31
0
0
LINE
5
755
100
AcDbEntity
8
0
100
AcDbLine
10
-34.379267692565918
20
117.18963146209717
30
0
11
-34.379267692565918
21
118.21282386779785
31
0
0
LINE
5
756
100
AcDbEntity
8
0
100
AcDbLine
10
-34.379267692565918
20
118.21282386779785
30
0
11
-32.25102424621582
21
118.21282386779785
31
0
0
LINE
5
757
100
AcDbEntity
8
0
100
AcDbLine
10
-32.25102424621582
20
118.21282386779785
30
0
11
-32.25102424621582
21
119.55661654472351
31
0
0
LINE
5
758
100
AcDbEntity
8
0
100
AcDbLine
10
-32.25102424621582
20
119.55661654472351
30
0
11
-34.08595085144043
21
119.55661654472351
31
0
0
LINE
5
759
100
AcDbEntity
8
0
100
AcDbLine
10
-34.08595085144043
20
119.55661654472351
30
0
11
-34.08595085144043
21
120.5729877948761
31
0
0
LINE
5
760
100
AcDbEntity
8
0
100
AcDbLine
10
-34.08595085144043
20
120.5729877948761
30
0
11
-32.25102424621582
21
120.5729877948761
31
0
0
LINE
5
761
100
AcDbEntity
8
0
100
AcDbLine
10
-32.25102424621582
20
120.5729877948761
30
0
11
-32.25102424621582
21
121.63710832595825
31
0
0
LINE
5
762
100
AcDbEntity
8
0
100
AcDbLine
10
-32.25102424621582
20
121.63710832595825
30
0
11
-31.207370758056641
21
121.63710832595825
31
0
0
LINE
5
763
100
AcDbEntity
8
0
100
AcDbLine
10
-31.207370758056641
20
121.63710832595825
30
0
11
-31.207370758056641
21
120.5729877948761
31
0
0
LINE
5
764
100
AcDbEntity
8
0
100
AcDbLine
10
-31.207370758056641
20
120.5729877948761
30
0
11
-28.567533493041992
21
120.5729877948761
31
0
0
LINE
5
765
100
AcDbEntity
8
0
100
AcDbLine
10
-28.567533493041992
20
120.5729877948761
30
0
11
-28.567533493041992
21
121.63710832595825
31
0
0
LINE
5
766
100
AcDbEntity
8
0
100
AcDbLine
10
-28.567533493041992
20
121.63710832595825
30
0
11
-27.517051696777344
21
121.63710832595825
31
0
0
LINE
5
767
100
AcDbEntity
8
0
100
AcDbLine
10
-27.517051696777344
20
121.63710832595825
30
0
11
-27.517051696777344
21
120.5729877948761
31
0
0
LINE
5
768
100
AcDbEntity
8
0
100
AcDbLine
10
-27.517051696777344
20
120.5729877948761
30
0
11
-25.504779815673828
21
120.5729877948761
31
0
0
LINE
5
769
100
AcDbEntity
8
0
100
AcDbLine
10
-25.504779815673828
20
120.5729877948761
30
0
11
-25.504779815673828
21
119.55661654472351
31
0
0
LINE
5
770
100
AcDbEntity
8
0
100
AcDbLine
10
-25.504779815673828
20
119.55661654472351
30
0
11
-27.517051696777344
21
119.55661654472351
31
0
0
LINE
5
771
100
AcDbEntity
8
0
100
AcDbLine
10
-27.517051696777344
20
119.55661654472351
30
0
11
-27.517051696777344
21
118.21282386779785
31
0
0
LINE
5
772
100
AcDbEntity
8
0
100
AcDbLine
10
-27.517051696777344
20
118.21282386779785
30
0
11
-25.395641326904297
21
118.21282386779785
31
0
0
LINE
5
773
100
AcDbEntity
8
0
100
AcDbLine
10
-25.395641326904297
20
118.21282386779785
30
0
11
-25.395641326904297
21
117.18963146209717
31
0
0
LINE
5
774
100
AcDbEntity
8
0
100
AcDbLine
10
-28.567533493041992
20
118.21282386779785
30
0
11
-28.567533493041992
21
119.55661654472351
31
0
0
LINE
5
775
100
AcDbEntity
8
0
100
AcDbLine
10
-28.567533493041992
20
119.55661654472351
30
0
11
-31.207370758056641
21
119.55661654472351
31
0
0
LINE
5
776
100
AcDbEntity
8
0
100
AcDbLine
10
-31.207370758056641
20
119.55661654472351
30
0
11
-31.207370758056641
21
118.21282386779785
31
0
0
LINE
5
777
100
AcDbEntity
8
0
100
AcDbLine
10
-31.207370758056641
20
118.21282386779785
30
0
11
-28.567533493041992
21
118.21282386779785
31
0
0
LINE
5
778
100
AcDbEntity
8
0
100
AcDbLine
10
-34.304232597351074
20
119.65211451053619
30
0
11
-35.034112930297852
21
118.96998643875122
31
0
0
SPLINE
5
779
100
AcDbEntity
8
0
100
AcDbSpline
70
0
71
2
72
6
73
3
74
0
42
0.000000001
43
0.0000000001
44
0.0000000001
40
0
40
0
40
0
40
1
40
1
40
1
10
-35.034112930297852
20
118.96998643875122
30
0
10
-35.798091888427734
20
120.02046346664429
30
0
10
-36.978178024291992
20
120.65484404563904
30
0
0
LINE
5
780
100
AcDbEntity
8
0
100
AcDbLine
10
-36.978178024291992
20
120.65484404563904
30
0
11
-36.330156326293945
21
121.34379267692566
31
0
0
SPLINE
5
781
100
AcDbEntity
8
0
100
AcDbSpline
70
0
71
2
72
6
73
3
74
0
42
0.000000001
43
0.0000000001
44
0.0000000001
40
0
40
0
40
0
40
1
40
1
40
1
10
-36.330156326293945
20
121.34379267692566
30
0
10
-35.068216323852539
20
120.69577097892761
30
0
10
-34.304232597351074
20
119.65211451053619
30
0
0
LINE
5
782
100
AcDbEntity
8
0
100
AcDbLine
10
-34.849934577941895
20
116.81446075439453
30
0
11
-35.593452453613281
21
116.06411993503571
31
0
0
SPLINE
5
783
100
AcDbEntity
8
0
100
AcDbSpline
70
0
71
2
72
6
73
3
74
0
42
0.000000001
43
0.0000000001
44
0.0000000001
40
0
40
0
40
0
40
1
40
1
40
1
10
-35.593452453613281
20
116.06411993503571
30
0
10
-36.323332786560059
20
117.14870393276215
30
0
10
-37.517056465148926
20
117.90586590766907
30
0
0
LINE
5
784
100
AcDbEntity
8
0
100
AcDbLine
10
-37.517056465148926
20
117.90586590766907
30
0
11
-36.848573684692383
21
118.57435166835785
31
0
0
SPLINE
5
785
100
AcDbEntity
8
0
100
AcDbSpline
70
0
71
2
72
6
73
3
74
0
42
0.000000001
43
0.0000000001
44
0.0000000001
40
0
40
0
40
0
40
1
40
1
40
1
10
-36.848573684692383
20
118.57435166835785
30
0
10
-35.641202926635742
20
117.89904475212097
30
0
10
-34.849934577941895
20
116.81446075439453
30
0
0
SPLINE
5
786
100
AcDbEntity
8
0
100
AcDbSpline
70
0
71
2
72
6
73
3
74
0
42
0.000000001
43
0.0000000001
44
0.0000000001
40
0
40
0
40
0
40
1
40
1
40
1
10
-34.406552314758301
20
114.48158264160156
30
0
10
-35.347890853881836
20
111.10504746437073
30
0
10
-36.930427551269531
20
109.48158264160156
30
0
0
LINE
5
787
100
AcDbEntity
8
0
100
AcDbLine
10
-36.930427551269531
20
109.48158264160156
30
0
11
-37.742156982421875
21
110.13642549514771
31
0
0
SPLINE
5
788
100
AcDbEntity
8
0
100
AcDbSpline
70
0
71
2
72
6
73
3
74
0
42
0.000000001
43
0.0000000001
44
0.0000000001
40
0
40
0
40
0
40
1
40
1
40
1
10
-37.742156982421875
20
110.13642549514771
30
0
10
-35.954980850219727
20
112.19645261764526
30
0
10
-35.300140380859375
20
114.8567533493042
30
0
0
LINE
5
789
100
AcDbEntity
8
0
100
AcDbLine
10
-35.300140380859375
20
114.8567533493042
30
0
11
-34.406552314758301
21
114.48158264160156
31
0
0
ENDSEC
0
SECTION
2
OBJECTS
0
DICTIONARY
5
C
100
AcDbDictionary
3
ACAD_GROUP
350
D
3
ACAD_MLINESTYLE
350
17
0
DICTIONARY
5
D
100
AcDbDictionary
0
DICTIONARY
5
1A
330
C
100
AcDbDictionary
0
DICTIONARY
5
17
100
AcDbDictionary
0
ENDSEC
0
EOF
